  0
SECTION
  2
HEADER
  9
$ACADVER
  1
AC1009
  9
$FILLMODE
 70
 0
  9
$SPLFRAME
 70
 1
  9
$EXTMIN
 10
0
 20
0
 30
0.0
  9
$EXTMAX
 10
1058.33
 20
1058.33
 30
0.0
  0
ENDSEC
  0
SECTION
  2
TABLES
  0
TABLE
  2
LAYER
 70
1
  0
LAYER
  2
0
 70
     0
 62
     7
  6
CONTINUOUS
  0
ENDTAB
  0
ENDSEC
  0
SECTION
  2
ENTITIES
  0
LINE
  8
0
 62
     0
 10
296.609
 20
97.977
 30
0.0
 11
296.766
 21
97.9703
 31
0.0
  0
LINE
  8
0
 62
     0
 10
296.766
 20
97.9703
 30
0.0
 11
296.922
 21
97.9523
 31
0.0
  0
LINE
  8
0
 62
     0
 10
296.922
 20
97.9523
 30
0.0
 11
297.076
 21
97.9219
 31
0.0
  0
LINE
  8
0
 62
     0
 10
297.076
 20
97.9219
 30
0.0
 11
297.226
 21
97.8793
 31
0.0
  0
LINE
  8
0
 62
     0
 10
297.226
 20
97.8793
 30
0.0
 11
297.374
 21
97.8242
 31
0.0
  0
LINE
  8
0
 62
     0
 10
297.374
 20
97.8242
 30
0.0
 11
297.517
 21
97.7593
 31
0.0
  0
LINE
  8
0
 62
     0
 10
297.517
 20
97.7593
 30
0.0
 11
297.653
 21
97.6824
 31
0.0
  0
LINE
  8
0
 62
     0
 10
297.653
 20
97.6824
 30
0.0
 11
297.784
 21
97.5953
 31
0.0
  0
LINE
  8
0
 62
     0
 10
297.784
 20
97.5953
 30
0.0
 11
297.907
 21
97.4975
 31
0.0
  0
LINE
  8
0
 62
     0
 10
297.907
 20
97.4975
 30
0.0
 11
298.023
 21
97.3914
 31
0.0
  0
LINE
  8
0
 62
     0
 10
298.023
 20
97.3914
 30
0.0
 11
298.129
 21
97.2757
 31
0.0
  0
LINE
  8
0
 62
     0
 10
298.129
 20
97.2757
 30
0.0
 11
298.227
 21
97.1532
 31
0.0
  0
LINE
  8
0
 62
     0
 10
298.227
 20
97.1532
 30
0.0
 11
298.313
 21
97.022
 31
0.0
  0
LINE
  8
0
 62
     0
 10
298.313
 20
97.022
 30
0.0
 11
298.391
 21
96.8844
 31
0.0
  0
LINE
  8
0
 62
     0
 10
298.391
 20
96.8844
 30
0.0
 11
298.457
 21
96.7423
 31
0.0
  0
LINE
  8
0
 62
     0
 10
298.457
 20
96.7423
 30
0.0
 11
298.511
 21
96.5962
 31
0.0
  0
LINE
  8
0
 62
     0
 10
298.511
 20
96.5962
 30
0.0
 11
298.553
 21
96.4434
 31
0.0
  0
LINE
  8
0
 62
     0
 10
298.553
 20
96.4434
 30
0.0
 11
298.584
 21
96.2903
 31
0.0
  0
LINE
  8
0
 62
     0
 10
298.584
 20
96.2903
 30
0.0
 11
298.603
 21
96.1334
 31
0.0
  0
LINE
  8
0
 62
     0
 10
298.603
 20
96.1334
 30
0.0
 11
298.608
 21
95.9764
 31
0.0
  0
LINE
  8
0
 62
     0
 10
298.608
 20
95.9764
 30
0.0
 11
298.608
 21
2.37712
 31
0.0
  0
LINE
  8
0
 62
     0
 10
298.608
 20
2.37712
 30
0.0
 11
298.603
 21
2.2214
 31
0.0
  0
LINE
  8
0
 62
     0
 10
298.603
 20
2.2214
 30
0.0
 11
298.584
 21
2.0643
 31
0.0
  0
LINE
  8
0
 62
     0
 10
298.584
 20
2.0643
 30
0.0
 11
298.553
 21
1.91134
 31
0.0
  0
LINE
  8
0
 62
     0
 10
298.553
 20
1.91134
 30
0.0
 11
298.511
 21
1.75838
 31
0.0
  0
LINE
  8
0
 62
     0
 10
298.511
 20
1.75838
 30
0.0
 11
298.457
 21
1.6123
 31
0.0
  0
LINE
  8
0
 62
     0
 10
298.457
 20
1.6123
 30
0.0
 11
298.391
 21
1.47037
 31
0.0
  0
LINE
  8
0
 62
     0
 10
298.391
 20
1.47037
 30
0.0
 11
298.313
 21
1.33256
 31
0.0
  0
LINE
  8
0
 62
     0
 10
298.313
 20
1.33256
 30
0.0
 11
298.227
 21
1.20165
 31
0.0
  0
LINE
  8
0
 62
     0
 10
298.227
 20
1.20165
 30
0.0
 11
298.129
 21
1.079
 31
0.0
  0
LINE
  8
0
 62
     0
 10
298.129
 20
1.079
 30
0.0
 11
298.023
 21
0.963249
 31
0.0
  0
LINE
  8
0
 62
     0
 10
298.023
 20
0.963249
 30
0.0
 11
297.907
 21
0.857141
 31
0.0
  0
LINE
  8
0
 62
     0
 10
297.907
 20
0.857141
 30
0.0
 11
297.784
 21
0.759298
 31
0.0
  0
LINE
  8
0
 62
     0
 10
297.784
 20
0.759298
 30
0.0
 11
297.653
 21
0.671103
 31
0.0
  0
LINE
  8
0
 62
     0
 10
297.653
 20
0.671103
 30
0.0
 11
297.517
 21
0.595313
 31
0.0
  0
LINE
  8
0
 62
     0
 10
297.517
 20
0.595313
 30
0.0
 11
297.374
 21
0.529167
 31
0.0
  0
LINE
  8
0
 62
     0
 10
297.374
 20
0.529167
 30
0.0
 11
297.226
 21
0.474045
 31
0.0
  0
LINE
  8
0
 62
     0
 10
297.226
 20
0.474045
 30
0.0
 11
297.076
 21
0.432703
 31
0.0
  0
LINE
  8
0
 62
     0
 10
297.076
 20
0.432703
 30
0.0
 11
296.922
 21
0.402389
 31
0.0
  0
LINE
  8
0
 62
     0
 10
296.922
 20
0.402389
 30
0.0
 11
296.766
 21
0.383096
 31
0.0
  0
LINE
  8
0
 62
     0
 10
296.766
 20
0.383096
 30
0.0
 11
296.609
 21
0.377582
 31
0.0
  0
LINE
  8
0
 62
     0
 10
296.609
 20
0.377582
 30
0.0
 11
2.096
 21
0.377582
 31
0.0
  0
LINE
  8
0
 62
     0
 10
2.096
 20
0.377582
 30
0.0
 11
1.9389
 21
0.383096
 31
0.0
  0
LINE
  8
0
 62
     0
 10
1.9389
 20
0.383096
 30
0.0
 11
1.7818
 21
0.402389
 31
0.0
  0
LINE
  8
0
 62
     0
 10
1.7818
 20
0.402389
 30
0.0
 11
1.62884
 21
0.432703
 31
0.0
  0
LINE
  8
0
 62
     0
 10
1.62884
 20
0.432703
 30
0.0
 11
1.47588
 21
0.474045
 31
0.0
  0
LINE
  8
0
 62
     0
 10
1.47588
 20
0.474045
 30
0.0
 11
1.32981
 21
0.529167
 31
0.0
  0
LINE
  8
0
 62
     0
 10
1.32981
 20
0.529167
 30
0.0
 11
1.18787
 21
0.595313
 31
0.0
  0
LINE
  8
0
 62
     0
 10
1.18787
 20
0.595313
 30
0.0
 11
1.05006
 21
0.671103
 31
0.0
  0
LINE
  8
0
 62
     0
 10
1.05006
 20
0.671103
 30
0.0
 11
0.919152
 21
0.759298
 31
0.0
  0
LINE
  8
0
 62
     0
 10
0.919152
 20
0.759298
 30
0.0
 11
0.796505
 21
0.857141
 31
0.0
  0
LINE
  8
0
 62
     0
 10
0.796505
 20
0.857141
 30
0.0
 11
0.680752
 21
0.963249
 31
0.0
  0
LINE
  8
0
 62
     0
 10
0.680752
 20
0.963249
 30
0.0
 11
0.574643
 21
1.079
 31
0.0
  0
LINE
  8
0
 62
     0
 10
0.574643
 20
1.079
 30
0.0
 11
0.4768
 21
1.20165
 31
0.0
  0
LINE
  8
0
 62
     0
 10
0.4768
 20
1.20165
 30
0.0
 11
0.389985
 21
1.33256
 31
0.0
  0
LINE
  8
0
 62
     0
 10
0.389985
 20
1.33256
 30
0.0
 11
0.312815
 21
1.47037
 31
0.0
  0
LINE
  8
0
 62
     0
 10
0.312815
 20
1.47037
 30
0.0
 11
0.248047
 21
1.6123
 31
0.0
  0
LINE
  8
0
 62
     0
 10
0.248047
 20
1.6123
 30
0.0
 11
0.192925
 21
1.75838
 31
0.0
  0
LINE
  8
0
 62
     0
 10
0.192925
 20
1.75838
 30
0.0
 11
0.150206
 21
1.91134
 31
0.0
  0
LINE
  8
0
 62
     0
 10
0.150206
 20
1.91134
 30
0.0
 11
0.119889
 21
2.0643
 31
0.0
  0
LINE
  8
0
 62
     0
 10
0.119889
 20
2.0643
 30
0.0
 11
0.101975
 21
2.2214
 31
0.0
  0
LINE
  8
0
 62
     0
 10
0.101975
 20
2.2214
 30
0.0
 11
0.0950846
 21
2.37712
 31
0.0
  0
LINE
  8
0
 62
     0
 10
0.0950846
 20
2.37712
 30
0.0
 11
0.0950846
 21
95.9764
 31
0.0
  0
LINE
  8
0
 62
     0
 10
0.0950846
 20
95.9764
 30
0.0
 11
0.101975
 21
96.1334
 31
0.0
  0
LINE
  8
0
 62
     0
 10
0.101975
 20
96.1334
 30
0.0
 11
0.119889
 21
96.2903
 31
0.0
  0
LINE
  8
0
 62
     0
 10
0.119889
 20
96.2903
 30
0.0
 11
0.150206
 21
96.4434
 31
0.0
  0
LINE
  8
0
 62
     0
 10
0.150206
 20
96.4434
 30
0.0
 11
0.192925
 21
96.5962
 31
0.0
  0
LINE
  8
0
 62
     0
 10
0.192925
 20
96.5962
 30
0.0
 11
0.248047
 21
96.7423
 31
0.0
  0
LINE
  8
0
 62
     0
 10
0.248047
 20
96.7423
 30
0.0
 11
0.312815
 21
96.8844
 31
0.0
  0
LINE
  8
0
 62
     0
 10
0.312815
 20
96.8844
 30
0.0
 11
0.389985
 21
97.022
 31
0.0
  0
LINE
  8
0
 62
     0
 10
0.389985
 20
97.022
 30
0.0
 11
0.4768
 21
97.1532
 31
0.0
  0
LINE
  8
0
 62
     0
 10
0.4768
 20
97.1532
 30
0.0
 11
0.574643
 21
97.2757
 31
0.0
  0
LINE
  8
0
 62
     0
 10
0.574643
 20
97.2757
 30
0.0
 11
0.680752
 21
97.3914
 31
0.0
  0
LINE
  8
0
 62
     0
 10
0.680752
 20
97.3914
 30
0.0
 11
0.796505
 21
97.4975
 31
0.0
  0
LINE
  8
0
 62
     0
 10
0.796505
 20
97.4975
 30
0.0
 11
0.919152
 21
97.5953
 31
0.0
  0
LINE
  8
0
 62
     0
 10
0.919152
 20
97.5953
 30
0.0
 11
1.05006
 21
97.6824
 31
0.0
  0
LINE
  8
0
 62
     0
 10
1.05006
 20
97.6824
 30
0.0
 11
1.18787
 21
97.7593
 31
0.0
  0
LINE
  8
0
 62
     0
 10
1.18787
 20
97.7593
 30
0.0
 11
1.32981
 21
97.8242
 31
0.0
  0
LINE
  8
0
 62
     0
 10
1.32981
 20
97.8242
 30
0.0
 11
1.47588
 21
97.8793
 31
0.0
  0
LINE
  8
0
 62
     0
 10
1.47588
 20
97.8793
 30
0.0
 11
1.62884
 21
97.9219
 31
0.0
  0
LINE
  8
0
 62
     0
 10
1.62884
 20
97.9219
 30
0.0
 11
1.7818
 21
97.9523
 31
0.0
  0
LINE
  8
0
 62
     0
 10
1.7818
 20
97.9523
 30
0.0
 11
1.9389
 21
97.9703
 31
0.0
  0
LINE
  8
0
 62
     0
 10
1.9389
 20
97.9703
 30
0.0
 11
2.096
 21
97.977
 31
0.0
  0
LINE
  8
0
 62
     0
 10
2.096
 20
97.977
 30
0.0
 11
296.609
 21
97.977
 31
0.0
  0
LINE
  8
0
 62
     0
 10
2.13183
 20
4.30361
 30
0.0
 11
1.7129
 21
4.09141
 31
0.0
  0
LINE
  8
0
 62
     0
 10
1.7129
 20
4.09141
 30
0.0
 11
1.38217
 21
3.75931
 31
0.0
  0
LINE
  8
0
 62
     0
 10
1.38217
 20
3.75931
 30
0.0
 11
1.16858
 21
3.34036
 31
0.0
  0
LINE
  8
0
 62
     0
 10
1.16858
 20
3.34036
 30
0.0
 11
1.09416
 21
2.87734
 31
0.0
  0
LINE
  8
0
 62
     0
 10
1.09416
 20
2.87734
 30
0.0
 11
1.16858
 21
2.41432
 31
0.0
  0
LINE
  8
0
 62
     0
 10
1.16858
 20
2.41432
 30
0.0
 11
1.38217
 21
1.9954
 31
0.0
  0
LINE
  8
0
 62
     0
 10
1.38217
 20
1.9954
 30
0.0
 11
1.7129
 21
1.66329
 31
0.0
  0
LINE
  8
0
 62
     0
 10
1.7129
 20
1.66329
 30
0.0
 11
2.13183
 21
1.45107
 31
0.0
  0
LINE
  8
0
 62
     0
 10
2.13183
 20
1.45107
 30
0.0
 11
2.59485
 21
1.37804
 31
0.0
  0
LINE
  8
0
 62
     0
 10
2.59485
 20
1.37804
 30
0.0
 11
3.05787
 21
1.45107
 31
0.0
  0
LINE
  8
0
 62
     0
 10
3.05787
 20
1.45107
 30
0.0
 11
3.47679
 21
1.66329
 31
0.0
  0
LINE
  8
0
 62
     0
 10
3.47679
 20
1.66329
 30
0.0
 11
3.80891
 21
1.9954
 31
0.0
  0
LINE
  8
0
 62
     0
 10
3.80891
 20
1.9954
 30
0.0
 11
4.0211
 21
2.41432
 31
0.0
  0
LINE
  8
0
 62
     0
 10
4.0211
 20
2.41432
 30
0.0
 11
4.09554
 21
2.87734
 31
0.0
  0
LINE
  8
0
 62
     0
 10
4.09554
 20
2.87734
 30
0.0
 11
4.0211
 21
3.34036
 31
0.0
  0
LINE
  8
0
 62
     0
 10
4.0211
 20
3.34036
 30
0.0
 11
3.80891
 21
3.75931
 31
0.0
  0
LINE
  8
0
 62
     0
 10
3.80891
 20
3.75931
 30
0.0
 11
3.47679
 21
4.09141
 31
0.0
  0
LINE
  8
0
 62
     0
 10
3.47679
 20
4.09141
 30
0.0
 11
3.05787
 21
4.30361
 31
0.0
  0
LINE
  8
0
 62
     0
 10
3.05787
 20
4.30361
 30
0.0
 11
2.59485
 21
4.37804
 31
0.0
  0
LINE
  8
0
 62
     0
 10
2.59485
 20
4.37804
 30
0.0
 11
2.13183
 21
4.30361
 31
0.0
  0
LINE
  8
0
 62
     0
 10
99.9698
 20
4.30361
 30
0.0
 11
99.5507
 21
4.09141
 31
0.0
  0
LINE
  8
0
 62
     0
 10
99.5507
 20
4.09141
 30
0.0
 11
99.2202
 21
3.75931
 31
0.0
  0
LINE
  8
0
 62
     0
 10
99.2202
 20
3.75931
 30
0.0
 11
99.0064
 21
3.34036
 31
0.0
  0
LINE
  8
0
 62
     0
 10
99.0064
 20
3.34036
 30
0.0
 11
98.9323
 21
2.87734
 31
0.0
  0
LINE
  8
0
 62
     0
 10
98.9323
 20
2.87734
 30
0.0
 11
99.0064
 21
2.41432
 31
0.0
  0
LINE
  8
0
 62
     0
 10
99.0064
 20
2.41432
 30
0.0
 11
99.2202
 21
1.9954
 31
0.0
  0
LINE
  8
0
 62
     0
 10
99.2202
 20
1.9954
 30
0.0
 11
99.5507
 21
1.66329
 31
0.0
  0
LINE
  8
0
 62
     0
 10
99.5507
 20
1.66329
 30
0.0
 11
99.9698
 21
1.45107
 31
0.0
  0
LINE
  8
0
 62
     0
 10
99.9698
 20
1.45107
 30
0.0
 11
100.433
 21
1.37804
 31
0.0
  0
LINE
  8
0
 62
     0
 10
100.433
 20
1.37804
 30
0.0
 11
100.896
 21
1.45107
 31
0.0
  0
LINE
  8
0
 62
     0
 10
100.896
 20
1.45107
 30
0.0
 11
101.315
 21
1.66329
 31
0.0
  0
LINE
  8
0
 62
     0
 10
101.315
 20
1.66329
 30
0.0
 11
101.647
 21
1.9954
 31
0.0
  0
LINE
  8
0
 62
     0
 10
101.647
 20
1.9954
 30
0.0
 11
101.859
 21
2.41432
 31
0.0
  0
LINE
  8
0
 62
     0
 10
101.859
 20
2.41432
 30
0.0
 11
101.932
 21
2.87734
 31
0.0
  0
LINE
  8
0
 62
     0
 10
101.932
 20
2.87734
 30
0.0
 11
101.859
 21
3.34036
 31
0.0
  0
LINE
  8
0
 62
     0
 10
101.859
 20
3.34036
 30
0.0
 11
101.647
 21
3.75931
 31
0.0
  0
LINE
  8
0
 62
     0
 10
101.647
 20
3.75931
 30
0.0
 11
101.315
 21
4.09141
 31
0.0
  0
LINE
  8
0
 62
     0
 10
101.315
 20
4.09141
 30
0.0
 11
100.896
 21
4.30361
 31
0.0
  0
LINE
  8
0
 62
     0
 10
100.896
 20
4.30361
 30
0.0
 11
100.433
 21
4.37804
 31
0.0
  0
LINE
  8
0
 62
     0
 10
100.433
 20
4.37804
 30
0.0
 11
99.9698
 21
4.30361
 31
0.0
  0
LINE
  8
0
 62
     0
 10
197.808
 20
4.30361
 30
0.0
 11
197.389
 21
4.09141
 31
0.0
  0
LINE
  8
0
 62
     0
 10
197.389
 20
4.09141
 30
0.0
 11
197.058
 21
3.75931
 31
0.0
  0
LINE
  8
0
 62
     0
 10
197.058
 20
3.75931
 30
0.0
 11
196.844
 21
3.34036
 31
0.0
  0
LINE
  8
0
 62
     0
 10
196.844
 20
3.34036
 30
0.0
 11
196.77
 21
2.87734
 31
0.0
  0
LINE
  8
0
 62
     0
 10
196.77
 20
2.87734
 30
0.0
 11
196.844
 21
2.41432
 31
0.0
  0
LINE
  8
0
 62
     0
 10
196.844
 20
2.41432
 30
0.0
 11
197.058
 21
1.9954
 31
0.0
  0
LINE
  8
0
 62
     0
 10
197.058
 20
1.9954
 30
0.0
 11
197.389
 21
1.66329
 31
0.0
  0
LINE
  8
0
 62
     0
 10
197.389
 20
1.66329
 30
0.0
 11
197.808
 21
1.45107
 31
0.0
  0
LINE
  8
0
 62
     0
 10
197.808
 20
1.45107
 30
0.0
 11
198.271
 21
1.37804
 31
0.0
  0
LINE
  8
0
 62
     0
 10
198.271
 20
1.37804
 30
0.0
 11
198.735
 21
1.45107
 31
0.0
  0
LINE
  8
0
 62
     0
 10
198.735
 20
1.45107
 30
0.0
 11
199.153
 21
1.66329
 31
0.0
  0
LINE
  8
0
 62
     0
 10
199.153
 20
1.66329
 30
0.0
 11
199.485
 21
1.9954
 31
0.0
  0
LINE
  8
0
 62
     0
 10
199.485
 20
1.9954
 30
0.0
 11
199.697
 21
2.41432
 31
0.0
  0
LINE
  8
0
 62
     0
 10
199.697
 20
2.41432
 30
0.0
 11
199.77
 21
2.87734
 31
0.0
  0
LINE
  8
0
 62
     0
 10
199.77
 20
2.87734
 30
0.0
 11
199.697
 21
3.34036
 31
0.0
  0
LINE
  8
0
 62
     0
 10
199.697
 20
3.34036
 30
0.0
 11
199.485
 21
3.75931
 31
0.0
  0
LINE
  8
0
 62
     0
 10
199.485
 20
3.75931
 30
0.0
 11
199.153
 21
4.09141
 31
0.0
  0
LINE
  8
0
 62
     0
 10
199.153
 20
4.09141
 30
0.0
 11
198.735
 21
4.30361
 31
0.0
  0
LINE
  8
0
 62
     0
 10
198.735
 20
4.30361
 30
0.0
 11
198.271
 21
4.37804
 31
0.0
  0
LINE
  8
0
 62
     0
 10
198.271
 20
4.37804
 30
0.0
 11
197.808
 21
4.30361
 31
0.0
  0
LINE
  8
0
 62
     0
 10
295.644
 20
4.30361
 30
0.0
 11
295.227
 21
4.09141
 31
0.0
  0
LINE
  8
0
 62
     0
 10
295.227
 20
4.09141
 30
0.0
 11
294.895
 21
3.75931
 31
0.0
  0
LINE
  8
0
 62
     0
 10
294.895
 20
3.75931
 30
0.0
 11
294.681
 21
3.34036
 31
0.0
  0
LINE
  8
0
 62
     0
 10
294.681
 20
3.34036
 30
0.0
 11
294.608
 21
2.87734
 31
0.0
  0
LINE
  8
0
 62
     0
 10
294.608
 20
2.87734
 30
0.0
 11
294.681
 21
2.41432
 31
0.0
  0
LINE
  8
0
 62
     0
 10
294.681
 20
2.41432
 30
0.0
 11
294.895
 21
1.9954
 31
0.0
  0
LINE
  8
0
 62
     0
 10
294.895
 20
1.9954
 30
0.0
 11
295.227
 21
1.66329
 31
0.0
  0
LINE
  8
0
 62
     0
 10
295.227
 20
1.66329
 30
0.0
 11
295.644
 21
1.45107
 31
0.0
  0
LINE
  8
0
 62
     0
 10
295.644
 20
1.45107
 30
0.0
 11
296.109
 21
1.37804
 31
0.0
  0
LINE
  8
0
 62
     0
 10
296.109
 20
1.37804
 30
0.0
 11
296.573
 21
1.45107
 31
0.0
  0
LINE
  8
0
 62
     0
 10
296.573
 20
1.45107
 30
0.0
 11
296.991
 21
1.66329
 31
0.0
  0
LINE
  8
0
 62
     0
 10
296.991
 20
1.66329
 30
0.0
 11
297.323
 21
1.9954
 31
0.0
  0
LINE
  8
0
 62
     0
 10
297.323
 20
1.9954
 30
0.0
 11
297.535
 21
2.41432
 31
0.0
  0
LINE
  8
0
 62
     0
 10
297.535
 20
2.41432
 30
0.0
 11
297.608
 21
2.87734
 31
0.0
  0
LINE
  8
0
 62
     0
 10
297.608
 20
2.87734
 30
0.0
 11
297.535
 21
3.34036
 31
0.0
  0
LINE
  8
0
 62
     0
 10
297.535
 20
3.34036
 30
0.0
 11
297.323
 21
3.75931
 31
0.0
  0
LINE
  8
0
 62
     0
 10
297.323
 20
3.75931
 30
0.0
 11
296.991
 21
4.09141
 31
0.0
  0
LINE
  8
0
 62
     0
 10
296.991
 20
4.09141
 30
0.0
 11
296.573
 21
4.30361
 31
0.0
  0
LINE
  8
0
 62
     0
 10
296.573
 20
4.30361
 30
0.0
 11
296.109
 21
4.37804
 31
0.0
  0
LINE
  8
0
 62
     0
 10
296.109
 20
4.37804
 30
0.0
 11
295.644
 21
4.30361
 31
0.0
  0
LINE
  8
0
 62
     0
 10
4.09554
 20
92.9763
 30
0.0
 11
294.608
 21
92.9763
 31
0.0
  0
LINE
  8
0
 62
     0
 10
294.608
 20
92.9763
 30
0.0
 11
294.608
 21
5.37711
 31
0.0
  0
LINE
  8
0
 62
     0
 10
294.608
 20
5.37711
 30
0.0
 11
4.09554
 21
5.37711
 31
0.0
  0
LINE
  8
0
 62
     0
 10
4.09554
 20
5.37711
 30
0.0
 11
4.09554
 21
92.9763
 31
0.0
  0
LINE
  8
0
 62
     0
 10
2.13183
 20
96.9038
 30
0.0
 11
1.7129
 21
96.69
 31
0.0
  0
LINE
  8
0
 62
     0
 10
1.7129
 20
96.69
 30
0.0
 11
1.38217
 21
96.3595
 31
0.0
  0
LINE
  8
0
 62
     0
 10
1.38217
 20
96.3595
 30
0.0
 11
1.16858
 21
95.9404
 31
0.0
  0
LINE
  8
0
 62
     0
 10
1.16858
 20
95.9404
 30
0.0
 11
1.09416
 21
95.4775
 31
0.0
  0
LINE
  8
0
 62
     0
 10
1.09416
 20
95.4775
 30
0.0
 11
1.16858
 21
95.0143
 31
0.0
  0
LINE
  8
0
 62
     0
 10
1.16858
 20
95.0143
 30
0.0
 11
1.38217
 21
94.5956
 31
0.0
  0
LINE
  8
0
 62
     0
 10
1.38217
 20
94.5956
 30
0.0
 11
1.7129
 21
94.2633
 31
0.0
  0
LINE
  8
0
 62
     0
 10
1.7129
 20
94.2633
 30
0.0
 11
2.13183
 21
94.0513
 31
0.0
  0
LINE
  8
0
 62
     0
 10
2.13183
 20
94.0513
 30
0.0
 11
2.59485
 21
93.9768
 31
0.0
  0
LINE
  8
0
 62
     0
 10
2.59485
 20
93.9768
 30
0.0
 11
3.05787
 21
94.0513
 31
0.0
  0
LINE
  8
0
 62
     0
 10
3.05787
 20
94.0513
 30
0.0
 11
3.47679
 21
94.2633
 31
0.0
  0
LINE
  8
0
 62
     0
 10
3.47679
 20
94.2633
 30
0.0
 11
3.80891
 21
94.5956
 31
0.0
  0
LINE
  8
0
 62
     0
 10
3.80891
 20
94.5956
 30
0.0
 11
4.0211
 21
95.0143
 31
0.0
  0
LINE
  8
0
 62
     0
 10
4.0211
 20
95.0143
 30
0.0
 11
4.09554
 21
95.4775
 31
0.0
  0
LINE
  8
0
 62
     0
 10
4.09554
 20
95.4775
 30
0.0
 11
4.0211
 21
95.9404
 31
0.0
  0
LINE
  8
0
 62
     0
 10
4.0211
 20
95.9404
 30
0.0
 11
3.80891
 21
96.3595
 31
0.0
  0
LINE
  8
0
 62
     0
 10
3.80891
 20
96.3595
 30
0.0
 11
3.47679
 21
96.69
 31
0.0
  0
LINE
  8
0
 62
     0
 10
3.47679
 20
96.69
 30
0.0
 11
3.05787
 21
96.9038
 31
0.0
  0
LINE
  8
0
 62
     0
 10
3.05787
 20
96.9038
 30
0.0
 11
2.59485
 21
96.9768
 31
0.0
  0
LINE
  8
0
 62
     0
 10
2.59485
 20
96.9768
 30
0.0
 11
2.13183
 21
96.9038
 31
0.0
  0
LINE
  8
0
 62
     0
 10
99.9698
 20
96.9038
 30
0.0
 11
99.5507
 21
96.69
 31
0.0
  0
LINE
  8
0
 62
     0
 10
99.5507
 20
96.69
 30
0.0
 11
99.2202
 21
96.3595
 31
0.0
  0
LINE
  8
0
 62
     0
 10
99.2202
 20
96.3595
 30
0.0
 11
99.0064
 21
95.9404
 31
0.0
  0
LINE
  8
0
 62
     0
 10
99.0064
 20
95.9404
 30
0.0
 11
98.9323
 21
95.4775
 31
0.0
  0
LINE
  8
0
 62
     0
 10
98.9323
 20
95.4775
 30
0.0
 11
99.0064
 21
95.0143
 31
0.0
  0
LINE
  8
0
 62
     0
 10
99.0064
 20
95.0143
 30
0.0
 11
99.2202
 21
94.5956
 31
0.0
  0
LINE
  8
0
 62
     0
 10
99.2202
 20
94.5956
 30
0.0
 11
99.5507
 21
94.2633
 31
0.0
  0
LINE
  8
0
 62
     0
 10
99.5507
 20
94.2633
 30
0.0
 11
99.9698
 21
94.0513
 31
0.0
  0
LINE
  8
0
 62
     0
 10
99.9698
 20
94.0513
 30
0.0
 11
100.433
 21
93.9768
 31
0.0
  0
LINE
  8
0
 62
     0
 10
100.433
 20
93.9768
 30
0.0
 11
100.896
 21
94.0513
 31
0.0
  0
LINE
  8
0
 62
     0
 10
100.896
 20
94.0513
 30
0.0
 11
101.315
 21
94.2633
 31
0.0
  0
LINE
  8
0
 62
     0
 10
101.315
 20
94.2633
 30
0.0
 11
101.647
 21
94.5956
 31
0.0
  0
LINE
  8
0
 62
     0
 10
101.647
 20
94.5956
 30
0.0
 11
101.859
 21
95.0143
 31
0.0
  0
LINE
  8
0
 62
     0
 10
101.859
 20
95.0143
 30
0.0
 11
101.932
 21
95.4775
 31
0.0
  0
LINE
  8
0
 62
     0
 10
101.932
 20
95.4775
 30
0.0
 11
101.859
 21
95.9404
 31
0.0
  0
LINE
  8
0
 62
     0
 10
101.859
 20
95.9404
 30
0.0
 11
101.647
 21
96.3595
 31
0.0
  0
LINE
  8
0
 62
     0
 10
101.647
 20
96.3595
 30
0.0
 11
101.315
 21
96.69
 31
0.0
  0
LINE
  8
0
 62
     0
 10
101.315
 20
96.69
 30
0.0
 11
100.896
 21
96.9038
 31
0.0
  0
LINE
  8
0
 62
     0
 10
100.896
 20
96.9038
 30
0.0
 11
100.433
 21
96.9768
 31
0.0
  0
LINE
  8
0
 62
     0
 10
100.433
 20
96.9768
 30
0.0
 11
99.9698
 21
96.9038
 31
0.0
  0
LINE
  8
0
 62
     0
 10
197.808
 20
96.9038
 30
0.0
 11
197.389
 21
96.69
 31
0.0
  0
LINE
  8
0
 62
     0
 10
197.389
 20
96.69
 30
0.0
 11
197.058
 21
96.3595
 31
0.0
  0
LINE
  8
0
 62
     0
 10
197.058
 20
96.3595
 30
0.0
 11
196.844
 21
95.9404
 31
0.0
  0
LINE
  8
0
 62
     0
 10
196.844
 20
95.9404
 30
0.0
 11
196.77
 21
95.4775
 31
0.0
  0
LINE
  8
0
 62
     0
 10
196.77
 20
95.4775
 30
0.0
 11
196.844
 21
95.0143
 31
0.0
  0
LINE
  8
0
 62
     0
 10
196.844
 20
95.0143
 30
0.0
 11
197.058
 21
94.5956
 31
0.0
  0
LINE
  8
0
 62
     0
 10
197.058
 20
94.5956
 30
0.0
 11
197.389
 21
94.2633
 31
0.0
  0
LINE
  8
0
 62
     0
 10
197.389
 20
94.2633
 30
0.0
 11
197.808
 21
94.0513
 31
0.0
  0
LINE
  8
0
 62
     0
 10
197.808
 20
94.0513
 30
0.0
 11
198.271
 21
93.9768
 31
0.0
  0
LINE
  8
0
 62
     0
 10
198.271
 20
93.9768
 30
0.0
 11
198.735
 21
94.0513
 31
0.0
  0
LINE
  8
0
 62
     0
 10
198.735
 20
94.0513
 30
0.0
 11
199.153
 21
94.2633
 31
0.0
  0
LINE
  8
0
 62
     0
 10
199.153
 20
94.2633
 30
0.0
 11
199.485
 21
94.5956
 31
0.0
  0
LINE
  8
0
 62
     0
 10
199.485
 20
94.5956
 30
0.0
 11
199.697
 21
95.0143
 31
0.0
  0
LINE
  8
0
 62
     0
 10
199.697
 20
95.0143
 30
0.0
 11
199.77
 21
95.4775
 31
0.0
  0
LINE
  8
0
 62
     0
 10
199.77
 20
95.4775
 30
0.0
 11
199.697
 21
95.9404
 31
0.0
  0
LINE
  8
0
 62
     0
 10
199.697
 20
95.9404
 30
0.0
 11
199.485
 21
96.3595
 31
0.0
  0
LINE
  8
0
 62
     0
 10
199.485
 20
96.3595
 30
0.0
 11
199.153
 21
96.69
 31
0.0
  0
LINE
  8
0
 62
     0
 10
199.153
 20
96.69
 30
0.0
 11
198.735
 21
96.9038
 31
0.0
  0
LINE
  8
0
 62
     0
 10
198.735
 20
96.9038
 30
0.0
 11
198.271
 21
96.9768
 31
0.0
  0
LINE
  8
0
 62
     0
 10
198.271
 20
96.9768
 30
0.0
 11
197.808
 21
96.9038
 31
0.0
  0
LINE
  8
0
 62
     0
 10
295.644
 20
96.9038
 30
0.0
 11
295.227
 21
96.69
 31
0.0
  0
LINE
  8
0
 62
     0
 10
295.227
 20
96.69
 30
0.0
 11
294.895
 21
96.3595
 31
0.0
  0
LINE
  8
0
 62
     0
 10
294.895
 20
96.3595
 30
0.0
 11
294.681
 21
95.9404
 31
0.0
  0
LINE
  8
0
 62
     0
 10
294.681
 20
95.9404
 30
0.0
 11
294.608
 21
95.4775
 31
0.0
  0
LINE
  8
0
 62
     0
 10
294.608
 20
95.4775
 30
0.0
 11
294.681
 21
95.0143
 31
0.0
  0
LINE
  8
0
 62
     0
 10
294.681
 20
95.0143
 30
0.0
 11
294.895
 21
94.5956
 31
0.0
  0
LINE
  8
0
 62
     0
 10
294.895
 20
94.5956
 30
0.0
 11
295.227
 21
94.2633
 31
0.0
  0
LINE
  8
0
 62
     0
 10
295.227
 20
94.2633
 30
0.0
 11
295.644
 21
94.0513
 31
0.0
  0
LINE
  8
0
 62
     0
 10
295.644
 20
94.0513
 30
0.0
 11
296.109
 21
93.9768
 31
0.0
  0
LINE
  8
0
 62
     0
 10
296.109
 20
93.9768
 30
0.0
 11
296.573
 21
94.0513
 31
0.0
  0
LINE
  8
0
 62
     0
 10
296.573
 20
94.0513
 30
0.0
 11
296.991
 21
94.2633
 31
0.0
  0
LINE
  8
0
 62
     0
 10
296.991
 20
94.2633
 30
0.0
 11
297.323
 21
94.5956
 31
0.0
  0
LINE
  8
0
 62
     0
 10
297.323
 20
94.5956
 30
0.0
 11
297.535
 21
95.0143
 31
0.0
  0
LINE
  8
0
 62
     0
 10
297.535
 20
95.0143
 30
0.0
 11
297.608
 21
95.4775
 31
0.0
  0
LINE
  8
0
 62
     0
 10
297.608
 20
95.4775
 30
0.0
 11
297.535
 21
95.9404
 31
0.0
  0
LINE
  8
0
 62
     0
 10
297.535
 20
95.9404
 30
0.0
 11
297.323
 21
96.3595
 31
0.0
  0
LINE
  8
0
 62
     0
 10
297.323
 20
96.3595
 30
0.0
 11
296.991
 21
96.69
 31
0.0
  0
LINE
  8
0
 62
     0
 10
296.991
 20
96.69
 30
0.0
 11
296.573
 21
96.9038
 31
0.0
  0
LINE
  8
0
 62
     0
 10
296.573
 20
96.9038
 30
0.0
 11
296.109
 21
96.9768
 31
0.0
  0
LINE
  8
0
 62
     0
 10
296.109
 20
96.9768
 30
0.0
 11
295.644
 21
96.9038
 31
0.0
  0
ENDSEC
  0
EOF
