0
SECTION
2
HEADER
9
$INSUNITS
70
4
0
ENDSEC
0
SECTION
2
TABLES
0
TABLE
2
LTYPE
0
LTYPE
72
65
70
64
2
CONTINUOUS
3
______
73
0
40
0
0
ENDTAB
0
TABLE
2
LAYER
0
ENDTAB
0
ENDSEC
0
SECTION
2
ENTITIES
0
LINE
8
0
10
3.025
20
-2.525
11
16.025
21
-2.525
0
LINE
8
0
10
3.025
20
-16.525
11
16.025
21
-16.525
0
LINE
8
0
10
2.525
20
-3.025
11
2.525
21
-16.025
0
LINE
8
0
10
16.525
20
-3.025
11
16.525
21
-16.025
0
ARC
8
0
10
3.025
20
-3.025
40
0.5
50
90
51
180
0
ARC
8
0
10
16.025
20
-3.025
40
0.5
50
0
51
90
0
ARC
8
0
10
3.025
20
-16.025
40
0.5
50
180
51
270
0
ARC
8
0
10
16.025
20
-16.025
40
0.5
50
270
51
0
0
LINE
8
0
10
242.74375
20
-12.55
11
242.74375
21
-25.55
0
LINE
8
0
10
228.74375
20
-12.55
11
228.74375
21
-25.55
0
LINE
8
0
10
242.24375
20
-12.05
11
229.24375
21
-12.05
0
LINE
8
0
10
242.24375
20
-26.05
11
229.24375
21
-26.05
0
ARC
8
0
10
242.24375
20
-12.55
40
0.5
50
0
51
90
0
ARC
8
0
10
242.24375
20
-25.55
40
0.5
50
270
51
0
0
ARC
8
0
10
229.24375
20
-12.55
40
0.5
50
90
51
180
0
ARC
8
0
10
229.24375
20
-25.55
40
0.5
50
180
51
270
0
LINE
8
0
10
241.74375
20
-4.112
11
241.74375
21
-10.112
0
LINE
8
0
10
226.74375
20
-4.112
11
226.74375
21
-10.112
0
LINE
8
0
10
241.24375
20
-3.612
11
227.24375
21
-3.612
0
LINE
8
0
10
241.24375
20
-10.612
11
227.24375
21
-10.612
0
ARC
8
0
10
241.24375
20
-4.112
40
0.5
50
0
51
90
0
ARC
8
0
10
241.24375
20
-10.112
40
0.5
50
270
51
0
0
ARC
8
0
10
227.24375
20
-4.112
40
0.5
50
90
51
180
0
ARC
8
0
10
227.24375
20
-10.112
40
0.5
50
180
51
270
0
LINE
8
0
10
241.74375
20
-27.988
11
241.74375
21
-33.988
0
LINE
8
0
10
226.74375
20
-27.988
11
226.74375
21
-33.988
0
LINE
8
0
10
241.24375
20
-27.488
11
227.24375
21
-27.488
0
LINE
8
0
10
241.24375
20
-34.488
11
227.24375
21
-34.488
0
ARC
8
0
10
241.24375
20
-27.988
40
0.5
50
0
51
90
0
ARC
8
0
10
241.24375
20
-33.988
40
0.5
50
270
51
0
0
ARC
8
0
10
227.24375
20
-27.988
40
0.5
50
90
51
180
0
ARC
8
0
10
227.24375
20
-33.988
40
0.5
50
180
51
270
0
LINE
8
0
10
5.40625
20
-21.575
11
18.40625
21
-21.575
0
LINE
8
0
10
5.40625
20
-35.575
11
18.40625
21
-35.575
0
LINE
8
0
10
4.90625
20
-22.075
11
4.90625
21
-35.075
0
LINE
8
0
10
18.90625
20
-22.075
11
18.90625
21
-35.075
0
ARC
8
0
10
5.40625
20
-22.075
40
0.5
50
90
51
180
0
ARC
8
0
10
18.40625
20
-22.075
40
0.5
50
0
51
90
0
ARC
8
0
10
5.40625
20
-35.075
40
0.5
50
180
51
270
0
ARC
8
0
10
18.40625
20
-35.075
40
0.5
50
270
51
0
0
LINE
8
0
10
204.955
20
-21.575
11
217.955
21
-21.575
0
LINE
8
0
10
204.955
20
-35.575
11
217.955
21
-35.575
0
LINE
8
0
10
204.455
20
-22.075
11
204.455
21
-35.075
0
LINE
8
0
10
218.455
20
-22.075
11
218.455
21
-35.075
0
ARC
8
0
10
204.955
20
-22.075
40
0.5
50
90
51
180
0
ARC
8
0
10
217.955
20
-22.075
40
0.5
50
0
51
90
0
ARC
8
0
10
204.955
20
-35.075
40
0.5
50
180
51
270
0
ARC
8
0
10
217.955
20
-35.075
40
0.5
50
270
51
0
0
LINE
8
0
10
7.7875
20
-40.625
11
20.7875
21
-40.625
0
LINE
8
0
10
7.7875
20
-54.625
11
20.7875
21
-54.625
0
LINE
8
0
10
7.2875
20
-41.125
11
7.2875
21
-54.125
0
LINE
8
0
10
21.2875
20
-41.125
11
21.2875
21
-54.125
0
ARC
8
0
10
7.7875
20
-41.125
40
0.5
50
90
51
180
0
ARC
8
0
10
20.7875
20
-41.125
40
0.5
50
0
51
90
0
ARC
8
0
10
7.7875
20
-54.125
40
0.5
50
180
51
270
0
ARC
8
0
10
20.7875
20
-54.125
40
0.5
50
270
51
0
0
LINE
8
0
10
231.625
20
-40.625
11
244.625
21
-40.625
0
LINE
8
0
10
231.625
20
-54.625
11
244.625
21
-54.625
0
LINE
8
0
10
231.125
20
-41.125
11
231.125
21
-54.125
0
LINE
8
0
10
245.125
20
-41.125
11
245.125
21
-54.125
0
ARC
8
0
10
231.625
20
-41.125
40
0.5
50
90
51
180
0
ARC
8
0
10
244.625
20
-41.125
40
0.5
50
0
51
90
0
ARC
8
0
10
231.625
20
-54.125
40
0.5
50
180
51
270
0
ARC
8
0
10
244.625
20
-54.125
40
0.5
50
270
51
0
0
LINE
8
0
10
210.67
20
-42.53
11
223.67
21
-42.53
0
LINE
8
0
10
210.67
20
-56.53
11
223.67
21
-56.53
0
LINE
8
0
10
210.17
20
-43.03
11
210.17
21
-56.03
0
LINE
8
0
10
224.17
20
-43.03
11
224.17
21
-56.03
0
ARC
8
0
10
210.67
20
-43.03
40
0.5
50
90
51
180
0
ARC
8
0
10
223.67
20
-43.03
40
0.5
50
0
51
90
0
ARC
8
0
10
210.67
20
-56.03
40
0.5
50
180
51
270
0
ARC
8
0
10
223.67
20
-56.03
40
0.5
50
270
51
0
0
LINE
8
0
10
5.40625
20
-60.6275
11
18.40625
21
-60.6275
0
LINE
8
0
10
5.40625
20
-74.6275
11
18.40625
21
-74.6275
0
LINE
8
0
10
4.90625
20
-61.1275
11
4.90625
21
-74.1275
0
LINE
8
0
10
18.90625
20
-61.1275
11
18.90625
21
-74.1275
0
ARC
8
0
10
5.40625
20
-61.1275
40
0.5
50
90
51
180
0
ARC
8
0
10
18.40625
20
-61.1275
40
0.5
50
0
51
90
0
ARC
8
0
10
5.40625
20
-74.1275
40
0.5
50
180
51
270
0
ARC
8
0
10
18.40625
20
-74.1275
40
0.5
50
270
51
0
0
LINE
8
0
10
192.5725
20
-61.58
11
205.5725
21
-61.58
0
LINE
8
0
10
192.5725
20
-75.58
11
205.5725
21
-75.58
0
LINE
8
0
10
192.0725
20
-62.08
11
192.0725
21
-75.08
0
LINE
8
0
10
206.0725
20
-62.08
11
206.0725
21
-75.08
0
ARC
8
0
10
192.5725
20
-62.08
40
0.5
50
90
51
180
0
ARC
8
0
10
205.5725
20
-62.08
40
0.5
50
0
51
90
0
ARC
8
0
10
192.5725
20
-75.08
40
0.5
50
180
51
270
0
ARC
8
0
10
205.5725
20
-75.08
40
0.5
50
270
51
0
0
LINE
8
0
10
211.6225
20
-61.58
11
224.6225
21
-61.58
0
LINE
8
0
10
211.6225
20
-75.58
11
224.6225
21
-75.58
0
LINE
8
0
10
211.1225
20
-62.08
11
211.1225
21
-75.08
0
LINE
8
0
10
225.1225
20
-62.08
11
225.1225
21
-75.08
0
ARC
8
0
10
211.6225
20
-62.08
40
0.5
50
90
51
180
0
ARC
8
0
10
224.6225
20
-62.08
40
0.5
50
0
51
90
0
ARC
8
0
10
211.6225
20
-75.08
40
0.5
50
180
51
270
0
ARC
8
0
10
224.6225
20
-75.08
40
0.5
50
270
51
0
0
LINE
8
0
10
230.6725
20
-61.58
11
243.6725
21
-61.58
0
LINE
8
0
10
230.6725
20
-75.58
11
243.6725
21
-75.58
0
LINE
8
0
10
230.1725
20
-62.08
11
230.1725
21
-75.08
0
LINE
8
0
10
244.1725
20
-62.08
11
244.1725
21
-75.08
0
ARC
8
0
10
230.6725
20
-62.08
40
0.5
50
90
51
180
0
ARC
8
0
10
243.6725
20
-62.08
40
0.5
50
0
51
90
0
ARC
8
0
10
230.6725
20
-75.08
40
0.5
50
180
51
270
0
ARC
8
0
10
243.6725
20
-75.08
40
0.5
50
270
51
0
0
LINE
8
0
10
184.9525
20
-21.575
11
197.9525
21
-21.575
0
LINE
8
0
10
184.9525
20
-35.575
11
197.9525
21
-35.575
0
LINE
8
0
10
184.4525
20
-22.075
11
184.4525
21
-35.075
0
LINE
8
0
10
198.4525
20
-22.075
11
198.4525
21
-35.075
0
ARC
8
0
10
184.9525
20
-22.075
40
0.5
50
90
51
180
0
ARC
8
0
10
197.9525
20
-22.075
40
0.5
50
0
51
90
0
ARC
8
0
10
184.9525
20
-35.075
40
0.5
50
180
51
270
0
ARC
8
0
10
197.9525
20
-35.075
40
0.5
50
270
51
0
0
LINE
8
0
10
184
20
-2.525
11
197
21
-2.525
0
LINE
8
0
10
184
20
-16.525
11
197
21
-16.525
0
LINE
8
0
10
183.5
20
-3.025
11
183.5
21
-16.025
0
LINE
8
0
10
197.5
20
-3.025
11
197.5
21
-16.025
0
ARC
8
0
10
184
20
-3.025
40
0.5
50
90
51
180
0
ARC
8
0
10
197
20
-3.025
40
0.5
50
0
51
90
0
ARC
8
0
10
184
20
-16.025
40
0.5
50
180
51
270
0
ARC
8
0
10
197
20
-16.025
40
0.5
50
270
51
0
0
LINE
8
0
10
188.7625
20
-41.006
11
201.7625
21
-41.006
0
LINE
8
0
10
188.7625
20
-55.006
11
201.7625
21
-55.006
0
LINE
8
0
10
188.2625
20
-41.506
11
188.2625
21
-54.506
0
LINE
8
0
10
202.2625
20
-41.506
11
202.2625
21
-54.506
0
ARC
8
0
10
188.7625
20
-41.506
40
0.5
50
90
51
180
0
ARC
8
0
10
201.7625
20
-41.506
40
0.5
50
0
51
90
0
ARC
8
0
10
188.7625
20
-54.506
40
0.5
50
180
51
270
0
ARC
8
0
10
201.7625
20
-54.506
40
0.5
50
270
51
0
0
LINE
8
0
10
203.05
20
-2.525
11
216.05
21
-2.525
0
LINE
8
0
10
203.05
20
-16.525
11
216.05
21
-16.525
0
LINE
8
0
10
202.55
20
-3.025
11
202.55
21
-16.025
0
LINE
8
0
10
216.55
20
-3.025
11
216.55
21
-16.025
0
ARC
8
0
10
203.05
20
-3.025
40
0.5
50
90
51
180
0
ARC
8
0
10
216.05
20
-3.025
40
0.5
50
0
51
90
0
ARC
8
0
10
203.05
20
-16.025
40
0.5
50
180
51
270
0
ARC
8
0
10
216.05
20
-16.025
40
0.5
50
270
51
0
0
LINE
8
0
10
264.9625
20
-12.05
11
277.9625
21
-12.05
0
LINE
8
0
10
264.9625
20
-26.05
11
277.9625
21
-26.05
0
LINE
8
0
10
264.4625
20
-12.55
11
264.4625
21
-25.55
0
LINE
8
0
10
278.4625
20
-12.55
11
278.4625
21
-25.55
0
ARC
8
0
10
264.9625
20
-12.55
40
0.5
50
90
51
180
0
ARC
8
0
10
277.9625
20
-12.55
40
0.5
50
0
51
90
0
ARC
8
0
10
264.9625
20
-25.55
40
0.5
50
180
51
270
0
ARC
8
0
10
277.9625
20
-25.55
40
0.5
50
270
51
0
0
LINE
8
0
10
256.5245
20
-13.05
11
262.5245
21
-13.05
0
LINE
8
0
10
256.5245
20
-28.05
11
262.5245
21
-28.05
0
LINE
8
0
10
256.0245
20
-13.55
11
256.0245
21
-27.55
0
LINE
8
0
10
263.0245
20
-13.55
11
263.0245
21
-27.55
0
ARC
8
0
10
256.5245
20
-13.55
40
0.5
50
90
51
180
0
ARC
8
0
10
262.5245
20
-13.55
40
0.5
50
0
51
90
0
ARC
8
0
10
256.5245
20
-27.55
40
0.5
50
180
51
270
0
ARC
8
0
10
262.5245
20
-27.55
40
0.5
50
270
51
0
0
LINE
8
0
10
280.4005
20
-13.05
11
286.4005
21
-13.05
0
LINE
8
0
10
280.4005
20
-28.05
11
286.4005
21
-28.05
0
LINE
8
0
10
279.9005
20
-13.55
11
279.9005
21
-27.55
0
LINE
8
0
10
286.9005
20
-13.55
11
286.9005
21
-27.55
0
ARC
8
0
10
280.4005
20
-13.55
40
0.5
50
90
51
180
0
ARC
8
0
10
286.4005
20
-13.55
40
0.5
50
0
51
90
0
ARC
8
0
10
280.4005
20
-27.55
40
0.5
50
180
51
270
0
ARC
8
0
10
286.4005
20
-27.55
40
0.5
50
270
51
0
0
LINE
8
0
10
23.531629
20
-2.0886346
11
36.4999616
21
-2.9954687
0
LINE
8
0
10
22.5550384
20
-16.0545313
11
35.523371
21
-16.9613654
0
LINE
8
0
10
22.9979687
20
-2.5525384
11
22.0911346
21
-15.520871
0
LINE
8
0
10
36.9638654
20
-3.529129
11
36.0570313
21
-16.4974616
0
ARC
8
0
10
23.4967508
20
-2.5874166
40
0.5
50
86
51
176
0
ARC
8
0
10
36.4650834
20
-3.4942508
40
0.5
50
356
51
86
0
ARC
8
0
10
22.5899166
20
-15.5557492
40
0.5
50
176
51
266
0
ARC
8
0
10
35.5582492
20
-16.4625834
40
0.5
50
266
51
356
0
LINE
8
0
10
28.1017728
20
-21.191789
11
41.0701054
21
-22.0986231
0
LINE
8
0
10
27.1251822
20
-35.1576857
11
40.0935148
21
-36.0645198
0
LINE
8
0
10
27.5681125
20
-21.6556928
11
26.6612784
21
-34.6240254
0
LINE
8
0
10
41.5340092
20
-22.6322834
11
40.6271751
21
-35.600616
0
ARC
8
0
10
28.0668946
20
-21.690571
40
0.5
50
86
51
176
0
ARC
8
0
10
41.0352272
20
-22.5974052
40
0.5
50
356
51
86
0
ARC
8
0
10
27.1600604
20
-34.6589036
40
0.5
50
176
51
266
0
ARC
8
0
10
40.128393
20
-35.5657378
40
0.5
50
266
51
356
0
LINE
8
0
10
90.8842569
20
-50.0342364
11
103.8525895
21
-50.9410705
0
LINE
8
0
10
89.9076663
20
-64.0001331
11
102.8759989
21
-64.9069672
0
LINE
8
0
10
90.3505966
20
-50.4981402
11
89.4437625
21
-63.4664728
0
LINE
8
0
10
104.3164933
20
-51.4747308
11
103.4096592
21
-64.4430634
0
ARC
8
0
10
90.8493787
20
-50.5330184
40
0.5
50
86
51
176
0
ARC
8
0
10
103.8177113
20
-51.4398526
40
0.5
50
356
51
86
0
ARC
8
0
10
89.9425445
20
-63.501351
40
0.5
50
176
51
266
0
ARC
8
0
10
102.9108771
20
-64.4081852
40
0.5
50
266
51
356
0
LINE
8
0
10
86.7178247
20
-30.5601248
11
99.6683557
21
-31.6931494
0
LINE
8
0
10
85.4976443
20
-44.5068506
11
98.4481753
21
-45.6398752
0
LINE
8
0
10
86.1761494
20
-31.0146443
11
85.0431248
21
-43.9651753
0
LINE
8
0
10
100.1228752
20
-32.2348247
11
98.9898506
21
-45.1853557
0
ARC
8
0
10
86.6742468
20
-31.0582221
40
0.5
50
85
51
175
0
ARC
8
0
10
99.6247779
20
-32.1912468
40
0.5
50
355
51
85
0
ARC
8
0
10
85.5412221
20
-44.0087532
40
0.5
50
175
51
265
0
ARC
8
0
10
98.4917532
20
-45.1417779
40
0.5
50
265
51
355
0
LINE
8
0
10
33.314589
20
-40.2739751
11
46.2433737
21
-41.6328451
0
LINE
8
0
10
31.8511905
20
-54.1972817
11
44.7799752
21
-55.5561517
0
LINE
8
0
10
32.7650638
20
-40.7189718
11
31.4061938
21
-53.6477565
0
LINE
8
0
10
46.6883704
20
-42.1823703
11
45.3295004
21
-55.111155
0
ARC
8
0
10
33.2623248
20
-40.7712361
40
0.5
50
84
51
174
0
ARC
8
0
10
46.1911094
20
-42.1301061
40
0.5
50
354
51
84
0
ARC
8
0
10
31.9034548
20
-53.7000207
40
0.5
50
174
51
264
0
ARC
8
0
10
44.8322394
20
-55.0588907
40
0.5
50
264
51
354
0
LINE
8
0
10
83.4213069
20
-10.6469117
11
96.3500916
21
-12.0057817
0
LINE
8
0
10
81.9579084
20
-24.5702183
11
94.8866931
21
-25.9290883
0
LINE
8
0
10
82.8717817
20
-11.0919084
11
81.5129117
21
-24.0206931
0
LINE
8
0
10
96.7950883
20
-12.5553069
11
95.4362183
21
-25.4840916
0
ARC
8
0
10
83.3690427
20
-11.1441727
40
0.5
50
84
51
174
0
ARC
8
0
10
96.2978273
20
-12.5030427
40
0.5
50
354
51
84
0
ARC
8
0
10
82.0101727
20
-24.0729573
40
0.5
50
174
51
264
0
ARC
8
0
10
94.9389573
20
-25.4318273
40
0.5
50
264
51
354
0
LINE
8
0
10
43.7458065
20
-3.6786665
11
56.6489065
21
-5.262968
0
LINE
8
0
10
42.0396357
20
-17.5743126
11
54.9427357
21
-19.1586141
0
LINE
8
0
10
43.1885988
20
-4.1140049
11
41.6042973
21
-17.0171049
0
LINE
8
0
10
57.0842449
20
-5.8201757
11
55.4999434
21
-18.7232757
0
ARC
8
0
10
43.6848718
20
-4.1749396
40
0.5
50
83
51
173
0
ARC
8
0
10
56.5879718
20
-5.759241
40
0.5
50
353
51
83
0
ARC
8
0
10
42.1005704
20
-17.0780396
40
0.5
50
173
51
263
0
ARC
8
0
10
55.0036704
20
-18.662341
40
0.5
50
263
51
353
0
LINE
8
0
10
78.1006837
20
-68.0832861
11
91.0037837
21
-69.6675876
0
LINE
8
0
10
76.3945129
20
-81.9789322
11
89.2976129
21
-83.5632337
0
LINE
8
0
10
77.543476
20
-68.5186245
11
75.9591745
21
-81.4217245
0
LINE
8
0
10
91.4391221
20
-70.2247953
11
89.8548206
21
-83.1278953
0
ARC
8
0
10
78.039749
20
-68.5795592
40
0.5
50
83
51
173
0
ARC
8
0
10
90.942849
20
-70.1638606
40
0.5
50
353
51
83
0
ARC
8
0
10
76.4554476
20
-81.4826592
40
0.5
50
173
51
263
0
ARC
8
0
10
89.3585476
20
-83.0669606
40
0.5
50
263
51
353
0
LINE
8
0
10
69.6037099
20
-68.0474987
11
75.5589869
21
-68.7787148
0
LINE
8
0
10
67.7756698
20
-82.935691
11
73.7309467
21
-83.6669071
0
LINE
8
0
10
69.0465022
20
-68.4828371
11
67.3403314
21
-82.3784833
0
LINE
8
0
10
75.9943253
20
-69.3359225
11
74.2881545
21
-83.2315687
0
ARC
8
0
10
69.5427753
20
-68.5437718
40
0.5
50
83
51
173
0
ARC
8
0
10
75.4980522
20
-69.2749879
40
0.5
50
353
51
83
0
ARC
8
0
10
67.8366045
20
-82.4394179
40
0.5
50
173
51
263
0
ARC
8
0
10
73.7918814
20
-83.170634
40
0.5
50
263
51
353
0
LINE
8
0
10
93.3017419
20
-70.9572512
11
99.2570188
21
-71.6884672
0
LINE
8
0
10
91.4737017
20
-85.8454435
11
97.4289786
21
-86.5766595
0
LINE
8
0
10
92.7445341
20
-71.3925896
11
91.0383633
21
-85.2882357
0
LINE
8
0
10
99.6923572
20
-72.245675
11
97.9861864
21
-86.1413211
0
ARC
8
0
10
93.2408072
20
-71.4535243
40
0.5
50
83
51
173
0
ARC
8
0
10
99.1960841
20
-72.1847403
40
0.5
50
353
51
83
0
ARC
8
0
10
91.5346364
20
-85.3491704
40
0.5
50
173
51
263
0
ARC
8
0
10
97.4899133
20
-86.0803864
40
0.5
50
263
51
353
0
LINE
8
0
10
32.7738786
20
-61.3032238
11
45.6138271
21
-63.3368718
0
LINE
8
0
10
30.5837961
20
-75.1308606
11
43.4237446
21
-77.1645086
0
LINE
8
0
10
32.2018172
20
-61.7188507
11
30.1681692
21
-74.5587992
0
LINE
8
0
10
46.029454
20
-63.9089332
11
43.995806
21
-76.7488817
0
ARC
8
0
10
32.6956614
20
-61.797068
40
0.5
50
81
51
171
0
ARC
8
0
10
45.5356098
20
-63.830716
40
0.5
50
351
51
81
0
ARC
8
0
10
30.6620134
20
-74.6370164
40
0.5
50
171
51
261
0
ARC
8
0
10
43.5019618
20
-76.6706644
40
0.5
50
261
51
351
0
LINE
8
0
10
48.4030717
20
-23.1663869
11
61.2430202
21
-25.2000349
0
LINE
8
0
10
46.2129892
20
-36.9940237
11
59.0529377
21
-39.0276717
0
LINE
8
0
10
47.8310103
20
-23.5820138
11
45.7973623
21
-36.4219623
0
LINE
8
0
10
61.6586471
20
-25.7720963
11
59.6249991
21
-38.6120448
0
ARC
8
0
10
48.3248545
20
-23.6602311
40
0.5
50
81
51
171
0
ARC
8
0
10
61.1648029
20
-25.6938791
40
0.5
50
351
51
81
0
ARC
8
0
10
46.2912065
20
-36.5001795
40
0.5
50
171
51
261
0
ARC
8
0
10
59.1311549
20
-38.5338275
40
0.5
50
261
51
351
0
LINE
8
0
10
53.0923582
20
-43.1469926
11
65.894859
21
-45.4044189
0
LINE
8
0
10
50.6612838
20
-56.9343011
11
63.4637846
21
-59.1917274
0
LINE
8
0
10
52.5131303
20
-43.5525724
11
50.255704
21
-56.3550732
0
LINE
8
0
10
66.3004388
20
-45.9836468
11
64.0430125
21
-58.7861476
0
ARC
8
0
10
53.0055342
20
-43.6393965
40
0.5
50
80
51
170
0
ARC
8
0
10
65.8080349
20
-45.8968228
40
0.5
50
350
51
80
0
ARC
8
0
10
50.7481079
20
-56.4418972
40
0.5
50
170
51
260
0
ARC
8
0
10
63.5506086
20
-58.6993235
40
0.5
50
260
51
350
0
LINE
8
0
10
72.0686232
20
-47.5007119
11
84.871124
21
-49.7581382
0
LINE
8
0
10
69.6375488
20
-61.2880204
11
82.4400496
21
-63.5454467
0
LINE
8
0
10
71.4893953
20
-47.9062917
11
69.231969
21
-60.7087925
0
LINE
8
0
10
85.2767038
20
-50.3373661
11
83.0192775
21
-63.1398669
0
ARC
8
0
10
71.9817992
20
-47.9931158
40
0.5
50
80
51
170
0
ARC
8
0
10
84.7842999
20
-50.2505421
40
0.5
50
350
51
80
0
ARC
8
0
10
69.7243729
20
-60.7956165
40
0.5
50
170
51
260
0
ARC
8
0
10
82.5268736
20
-63.0530428
40
0.5
50
260
51
350
0
LINE
8
0
10
67.8387692
20
-26.8655987
11
80.5889779
21
-29.4017729
0
LINE
8
0
10
65.1075047
20
-40.5965927
11
77.8577134
21
-43.1327669
0
LINE
8
0
10
67.2508314
20
-27.2584462
11
64.7146572
21
-40.0086549
0
LINE
8
0
10
80.9818254
20
-29.9897107
11
78.4456512
21
-42.7399194
0
ARC
8
0
10
67.7412241
20
-27.3559914
40
0.5
50
78.75
51
168.75
0
ARC
8
0
10
80.4914327
20
-29.8921656
40
0.5
50
348.75
51
78.75
0
ARC
8
0
10
65.2050499
20
-40.1062
40
0.5
50
168.75
51
258.75
0
ARC
8
0
10
77.9552585
20
-42.6423742
40
0.5
50
258.75
51
348.75
0
LINE
8
0
10
64.392752
20
-6.0047277
11
77.0595628
21
-8.9290914
0
LINE
8
0
10
61.2434372
20
-19.6459086
11
73.910248
21
-22.5702723
0
LINE
8
0
10
63.7930914
20
-6.3794372
11
60.8687277
21
-19.046248
0
LINE
8
0
10
77.4342723
20
-9.528752
11
74.5099086
21
-22.1955628
0
ARC
8
0
10
64.2802764
20
-6.4919127
40
0.5
50
77
51
167
0
ARC
8
0
10
76.9470873
20
-9.4162764
40
0.5
50
347
51
77
0
ARC
8
0
10
61.3559127
20
-19.1587236
40
0.5
50
167
51
257
0
ARC
8
0
10
74.0227236
20
-22.0830873
40
0.5
50
257
51
347
0
LINE
8
0
10
148.2861569
20
-46.842661
11
161.0473103
21
-44.362144
0
LINE
8
0
10
150.9574829
20
-60.5854416
11
163.7186363
21
-58.1049246
0
LINE
8
0
10
147.8907478
20
-47.4288791
11
150.3712648
21
-60.1900325
0
LINE
8
0
10
161.6335284
20
-44.7575531
11
164.1140454
21
-57.5187065
0
ARC
8
0
10
148.3815614
20
-47.3334746
40
0.5
50
101
51
191
0
ARC
8
0
10
161.1427148
20
-44.8529576
40
0.5
50
11
51
101
0
ARC
8
0
10
150.8620784
20
-60.094628
40
0.5
50
191
51
281
0
ARC
8
0
10
163.6232318
20
-57.614111
40
0.5
50
281
51
11
0
LINE
8
0
10
142.8782124
20
-8.5225589
11
155.6807132
21
-6.2651326
0
LINE
8
0
10
145.3092868
20
-22.3098674
11
158.1117876
21
-20.0524411
0
LINE
8
0
10
142.4726326
20
-9.1017868
11
144.7300589
21
-21.9042876
0
LINE
8
0
10
156.2599411
20
-6.6707124
11
158.5173674
21
-19.4732132
0
ARC
8
0
10
142.9650365
20
-9.0149628
40
0.5
50
100
51
190
0
ARC
8
0
10
155.7675372
20
-6.7575365
40
0.5
50
10
51
100
0
ARC
8
0
10
145.2224628
20
-21.8174635
40
0.5
50
190
51
280
0
ARC
8
0
10
158.0249635
20
-19.5600372
40
0.5
50
280
51
10
0
LINE
8
0
10
144.6646606
20
-27.6329306
11
157.4671614
21
-25.3755043
0
LINE
8
0
10
147.095735
20
-41.4202391
11
159.8982358
21
-39.1628128
0
LINE
8
0
10
144.2590808
20
-28.2121585
11
146.5165071
21
-41.0146593
0
LINE
8
0
10
158.0463893
20
-25.7810841
11
160.3038156
21
-38.5835849
0
ARC
8
0
10
144.7514847
20
-28.1253345
40
0.5
50
100
51
190
0
ARC
8
0
10
157.5539854
20
-25.8679082
40
0.5
50
10
51
100
0
ARC
8
0
10
147.008911
20
-40.9278352
40
0.5
50
190
51
280
0
ARC
8
0
10
159.8114117
20
-38.6704089
40
0.5
50
280
51
10
0
LINE
8
0
10
160.3671425
20
-64.3506354
11
173.1696433
21
-62.0932091
0
LINE
8
0
10
162.7982169
20
-78.1379439
11
175.6007177
21
-75.8805176
0
LINE
8
0
10
159.9615627
20
-64.9298633
11
162.218989
21
-77.7323641
0
LINE
8
0
10
173.7488712
20
-62.4987889
11
176.0062975
21
-75.3012897
0
ARC
8
0
10
160.4539666
20
-64.8430393
40
0.5
50
100
51
190
0
ARC
8
0
10
173.2564673
20
-62.585613
40
0.5
50
10
51
100
0
ARC
8
0
10
162.7113929
20
-77.64554
40
0.5
50
190
51
280
0
ARC
8
0
10
175.5138936
20
-75.3881137
40
0.5
50
280
51
10
0
LINE
8
0
10
125.4773753
20
-30.7071501
11
138.3173238
21
-28.6735021
0
LINE
8
0
10
127.6674578
20
-44.5347869
11
140.5074063
21
-42.5011389
0
LINE
8
0
10
125.0617484
20
-31.2792115
11
127.0953964
21
-44.11916
0
LINE
8
0
10
138.8893852
20
-29.089129
11
140.9230332
21
-41.9290775
0
ARC
8
0
10
125.5555926
20
-31.2009943
40
0.5
50
99
51
189
0
ARC
8
0
10
138.395541
20
-29.1673463
40
0.5
50
9
51
99
0
ARC
8
0
10
127.5892406
20
-44.0409427
40
0.5
50
189
51
279
0
ARC
8
0
10
140.429189
20
-42.0072947
40
0.5
50
279
51
9
0
LINE
8
0
10
129.4276553
20
-49.5000439
11
142.2676038
21
-47.4663959
0
LINE
8
0
10
131.6177378
20
-63.3276807
11
144.4576863
21
-61.2940327
0
LINE
8
0
10
129.0120284
20
-50.0721053
11
131.0456764
21
-62.9120538
0
LINE
8
0
10
142.8396652
20
-47.8820228
11
144.8733132
21
-60.7219713
0
ARC
8
0
10
129.5058726
20
-49.9938881
40
0.5
50
99
51
189
0
ARC
8
0
10
142.345821
20
-47.9602401
40
0.5
50
9
51
99
0
ARC
8
0
10
131.5395206
20
-62.8338365
40
0.5
50
189
51
279
0
ARC
8
0
10
144.379469
20
-60.8001885
40
0.5
50
279
51
9
0
LINE
8
0
10
123.0020084
20
-11.5043105
11
135.8754933
21
-9.6950602
0
LINE
8
0
10
124.9504319
20
-25.3680634
11
137.8239168
21
-23.5588131
0
LINE
8
0
10
122.576461
20
-12.0690311
11
124.3857113
21
-24.942516
0
LINE
8
0
10
136.4402139
20
-10.1206076
11
138.2494642
21
-22.9940925
0
ARC
8
0
10
123.071595
20
-11.9994445
40
0.5
50
98
51
188
0
ARC
8
0
10
135.9450799
20
-10.1901942
40
0.5
50
8
51
98
0
ARC
8
0
10
124.8808453
20
-24.8729294
40
0.5
50
188
51
278
0
ARC
8
0
10
137.7543302
20
-23.0636791
40
0.5
50
278
51
8
0
LINE
8
0
10
163.3833646
20
-4.8933277
11
176.2864646
21
-3.3090262
0
LINE
8
0
10
165.0895354
20
-18.7889738
11
177.9926354
21
-17.2046723
0
LINE
8
0
10
162.9480262
20
-5.4505354
11
164.5323277
21
-18.3536354
0
LINE
8
0
10
176.8436723
20
-3.7443646
11
178.4279738
21
-16.6474646
0
ARC
8
0
10
163.4442993
20
-5.3896007
40
0.5
50
97
51
187
0
ARC
8
0
10
176.3473993
20
-3.8052993
40
0.5
50
7
51
97
0
ARC
8
0
10
165.0286007
20
-18.2927007
40
0.5
50
187
51
277
0
ARC
8
0
10
177.9317007
20
-16.7083993
40
0.5
50
277
51
7
0
LINE
8
0
10
164.1453646
20
-24.1338277
11
177.0484646
21
-22.5495262
0
LINE
8
0
10
165.8515354
20
-38.0294738
11
178.7546354
21
-36.4451723
0
LINE
8
0
10
163.7100262
20
-24.6910354
11
165.2943277
21
-37.5941354
0
LINE
8
0
10
177.6056723
20
-22.9848646
11
179.1899738
21
-35.8879646
0
ARC
8
0
10
164.2062993
20
-24.6301007
40
0.5
50
97
51
187
0
ARC
8
0
10
177.1093993
20
-23.0457993
40
0.5
50
7
51
97
0
ARC
8
0
10
165.7906007
20
-37.5332007
40
0.5
50
187
51
277
0
ARC
8
0
10
178.6937007
20
-35.9488993
40
0.5
50
277
51
7
0
LINE
8
0
10
167.9553646
20
-42.9933277
11
180.8584646
21
-41.4090262
0
LINE
8
0
10
169.6615354
20
-56.8889738
11
182.5646354
21
-55.3046723
0
LINE
8
0
10
167.5200262
20
-43.5505354
11
169.1043277
21
-56.4536354
0
LINE
8
0
10
181.4156723
20
-41.8443646
11
182.9999738
21
-54.7474646
0
ARC
8
0
10
168.0162993
20
-43.4896007
40
0.5
50
97
51
187
0
ARC
8
0
10
180.9193993
20
-41.9052993
40
0.5
50
7
51
97
0
ARC
8
0
10
169.6006007
20
-56.3927007
40
0.5
50
187
51
277
0
ARC
8
0
10
182.5037007
20
-54.8083993
40
0.5
50
277
51
7
0
LINE
8
0
10
123.2964084
20
-69.5367817
11
136.2251931
21
-68.1779117
0
LINE
8
0
10
124.7598069
20
-83.4600883
11
137.6885916
21
-82.1012183
0
LINE
8
0
10
122.8514117
20
-70.0863069
11
124.2102817
21
-83.0150916
0
LINE
8
0
10
136.7747183
20
-68.6229084
11
138.1335883
21
-81.5516931
0
ARC
8
0
10
123.3486727
20
-70.0340427
40
0.5
50
96
51
186
0
ARC
8
0
10
136.2774573
20
-68.6751727
40
0.5
50
6
51
96
0
ARC
8
0
10
124.7075427
20
-82.9628273
40
0.5
50
186
51
276
0
ARC
8
0
10
137.6363273
20
-81.6039573
40
0.5
50
276
51
6
0
LINE
8
0
10
115.0091611
20
-71.4133148
11
120.9762925
21
-70.786144
0
LINE
8
0
10
116.5770881
20
-86.3311432
11
122.5442195
21
-85.7039725
0
LINE
8
0
10
114.5641644
20
-71.96284
11
116.0275629
21
-85.8861465
0
LINE
8
0
10
121.5258177
20
-71.2311407
11
122.9892162
21
-85.1544473
0
ARC
8
0
10
115.0614254
20
-71.9105758
40
0.5
50
96
51
186
0
ARC
8
0
10
121.0285568
20
-71.283405
40
0.5
50
6
51
96
0
ARC
8
0
10
116.5248239
20
-85.8338823
40
0.5
50
186
51
276
0
ARC
8
0
10
122.4919552
20
-85.2067115
40
0.5
50
276
51
6
0
LINE
8
0
10
138.7543659
20
-68.9175932
11
144.7214973
21
-68.2904224
0
LINE
8
0
10
140.3222929
20
-83.8354217
11
146.2894242
21
-83.2082509
0
LINE
8
0
10
138.3093692
20
-69.4671184
11
139.7727677
21
-83.3904249
0
LINE
8
0
10
145.2710225
20
-68.7354192
11
146.734421
21
-82.6587257
0
ARC
8
0
10
138.8066302
20
-69.4148542
40
0.5
50
96
51
186
0
ARC
8
0
10
144.7737615
20
-68.7876834
40
0.5
50
6
51
96
0
ARC
8
0
10
140.2700286
20
-83.3381607
40
0.5
50
186
51
276
0
ARC
8
0
10
146.23716
20
-82.7109899
40
0.5
50
276
51
6
0
LINE
8
0
10
110.1850384
20
-51.0014687
11
123.153371
21
-50.0946346
0
LINE
8
0
10
111.161629
20
-64.9673654
11
124.1299616
21
-64.0605313
0
LINE
8
0
10
109.7211346
20
-51.535129
11
110.6279687
21
-64.5034616
0
LINE
8
0
10
123.6870313
20
-50.5585384
11
124.5938654
21
-63.526871
0
ARC
8
0
10
110.2199166
20
-51.5002508
40
0.5
50
94
51
184
0
ARC
8
0
10
123.1882492
20
-50.5934166
40
0.5
50
4
51
94
0
ARC
8
0
10
111.1267508
20
-64.4685834
40
0.5
50
184
51
274
0
ARC
8
0
10
124.0950834
20
-63.5617492
40
0.5
50
274
51
4
0
LINE
8
0
10
102.6800563
20
-12.399777
11
115.6622403
21
-11.7194095
0
LINE
8
0
10
103.4127597
20
-26.3805905
11
116.3949437
21
-25.700223
0
LINE
8
0
10
102.2069095
20
-12.9252597
11
102.887277
21
-25.9074437
0
LINE
8
0
10
116.187723
20
-12.1925563
11
116.8680905
21
-25.1747403
0
ARC
8
0
10
102.7062243
20
-12.8990917
40
0.5
50
93
51
183
0
ARC
8
0
10
115.6884083
20
-12.2187243
40
0.5
50
3
51
93
0
ARC
8
0
10
103.3865917
20
-25.8812757
40
0.5
50
183
51
273
0
ARC
8
0
10
116.3687757
20
-25.2009083
40
0.5
50
273
51
3
0
LINE
8
0
10
105.5375563
20
-31.640277
11
118.5197403
21
-30.9599095
0
LINE
8
0
10
106.2702597
20
-45.6210905
11
119.2524437
21
-44.940723
0
LINE
8
0
10
105.0644095
20
-32.1657597
11
105.744777
21
-45.1479437
0
LINE
8
0
10
119.045223
20
-31.4330563
11
119.7255905
21
-44.4152403
0
ARC
8
0
10
105.5637243
20
-32.1395917
40
0.5
50
93
51
183
0
ARC
8
0
10
118.5459083
20
-31.4592243
40
0.5
50
3
51
93
0
ARC
8
0
10
106.2440917
20
-45.1217757
40
0.5
50
183
51
273
0
ARC
8
0
10
119.2262757
20
-44.4414083
40
0.5
50
273
51
3
0
LINE
8
0
10
0
20
-85.3482599
11
290.5125
21
-85.3482599
0
LINE
8
0
10
0
20
0
11
290.5125
21
0
0
LINE
8
0
10
0
20
-85.3482599
11
0
21
0
0
LINE
8
0
10
290.5125
20
-85.3482599
11
290.5125
21
0
0
ENDSEC
0
EOF