  0
SECTION
  2
HEADER
  9
$ACADVER
  1
AC1009
  9
$FILLMODE
 70
 0
  9
$SPLFRAME
 70
 1
  9
$EXTMIN
 10
0
 20
0
 30
0.0
  9
$EXTMAX
 10
1058.33
 20
1058.33
 30
0.0
  0
ENDSEC
  0
SECTION
  2
TABLES
  0
TABLE
  2
LAYER
 70
1
  0
LAYER
  2
0
 70
     0
 62
     7
  6
CONTINUOUS
  0
ENDTAB
  0
ENDSEC
  0
SECTION
  2
ENTITIES
  0
LINE
  8
0
 62
     0
 10
296.609
 20
97.977
 30
0.0
 11
296.766
 21
97.9703
 31
0.0
  0
LINE
  8
0
 62
     0
 10
296.766
 20
97.9703
 30
0.0
 11
296.922
 21
97.9523
 31
0.0
  0
LINE
  8
0
 62
     0
 10
296.922
 20
97.9523
 30
0.0
 11
297.076
 21
97.9219
 31
0.0
  0
LINE
  8
0
 62
     0
 10
297.076
 20
97.9219
 30
0.0
 11
297.226
 21
97.8793
 31
0.0
  0
LINE
  8
0
 62
     0
 10
297.226
 20
97.8793
 30
0.0
 11
297.374
 21
97.8242
 31
0.0
  0
LINE
  8
0
 62
     0
 10
297.374
 20
97.8242
 30
0.0
 11
297.517
 21
97.7593
 31
0.0
  0
LINE
  8
0
 62
     0
 10
297.517
 20
97.7593
 30
0.0
 11
297.653
 21
97.6824
 31
0.0
  0
LINE
  8
0
 62
     0
 10
297.653
 20
97.6824
 30
0.0
 11
297.784
 21
97.5953
 31
0.0
  0
LINE
  8
0
 62
     0
 10
297.784
 20
97.5953
 30
0.0
 11
297.907
 21
97.4975
 31
0.0
  0
LINE
  8
0
 62
     0
 10
297.907
 20
97.4975
 30
0.0
 11
298.023
 21
97.3914
 31
0.0
  0
LINE
  8
0
 62
     0
 10
298.023
 20
97.3914
 30
0.0
 11
298.129
 21
97.2757
 31
0.0
  0
LINE
  8
0
 62
     0
 10
298.129
 20
97.2757
 30
0.0
 11
298.227
 21
97.1532
 31
0.0
  0
LINE
  8
0
 62
     0
 10
298.227
 20
97.1532
 30
0.0
 11
298.313
 21
97.022
 31
0.0
  0
LINE
  8
0
 62
     0
 10
298.313
 20
97.022
 30
0.0
 11
298.391
 21
96.8844
 31
0.0
  0
LINE
  8
0
 62
     0
 10
298.391
 20
96.8844
 30
0.0
 11
298.457
 21
96.7423
 31
0.0
  0
LINE
  8
0
 62
     0
 10
298.457
 20
96.7423
 30
0.0
 11
298.511
 21
96.5962
 31
0.0
  0
LINE
  8
0
 62
     0
 10
298.511
 20
96.5962
 30
0.0
 11
298.553
 21
96.4434
 31
0.0
  0
LINE
  8
0
 62
     0
 10
298.553
 20
96.4434
 30
0.0
 11
298.584
 21
96.2903
 31
0.0
  0
LINE
  8
0
 62
     0
 10
298.584
 20
96.2903
 30
0.0
 11
298.603
 21
96.1334
 31
0.0
  0
LINE
  8
0
 62
     0
 10
298.603
 20
96.1334
 30
0.0
 11
298.608
 21
95.9764
 31
0.0
  0
LINE
  8
0
 62
     0
 10
298.608
 20
95.9764
 30
0.0
 11
298.608
 21
2.37712
 31
0.0
  0
LINE
  8
0
 62
     0
 10
298.608
 20
2.37712
 30
0.0
 11
298.603
 21
2.2214
 31
0.0
  0
LINE
  8
0
 62
     0
 10
298.603
 20
2.2214
 30
0.0
 11
298.584
 21
2.0643
 31
0.0
  0
LINE
  8
0
 62
     0
 10
298.584
 20
2.0643
 30
0.0
 11
298.553
 21
1.91134
 31
0.0
  0
LINE
  8
0
 62
     0
 10
298.553
 20
1.91134
 30
0.0
 11
298.511
 21
1.75838
 31
0.0
  0
LINE
  8
0
 62
     0
 10
298.511
 20
1.75838
 30
0.0
 11
298.457
 21
1.6123
 31
0.0
  0
LINE
  8
0
 62
     0
 10
298.457
 20
1.6123
 30
0.0
 11
298.391
 21
1.47037
 31
0.0
  0
LINE
  8
0
 62
     0
 10
298.391
 20
1.47037
 30
0.0
 11
298.313
 21
1.33256
 31
0.0
  0
LINE
  8
0
 62
     0
 10
298.313
 20
1.33256
 30
0.0
 11
298.227
 21
1.20165
 31
0.0
  0
LINE
  8
0
 62
     0
 10
298.227
 20
1.20165
 30
0.0
 11
298.129
 21
1.079
 31
0.0
  0
LINE
  8
0
 62
     0
 10
298.129
 20
1.079
 30
0.0
 11
298.023
 21
0.963249
 31
0.0
  0
LINE
  8
0
 62
     0
 10
298.023
 20
0.963249
 30
0.0
 11
297.907
 21
0.857141
 31
0.0
  0
LINE
  8
0
 62
     0
 10
297.907
 20
0.857141
 30
0.0
 11
297.784
 21
0.759298
 31
0.0
  0
LINE
  8
0
 62
     0
 10
297.784
 20
0.759298
 30
0.0
 11
297.653
 21
0.671103
 31
0.0
  0
LINE
  8
0
 62
     0
 10
297.653
 20
0.671103
 30
0.0
 11
297.517
 21
0.595313
 31
0.0
  0
LINE
  8
0
 62
     0
 10
297.517
 20
0.595313
 30
0.0
 11
297.374
 21
0.529167
 31
0.0
  0
LINE
  8
0
 62
     0
 10
297.374
 20
0.529167
 30
0.0
 11
297.226
 21
0.474045
 31
0.0
  0
LINE
  8
0
 62
     0
 10
297.226
 20
0.474045
 30
0.0
 11
297.076
 21
0.432703
 31
0.0
  0
LINE
  8
0
 62
     0
 10
297.076
 20
0.432703
 30
0.0
 11
296.922
 21
0.402389
 31
0.0
  0
LINE
  8
0
 62
     0
 10
296.922
 20
0.402389
 30
0.0
 11
296.766
 21
0.383096
 31
0.0
  0
LINE
  8
0
 62
     0
 10
296.766
 20
0.383096
 30
0.0
 11
296.609
 21
0.377582
 31
0.0
  0
LINE
  8
0
 62
     0
 10
296.609
 20
0.377582
 30
0.0
 11
2.096
 21
0.377582
 31
0.0
  0
LINE
  8
0
 62
     0
 10
2.096
 20
0.377582
 30
0.0
 11
1.9389
 21
0.383096
 31
0.0
  0
LINE
  8
0
 62
     0
 10
1.9389
 20
0.383096
 30
0.0
 11
1.7818
 21
0.402389
 31
0.0
  0
LINE
  8
0
 62
     0
 10
1.7818
 20
0.402389
 30
0.0
 11
1.62884
 21
0.432703
 31
0.0
  0
LINE
  8
0
 62
     0
 10
1.62884
 20
0.432703
 30
0.0
 11
1.47588
 21
0.474045
 31
0.0
  0
LINE
  8
0
 62
     0
 10
1.47588
 20
0.474045
 30
0.0
 11
1.32981
 21
0.529167
 31
0.0
  0
LINE
  8
0
 62
     0
 10
1.32981
 20
0.529167
 30
0.0
 11
1.18787
 21
0.595313
 31
0.0
  0
LINE
  8
0
 62
     0
 10
1.18787
 20
0.595313
 30
0.0
 11
1.05006
 21
0.671103
 31
0.0
  0
LINE
  8
0
 62
     0
 10
1.05006
 20
0.671103
 30
0.0
 11
0.919152
 21
0.759298
 31
0.0
  0
LINE
  8
0
 62
     0
 10
0.919152
 20
0.759298
 30
0.0
 11
0.796505
 21
0.857141
 31
0.0
  0
LINE
  8
0
 62
     0
 10
0.796505
 20
0.857141
 30
0.0
 11
0.680752
 21
0.963249
 31
0.0
  0
LINE
  8
0
 62
     0
 10
0.680752
 20
0.963249
 30
0.0
 11
0.574643
 21
1.079
 31
0.0
  0
LINE
  8
0
 62
     0
 10
0.574643
 20
1.079
 30
0.0
 11
0.4768
 21
1.20165
 31
0.0
  0
LINE
  8
0
 62
     0
 10
0.4768
 20
1.20165
 30
0.0
 11
0.389985
 21
1.33256
 31
0.0
  0
LINE
  8
0
 62
     0
 10
0.389985
 20
1.33256
 30
0.0
 11
0.312815
 21
1.47037
 31
0.0
  0
LINE
  8
0
 62
     0
 10
0.312815
 20
1.47037
 30
0.0
 11
0.248047
 21
1.6123
 31
0.0
  0
LINE
  8
0
 62
     0
 10
0.248047
 20
1.6123
 30
0.0
 11
0.192925
 21
1.75838
 31
0.0
  0
LINE
  8
0
 62
     0
 10
0.192925
 20
1.75838
 30
0.0
 11
0.150206
 21
1.91134
 31
0.0
  0
LINE
  8
0
 62
     0
 10
0.150206
 20
1.91134
 30
0.0
 11
0.119889
 21
2.0643
 31
0.0
  0
LINE
  8
0
 62
     0
 10
0.119889
 20
2.0643
 30
0.0
 11
0.101975
 21
2.2214
 31
0.0
  0
LINE
  8
0
 62
     0
 10
0.101975
 20
2.2214
 30
0.0
 11
0.0950846
 21
2.37712
 31
0.0
  0
LINE
  8
0
 62
     0
 10
0.0950846
 20
2.37712
 30
0.0
 11
0.0950846
 21
95.9764
 31
0.0
  0
LINE
  8
0
 62
     0
 10
0.0950846
 20
95.9764
 30
0.0
 11
0.101975
 21
96.1334
 31
0.0
  0
LINE
  8
0
 62
     0
 10
0.101975
 20
96.1334
 30
0.0
 11
0.119889
 21
96.2903
 31
0.0
  0
LINE
  8
0
 62
     0
 10
0.119889
 20
96.2903
 30
0.0
 11
0.150206
 21
96.4434
 31
0.0
  0
LINE
  8
0
 62
     0
 10
0.150206
 20
96.4434
 30
0.0
 11
0.192925
 21
96.5962
 31
0.0
  0
LINE
  8
0
 62
     0
 10
0.192925
 20
96.5962
 30
0.0
 11
0.248047
 21
96.7423
 31
0.0
  0
LINE
  8
0
 62
     0
 10
0.248047
 20
96.7423
 30
0.0
 11
0.312815
 21
96.8844
 31
0.0
  0
LINE
  8
0
 62
     0
 10
0.312815
 20
96.8844
 30
0.0
 11
0.389985
 21
97.022
 31
0.0
  0
LINE
  8
0
 62
     0
 10
0.389985
 20
97.022
 30
0.0
 11
0.4768
 21
97.1532
 31
0.0
  0
LINE
  8
0
 62
     0
 10
0.4768
 20
97.1532
 30
0.0
 11
0.574643
 21
97.2757
 31
0.0
  0
LINE
  8
0
 62
     0
 10
0.574643
 20
97.2757
 30
0.0
 11
0.680752
 21
97.3914
 31
0.0
  0
LINE
  8
0
 62
     0
 10
0.680752
 20
97.3914
 30
0.0
 11
0.796505
 21
97.4975
 31
0.0
  0
LINE
  8
0
 62
     0
 10
0.796505
 20
97.4975
 30
0.0
 11
0.919152
 21
97.5953
 31
0.0
  0
LINE
  8
0
 62
     0
 10
0.919152
 20
97.5953
 30
0.0
 11
1.05006
 21
97.6824
 31
0.0
  0
LINE
  8
0
 62
     0
 10
1.05006
 20
97.6824
 30
0.0
 11
1.18787
 21
97.7593
 31
0.0
  0
LINE
  8
0
 62
     0
 10
1.18787
 20
97.7593
 30
0.0
 11
1.32981
 21
97.8242
 31
0.0
  0
LINE
  8
0
 62
     0
 10
1.32981
 20
97.8242
 30
0.0
 11
1.47588
 21
97.8793
 31
0.0
  0
LINE
  8
0
 62
     0
 10
1.47588
 20
97.8793
 30
0.0
 11
1.62884
 21
97.9219
 31
0.0
  0
LINE
  8
0
 62
     0
 10
1.62884
 20
97.9219
 30
0.0
 11
1.7818
 21
97.9523
 31
0.0
  0
LINE
  8
0
 62
     0
 10
1.7818
 20
97.9523
 30
0.0
 11
1.9389
 21
97.9703
 31
0.0
  0
LINE
  8
0
 62
     0
 10
1.9389
 20
97.9703
 30
0.0
 11
2.096
 21
97.977
 31
0.0
  0
LINE
  8
0
 62
     0
 10
2.096
 20
97.977
 30
0.0
 11
296.609
 21
97.977
 31
0.0
  0
LINE
  8
0
 62
     0
 10
2.13183
 20
4.30361
 30
0.0
 11
1.7129
 21
4.09141
 31
0.0
  0
LINE
  8
0
 62
     0
 10
1.7129
 20
4.09141
 30
0.0
 11
1.38217
 21
3.75931
 31
0.0
  0
LINE
  8
0
 62
     0
 10
1.38217
 20
3.75931
 30
0.0
 11
1.16858
 21
3.34036
 31
0.0
  0
LINE
  8
0
 62
     0
 10
1.16858
 20
3.34036
 30
0.0
 11
1.09416
 21
2.87734
 31
0.0
  0
LINE
  8
0
 62
     0
 10
1.09416
 20
2.87734
 30
0.0
 11
1.16858
 21
2.41432
 31
0.0
  0
LINE
  8
0
 62
     0
 10
1.16858
 20
2.41432
 30
0.0
 11
1.38217
 21
1.9954
 31
0.0
  0
LINE
  8
0
 62
     0
 10
1.38217
 20
1.9954
 30
0.0
 11
1.7129
 21
1.66329
 31
0.0
  0
LINE
  8
0
 62
     0
 10
1.7129
 20
1.66329
 30
0.0
 11
2.13183
 21
1.45107
 31
0.0
  0
LINE
  8
0
 62
     0
 10
2.13183
 20
1.45107
 30
0.0
 11
2.59485
 21
1.37804
 31
0.0
  0
LINE
  8
0
 62
     0
 10
2.59485
 20
1.37804
 30
0.0
 11
3.05787
 21
1.45107
 31
0.0
  0
LINE
  8
0
 62
     0
 10
3.05787
 20
1.45107
 30
0.0
 11
3.47679
 21
1.66329
 31
0.0
  0
LINE
  8
0
 62
     0
 10
3.47679
 20
1.66329
 30
0.0
 11
3.80891
 21
1.9954
 31
0.0
  0
LINE
  8
0
 62
     0
 10
3.80891
 20
1.9954
 30
0.0
 11
4.0211
 21
2.41432
 31
0.0
  0
LINE
  8
0
 62
     0
 10
4.0211
 20
2.41432
 30
0.0
 11
4.09554
 21
2.87734
 31
0.0
  0
LINE
  8
0
 62
     0
 10
4.09554
 20
2.87734
 30
0.0
 11
4.0211
 21
3.34036
 31
0.0
  0
LINE
  8
0
 62
     0
 10
4.0211
 20
3.34036
 30
0.0
 11
3.80891
 21
3.75931
 31
0.0
  0
LINE
  8
0
 62
     0
 10
3.80891
 20
3.75931
 30
0.0
 11
3.47679
 21
4.09141
 31
0.0
  0
LINE
  8
0
 62
     0
 10
3.47679
 20
4.09141
 30
0.0
 11
3.05787
 21
4.30361
 31
0.0
  0
LINE
  8
0
 62
     0
 10
3.05787
 20
4.30361
 30
0.0
 11
2.59485
 21
4.37804
 31
0.0
  0
LINE
  8
0
 62
     0
 10
2.59485
 20
4.37804
 30
0.0
 11
2.13183
 21
4.30361
 31
0.0
  0
LINE
  8
0
 62
     0
 10
99.9698
 20
4.30361
 30
0.0
 11
99.5507
 21
4.09141
 31
0.0
  0
LINE
  8
0
 62
     0
 10
99.5507
 20
4.09141
 30
0.0
 11
99.2202
 21
3.75931
 31
0.0
  0
LINE
  8
0
 62
     0
 10
99.2202
 20
3.75931
 30
0.0
 11
99.0064
 21
3.34036
 31
0.0
  0
LINE
  8
0
 62
     0
 10
99.0064
 20
3.34036
 30
0.0
 11
98.9323
 21
2.87734
 31
0.0
  0
LINE
  8
0
 62
     0
 10
98.9323
 20
2.87734
 30
0.0
 11
99.0064
 21
2.41432
 31
0.0
  0
LINE
  8
0
 62
     0
 10
99.0064
 20
2.41432
 30
0.0
 11
99.2202
 21
1.9954
 31
0.0
  0
LINE
  8
0
 62
     0
 10
99.2202
 20
1.9954
 30
0.0
 11
99.5507
 21
1.66329
 31
0.0
  0
LINE
  8
0
 62
     0
 10
99.5507
 20
1.66329
 30
0.0
 11
99.9698
 21
1.45107
 31
0.0
  0
LINE
  8
0
 62
     0
 10
99.9698
 20
1.45107
 30
0.0
 11
100.433
 21
1.37804
 31
0.0
  0
LINE
  8
0
 62
     0
 10
100.433
 20
1.37804
 30
0.0
 11
100.896
 21
1.45107
 31
0.0
  0
LINE
  8
0
 62
     0
 10
100.896
 20
1.45107
 30
0.0
 11
101.315
 21
1.66329
 31
0.0
  0
LINE
  8
0
 62
     0
 10
101.315
 20
1.66329
 30
0.0
 11
101.647
 21
1.9954
 31
0.0
  0
LINE
  8
0
 62
     0
 10
101.647
 20
1.9954
 30
0.0
 11
101.859
 21
2.41432
 31
0.0
  0
LINE
  8
0
 62
     0
 10
101.859
 20
2.41432
 30
0.0
 11
101.932
 21
2.87734
 31
0.0
  0
LINE
  8
0
 62
     0
 10
101.932
 20
2.87734
 30
0.0
 11
101.859
 21
3.34036
 31
0.0
  0
LINE
  8
0
 62
     0
 10
101.859
 20
3.34036
 30
0.0
 11
101.647
 21
3.75931
 31
0.0
  0
LINE
  8
0
 62
     0
 10
101.647
 20
3.75931
 30
0.0
 11
101.315
 21
4.09141
 31
0.0
  0
LINE
  8
0
 62
     0
 10
101.315
 20
4.09141
 30
0.0
 11
100.896
 21
4.30361
 31
0.0
  0
LINE
  8
0
 62
     0
 10
100.896
 20
4.30361
 30
0.0
 11
100.433
 21
4.37804
 31
0.0
  0
LINE
  8
0
 62
     0
 10
100.433
 20
4.37804
 30
0.0
 11
99.9698
 21
4.30361
 31
0.0
  0
LINE
  8
0
 62
     0
 10
197.808
 20
4.30361
 30
0.0
 11
197.389
 21
4.09141
 31
0.0
  0
LINE
  8
0
 62
     0
 10
197.389
 20
4.09141
 30
0.0
 11
197.058
 21
3.75931
 31
0.0
  0
LINE
  8
0
 62
     0
 10
197.058
 20
3.75931
 30
0.0
 11
196.844
 21
3.34036
 31
0.0
  0
LINE
  8
0
 62
     0
 10
196.844
 20
3.34036
 30
0.0
 11
196.77
 21
2.87734
 31
0.0
  0
LINE
  8
0
 62
     0
 10
196.77
 20
2.87734
 30
0.0
 11
196.844
 21
2.41432
 31
0.0
  0
LINE
  8
0
 62
     0
 10
196.844
 20
2.41432
 30
0.0
 11
197.058
 21
1.9954
 31
0.0
  0
LINE
  8
0
 62
     0
 10
197.058
 20
1.9954
 30
0.0
 11
197.389
 21
1.66329
 31
0.0
  0
LINE
  8
0
 62
     0
 10
197.389
 20
1.66329
 30
0.0
 11
197.808
 21
1.45107
 31
0.0
  0
LINE
  8
0
 62
     0
 10
197.808
 20
1.45107
 30
0.0
 11
198.271
 21
1.37804
 31
0.0
  0
LINE
  8
0
 62
     0
 10
198.271
 20
1.37804
 30
0.0
 11
198.735
 21
1.45107
 31
0.0
  0
LINE
  8
0
 62
     0
 10
198.735
 20
1.45107
 30
0.0
 11
199.153
 21
1.66329
 31
0.0
  0
LINE
  8
0
 62
     0
 10
199.153
 20
1.66329
 30
0.0
 11
199.485
 21
1.9954
 31
0.0
  0
LINE
  8
0
 62
     0
 10
199.485
 20
1.9954
 30
0.0
 11
199.697
 21
2.41432
 31
0.0
  0
LINE
  8
0
 62
     0
 10
199.697
 20
2.41432
 30
0.0
 11
199.77
 21
2.87734
 31
0.0
  0
LINE
  8
0
 62
     0
 10
199.77
 20
2.87734
 30
0.0
 11
199.697
 21
3.34036
 31
0.0
  0
LINE
  8
0
 62
     0
 10
199.697
 20
3.34036
 30
0.0
 11
199.485
 21
3.75931
 31
0.0
  0
LINE
  8
0
 62
     0
 10
199.485
 20
3.75931
 30
0.0
 11
199.153
 21
4.09141
 31
0.0
  0
LINE
  8
0
 62
     0
 10
199.153
 20
4.09141
 30
0.0
 11
198.735
 21
4.30361
 31
0.0
  0
LINE
  8
0
 62
     0
 10
198.735
 20
4.30361
 30
0.0
 11
198.271
 21
4.37804
 31
0.0
  0
LINE
  8
0
 62
     0
 10
198.271
 20
4.37804
 30
0.0
 11
197.808
 21
4.30361
 31
0.0
  0
LINE
  8
0
 62
     0
 10
295.644
 20
4.30361
 30
0.0
 11
295.227
 21
4.09141
 31
0.0
  0
LINE
  8
0
 62
     0
 10
295.227
 20
4.09141
 30
0.0
 11
294.895
 21
3.75931
 31
0.0
  0
LINE
  8
0
 62
     0
 10
294.895
 20
3.75931
 30
0.0
 11
294.681
 21
3.34036
 31
0.0
  0
LINE
  8
0
 62
     0
 10
294.681
 20
3.34036
 30
0.0
 11
294.608
 21
2.87734
 31
0.0
  0
LINE
  8
0
 62
     0
 10
294.608
 20
2.87734
 30
0.0
 11
294.681
 21
2.41432
 31
0.0
  0
LINE
  8
0
 62
     0
 10
294.681
 20
2.41432
 30
0.0
 11
294.895
 21
1.9954
 31
0.0
  0
LINE
  8
0
 62
     0
 10
294.895
 20
1.9954
 30
0.0
 11
295.227
 21
1.66329
 31
0.0
  0
LINE
  8
0
 62
     0
 10
295.227
 20
1.66329
 30
0.0
 11
295.644
 21
1.45107
 31
0.0
  0
LINE
  8
0
 62
     0
 10
295.644
 20
1.45107
 30
0.0
 11
296.109
 21
1.37804
 31
0.0
  0
LINE
  8
0
 62
     0
 10
296.109
 20
1.37804
 30
0.0
 11
296.573
 21
1.45107
 31
0.0
  0
LINE
  8
0
 62
     0
 10
296.573
 20
1.45107
 30
0.0
 11
296.991
 21
1.66329
 31
0.0
  0
LINE
  8
0
 62
     0
 10
296.991
 20
1.66329
 30
0.0
 11
297.323
 21
1.9954
 31
0.0
  0
LINE
  8
0
 62
     0
 10
297.323
 20
1.9954
 30
0.0
 11
297.535
 21
2.41432
 31
0.0
  0
LINE
  8
0
 62
     0
 10
297.535
 20
2.41432
 30
0.0
 11
297.608
 21
2.87734
 31
0.0
  0
LINE
  8
0
 62
     0
 10
297.608
 20
2.87734
 30
0.0
 11
297.535
 21
3.34036
 31
0.0
  0
LINE
  8
0
 62
     0
 10
297.535
 20
3.34036
 30
0.0
 11
297.323
 21
3.75931
 31
0.0
  0
LINE
  8
0
 62
     0
 10
297.323
 20
3.75931
 30
0.0
 11
296.991
 21
4.09141
 31
0.0
  0
LINE
  8
0
 62
     0
 10
296.991
 20
4.09141
 30
0.0
 11
296.573
 21
4.30361
 31
0.0
  0
LINE
  8
0
 62
     0
 10
296.573
 20
4.30361
 30
0.0
 11
296.109
 21
4.37804
 31
0.0
  0
LINE
  8
0
 62
     0
 10
296.109
 20
4.37804
 30
0.0
 11
295.644
 21
4.30361
 31
0.0
  0
LINE
  8
0
 62
     0
 10
126.894
 20
23.3881
 30
0.0
 11
126.999
 21
22.3931
 31
0.0
  0
LINE
  8
0
 62
     0
 10
126.999
 20
22.3931
 30
0.0
 11
126.203
 21
22.3091
 31
0.0
  0
LINE
  8
0
 62
     0
 10
126.203
 20
22.3091
 30
0.0
 11
126.527
 21
19.2264
 31
0.0
  0
LINE
  8
0
 62
     0
 10
126.527
 20
19.2264
 30
0.0
 11
127.322
 21
19.3105
 31
0.0
  0
LINE
  8
0
 62
     0
 10
127.322
 20
19.3105
 30
0.0
 11
127.386
 21
18.7138
 31
0.0
  0
LINE
  8
0
 62
     0
 10
127.386
 20
18.7138
 30
0.0
 11
125.869
 21
18.5553
 31
0.0
  0
LINE
  8
0
 62
     0
 10
125.869
 20
18.5553
 30
0.0
 11
125.531
 21
21.7661
 31
0.0
  0
LINE
  8
0
 62
     0
 10
125.531
 20
21.7661
 30
0.0
 11
118.819
 21
21.0619
 31
0.0
  0
LINE
  8
0
 62
     0
 10
118.819
 20
21.0619
 30
0.0
 11
119.155
 21
17.8484
 31
0.0
  0
LINE
  8
0
 62
     0
 10
119.155
 20
17.8484
 30
0.0
 11
118.335
 21
17.7629
 31
0.0
  0
LINE
  8
0
 62
     0
 10
118.335
 20
17.7629
 30
0.0
 11
118.627
 21
14.9779
 31
0.0
  0
LINE
  8
0
 62
     0
 10
118.627
 20
14.9779
 30
0.0
 11
119.448
 21
15.0647
 31
0.0
  0
LINE
  8
0
 62
     0
 10
119.448
 20
15.0647
 30
0.0
 11
120.103
 21
8.82908
 31
0.0
  0
LINE
  8
0
 62
     0
 10
120.103
 20
8.82908
 30
0.0
 11
121.82
 21
9.00825
 31
0.0
  0
LINE
  8
0
 62
     0
 10
121.82
 20
9.00825
 30
0.0
 11
121.944
 21
7.81625
 31
0.0
  0
LINE
  8
0
 62
     0
 10
121.944
 20
7.81625
 30
0.0
 11
125.227
 21
8.16074
 31
0.0
  0
LINE
  8
0
 62
     0
 10
125.227
 20
8.16074
 30
0.0
 11
125.101
 21
9.35411
 31
0.0
  0
LINE
  8
0
 62
     0
 10
125.101
 20
9.35411
 30
0.0
 11
126.817
 21
9.53325
 31
0.0
  0
LINE
  8
0
 62
     0
 10
126.817
 20
9.53325
 30
0.0
 11
126.349
 21
13.9802
 31
0.0
  0
LINE
  8
0
 62
     0
 10
126.349
 20
13.9802
 30
0.0
 11
127.865
 21
14.1387
 31
0.0
  0
LINE
  8
0
 62
     0
 10
127.865
 20
14.1387
 30
0.0
 11
127.929
 21
13.5434
 31
0.0
  0
LINE
  8
0
 62
     0
 10
127.929
 20
13.5434
 30
0.0
 11
127.134
 21
13.4593
 31
0.0
  0
LINE
  8
0
 62
     0
 10
127.134
 20
13.4593
 30
0.0
 11
127.458
 21
10.3753
 31
0.0
  0
LINE
  8
0
 62
     0
 10
127.458
 20
10.3753
 30
0.0
 11
128.254
 21
10.4593
 31
0.0
  0
LINE
  8
0
 62
     0
 10
128.254
 20
10.4593
 30
0.0
 11
128.357
 21
9.46436
 31
0.0
  0
LINE
  8
0
 62
     0
 10
128.357
 20
9.46436
 30
0.0
 11
142.281
 21
10.9292
 31
0.0
  0
LINE
  8
0
 62
     0
 10
142.281
 20
10.9292
 30
0.0
 11
142.176
 21
11.9228
 31
0.0
  0
LINE
  8
0
 62
     0
 10
142.176
 20
11.9228
 30
0.0
 11
142.971
 21
12.0069
 31
0.0
  0
LINE
  8
0
 62
     0
 10
142.971
 20
12.0069
 30
0.0
 11
142.647
 21
15.0895
 31
0.0
  0
LINE
  8
0
 62
     0
 10
142.647
 20
15.0895
 30
0.0
 11
141.853
 21
15.0055
 31
0.0
  0
LINE
  8
0
 62
     0
 10
141.853
 20
15.0055
 30
0.0
 11
141.789
 21
15.6022
 31
0.0
  0
LINE
  8
0
 62
     0
 10
141.789
 20
15.6022
 30
0.0
 11
143.306
 21
15.762
 31
0.0
  0
LINE
  8
0
 62
     0
 10
143.306
 20
15.762
 30
0.0
 11
143.774
 21
11.3164
 31
0.0
  0
LINE
  8
0
 62
     0
 10
143.774
 20
11.3164
 30
0.0
 11
145.489
 21
11.497
 31
0.0
  0
LINE
  8
0
 62
     0
 10
145.489
 20
11.497
 30
0.0
 11
145.615
 21
10.3036
 31
0.0
  0
LINE
  8
0
 62
     0
 10
145.615
 20
10.3036
 30
0.0
 11
148.897
 21
10.6481
 31
0.0
  0
LINE
  8
0
 62
     0
 10
148.897
 20
10.6481
 30
0.0
 11
148.77
 21
11.8415
 31
0.0
  0
LINE
  8
0
 62
     0
 10
148.77
 20
11.8415
 30
0.0
 11
150.486
 21
12.022
 31
0.0
  0
LINE
  8
0
 62
     0
 10
150.486
 20
12.022
 30
0.0
 11
149.831
 21
18.2576
 31
0.0
  0
LINE
  8
0
 62
     0
 10
149.831
 20
18.2576
 30
0.0
 11
150.651
 21
18.3431
 31
0.0
  0
LINE
  8
0
 62
     0
 10
150.651
 20
18.3431
 30
0.0
 11
150.359
 21
21.1281
 31
0.0
  0
LINE
  8
0
 62
     0
 10
150.359
 20
21.1281
 30
0.0
 11
149.538
 21
21.0426
 31
0.0
  0
LINE
  8
0
 62
     0
 10
149.538
 20
21.0426
 30
0.0
 11
149.2
 21
24.2548
 31
0.0
  0
LINE
  8
0
 62
     0
 10
149.2
 20
24.2548
 30
0.0
 11
142.488
 21
23.5493
 31
0.0
  0
LINE
  8
0
 62
     0
 10
142.488
 20
23.5493
 30
0.0
 11
142.825
 21
20.3371
 31
0.0
  0
LINE
  8
0
 62
     0
 10
142.825
 20
20.3371
 30
0.0
 11
141.31
 21
20.1772
 31
0.0
  0
LINE
  8
0
 62
     0
 10
141.31
 20
20.1772
 30
0.0
 11
141.246
 21
20.7739
 31
0.0
  0
LINE
  8
0
 62
     0
 10
141.246
 20
20.7739
 30
0.0
 11
142.041
 21
20.858
 31
0.0
  0
LINE
  8
0
 62
     0
 10
142.041
 20
20.858
 30
0.0
 11
141.718
 21
23.9407
 31
0.0
  0
LINE
  8
0
 62
     0
 10
141.718
 20
23.9407
 30
0.0
 11
140.921
 21
23.8566
 31
0.0
  0
LINE
  8
0
 62
     0
 10
140.921
 20
23.8566
 30
0.0
 11
140.818
 21
24.8515
 31
0.0
  0
LINE
  8
0
 62
     0
 10
140.818
 20
24.8515
 30
0.0
 11
126.894
 21
23.3881
 31
0.0
  0
LINE
  8
0
 62
     0
 10
75.1706
 20
25.5254
 30
0.0
 11
73.4589
 21
25.7349
 31
0.0
  0
LINE
  8
0
 62
     0
 10
73.4589
 20
25.7349
 30
0.0
 11
72.693
 21
19.5116
 31
0.0
  0
LINE
  8
0
 62
     0
 10
72.693
 20
19.5116
 30
0.0
 11
71.8757
 21
19.6123
 31
0.0
  0
LINE
  8
0
 62
     0
 10
71.8757
 20
19.6123
 30
0.0
 11
71.5338
 21
16.8327
 31
0.0
  0
LINE
  8
0
 62
     0
 10
71.5338
 20
16.8327
 30
0.0
 11
72.3526
 21
16.7321
 31
0.0
  0
LINE
  8
0
 62
     0
 10
72.3526
 20
16.7321
 30
0.0
 11
71.9596
 21
13.5268
 31
0.0
  0
LINE
  8
0
 62
     0
 10
71.9596
 20
13.5268
 30
0.0
 11
78.6585
 21
12.7041
 31
0.0
  0
LINE
  8
0
 62
     0
 10
78.6585
 20
12.7041
 30
0.0
 11
79.0526
 21
15.9095
 31
0.0
  0
LINE
  8
0
 62
     0
 10
79.0526
 20
15.9095
 30
0.0
 11
80.5656
 21
15.7234
 31
0.0
  0
LINE
  8
0
 62
     0
 10
80.5656
 20
15.7234
 30
0.0
 11
80.4926
 21
15.1281
 31
0.0
  0
LINE
  8
0
 62
     0
 10
80.4926
 20
15.1281
 30
0.0
 11
79.6989
 21
15.226
 31
0.0
  0
LINE
  8
0
 62
     0
 10
79.6989
 20
15.226
 30
0.0
 11
79.3214
 21
12.1502
 31
0.0
  0
LINE
  8
0
 62
     0
 10
79.3214
 20
12.1502
 30
0.0
 11
80.1151
 21
12.0523
 31
0.0
  0
LINE
  8
0
 62
     0
 10
80.1151
 20
12.0523
 30
0.0
 11
79.9938
 21
11.0601
 31
0.0
  0
LINE
  8
0
 62
     0
 10
79.9938
 20
11.0601
 30
0.0
 11
93.8886
 21
9.35274
 31
0.0
  0
LINE
  8
0
 62
     0
 10
93.8886
 20
9.35274
 30
0.0
 11
94.011
 21
10.3463
 31
0.0
  0
LINE
  8
0
 62
     0
 10
94.011
 20
10.3463
 30
0.0
 11
94.8048
 21
10.2471
 31
0.0
  0
LINE
  8
0
 62
     0
 10
94.8048
 20
10.2471
 30
0.0
 11
95.1826
 21
13.3242
 31
0.0
  0
LINE
  8
0
 62
     0
 10
95.1826
 20
13.3242
 30
0.0
 11
94.3889
 21
13.4221
 31
0.0
  0
LINE
  8
0
 62
     0
 10
94.3889
 20
13.4221
 30
0.0
 11
94.4619
 21
14.0174
 31
0.0
  0
LINE
  8
0
 62
     0
 10
94.4619
 20
14.0174
 30
0.0
 11
95.975
 21
13.8314
 31
0.0
  0
LINE
  8
0
 62
     0
 10
95.975
 20
13.8314
 30
0.0
 11
95.582
 21
10.6261
 31
0.0
  0
LINE
  8
0
 62
     0
 10
95.582
 20
10.6261
 30
0.0
 11
102.282
 21
9.80338
 31
0.0
  0
LINE
  8
0
 62
     0
 10
102.282
 20
9.80338
 30
0.0
 11
102.675
 21
13.0101
 31
0.0
  0
LINE
  8
0
 62
     0
 10
102.675
 20
13.0101
 30
0.0
 11
103.493
 21
12.9081
 31
0.0
  0
LINE
  8
0
 62
     0
 10
103.493
 20
12.9081
 30
0.0
 11
103.835
 21
15.6876
 31
0.0
  0
LINE
  8
0
 62
     0
 10
103.835
 20
15.6876
 30
0.0
 11
103.017
 21
15.7882
 31
0.0
  0
LINE
  8
0
 62
     0
 10
103.017
 20
15.7882
 30
0.0
 11
103.78
 21
22.0114
 31
0.0
  0
LINE
  8
0
 62
     0
 10
103.78
 20
22.0114
 30
0.0
 11
102.068
 21
22.2222
 31
0.0
  0
LINE
  8
0
 62
     0
 10
102.068
 20
22.2222
 30
0.0
 11
102.215
 21
23.4142
 31
0.0
  0
LINE
  8
0
 62
     0
 10
102.215
 20
23.4142
 30
0.0
 11
98.939
 21
23.8153
 31
0.0
  0
LINE
  8
0
 62
     0
 10
98.939
 20
23.8153
 30
0.0
 11
98.7929
 21
22.6246
 31
0.0
  0
LINE
  8
0
 62
     0
 10
98.7929
 20
22.6246
 30
0.0
 11
97.0802
 21
22.8341
 31
0.0
  0
LINE
  8
0
 62
     0
 10
97.0802
 20
22.8341
 30
0.0
 11
96.5359
 21
18.3982
 31
0.0
  0
LINE
  8
0
 62
     0
 10
96.5359
 20
18.3982
 30
0.0
 11
95.0225
 21
18.5842
 31
0.0
  0
LINE
  8
0
 62
     0
 10
95.0225
 20
18.5842
 30
0.0
 11
95.0958
 21
19.1795
 31
0.0
  0
LINE
  8
0
 62
     0
 10
95.0958
 20
19.1795
 30
0.0
 11
95.8896
 21
19.0817
 31
0.0
  0
LINE
  8
0
 62
     0
 10
95.8896
 20
19.0817
 30
0.0
 11
96.2671
 21
22.1589
 31
0.0
  0
LINE
  8
0
 62
     0
 10
96.2671
 20
22.1589
 30
0.0
 11
95.4733
 21
22.2553
 31
0.0
  0
LINE
  8
0
 62
     0
 10
95.4733
 20
22.2553
 30
0.0
 11
95.5957
 21
23.2489
 31
0.0
  0
LINE
  8
0
 62
     0
 10
95.5957
 20
23.2489
 30
0.0
 11
81.6998
 21
24.9549
 31
0.0
  0
LINE
  8
0
 62
     0
 10
81.6998
 20
24.9549
 30
0.0
 11
81.577
 21
23.9627
 31
0.0
  0
LINE
  8
0
 62
     0
 10
81.577
 20
23.9627
 30
0.0
 11
80.7833
 21
24.0592
 31
0.0
  0
LINE
  8
0
 62
     0
 10
80.7833
 20
24.0592
 30
0.0
 11
80.4058
 21
20.9834
 31
0.0
  0
LINE
  8
0
 62
     0
 10
80.4058
 20
20.9834
 30
0.0
 11
81.1996
 21
20.8855
 31
0.0
  0
LINE
  8
0
 62
     0
 10
81.1996
 20
20.8855
 30
0.0
 11
81.1265
 21
20.2902
 31
0.0
  0
LINE
  8
0
 62
     0
 10
81.1265
 20
20.2902
 30
0.0
 11
79.6121
 21
20.4763
 31
0.0
  0
LINE
  8
0
 62
     0
 10
79.6121
 20
20.4763
 30
0.0
 11
80.1578
 21
24.9122
 31
0.0
  0
LINE
  8
0
 62
     0
 10
80.1578
 20
24.9122
 30
0.0
 11
78.4447
 21
25.123
 31
0.0
  0
LINE
  8
0
 62
     0
 10
78.4447
 20
25.123
 30
0.0
 11
78.5908
 21
26.3136
 31
0.0
  0
LINE
  8
0
 62
     0
 10
78.5908
 20
26.3136
 30
0.0
 11
75.3166
 21
26.716
 31
0.0
  0
LINE
  8
0
 62
     0
 10
75.3166
 20
26.716
 30
0.0
 11
75.1706
 21
25.5254
 31
0.0
  0
LINE
  8
0
 62
     0
 10
163.97
 20
28.5392
 30
0.0
 11
164.144
 21
27.5553
 31
0.0
  0
LINE
  8
0
 62
     0
 10
164.144
 20
27.5553
 30
0.0
 11
163.356
 21
27.4161
 31
0.0
  0
LINE
  8
0
 62
     0
 10
163.356
 20
27.4161
 30
0.0
 11
163.893
 21
24.3623
 31
0.0
  0
LINE
  8
0
 62
     0
 10
163.893
 20
24.3623
 30
0.0
 11
164.681
 21
24.5015
 31
0.0
  0
LINE
  8
0
 62
     0
 10
164.681
 20
24.5015
 30
0.0
 11
165.688
 21
18.7895
 31
0.0
  0
LINE
  8
0
 62
     0
 10
165.688
 20
18.7895
 30
0.0
 11
164.902
 21
18.6517
 31
0.0
  0
LINE
  8
0
 62
     0
 10
164.902
 20
18.6517
 30
0.0
 11
165.439
 21
15.5994
 31
0.0
  0
LINE
  8
0
 62
     0
 10
165.439
 20
15.5994
 30
0.0
 11
166.227
 21
15.7372
 31
0.0
  0
LINE
  8
0
 62
     0
 10
166.227
 20
15.7372
 30
0.0
 11
166.401
 21
14.7533
 31
0.0
  0
LINE
  8
0
 62
     0
 10
166.401
 20
14.7533
 30
0.0
 11
180.188
 21
17.1841
 31
0.0
  0
LINE
  8
0
 62
     0
 10
180.188
 20
17.1841
 30
0.0
 11
180.014
 21
18.1681
 31
0.0
  0
LINE
  8
0
 62
     0
 10
180.014
 20
18.1681
 30
0.0
 11
180.803
 21
18.3072
 31
0.0
  0
LINE
  8
0
 62
     0
 10
180.803
 20
18.3072
 30
0.0
 11
180.264
 21
21.3596
 31
0.0
  0
LINE
  8
0
 62
     0
 10
180.264
 20
21.3596
 30
0.0
 11
179.477
 21
21.2218
 31
0.0
  0
LINE
  8
0
 62
     0
 10
179.477
 20
21.2218
 30
0.0
 11
178.47
 21
26.9324
 31
0.0
  0
LINE
  8
0
 62
     0
 10
178.47
 20
26.9324
 30
0.0
 11
179.257
 21
27.0716
 31
0.0
  0
LINE
  8
0
 62
     0
 10
179.257
 20
27.0716
 30
0.0
 11
178.719
 21
30.1253
 31
0.0
  0
LINE
  8
0
 62
     0
 10
178.719
 20
30.1253
 30
0.0
 11
177.931
 21
29.9861
 31
0.0
  0
LINE
  8
0
 62
     0
 10
177.931
 20
29.9861
 30
0.0
 11
177.757
 21
30.9714
 31
0.0
  0
LINE
  8
0
 62
     0
 10
177.757
 20
30.9714
 30
0.0
 11
163.97
 21
28.5392
 31
0.0
  0
LINE
  8
0
 62
     0
 10
36.219
 20
30.7647
 30
0.0
 11
35.4281
 21
30.8901
 31
0.0
  0
LINE
  8
0
 62
     0
 10
35.4281
 20
30.8901
 30
0.0
 11
34.9429
 21
27.8281
 31
0.0
  0
LINE
  8
0
 62
     0
 10
34.9429
 20
27.8281
 30
0.0
 11
35.7339
 21
27.7027
 31
0.0
  0
LINE
  8
0
 62
     0
 10
35.7339
 20
27.7027
 30
0.0
 11
34.8272
 21
21.9742
 31
0.0
  0
LINE
  8
0
 62
     0
 10
34.8272
 20
21.9742
 30
0.0
 11
34.0362
 21
22.0996
 31
0.0
  0
LINE
  8
0
 62
     0
 10
34.0362
 20
22.0996
 30
0.0
 11
33.5511
 21
19.0376
 31
0.0
  0
LINE
  8
0
 62
     0
 10
33.5511
 20
19.0376
 30
0.0
 11
34.3421
 21
18.9122
 31
0.0
  0
LINE
  8
0
 62
     0
 10
34.3421
 20
18.9122
 30
0.0
 11
34.185
 21
17.9241
 31
0.0
  0
LINE
  8
0
 62
     0
 10
34.185
 20
17.9241
 30
0.0
 11
48.0124
 21
15.7345
 31
0.0
  0
LINE
  8
0
 62
     0
 10
48.0124
 20
15.7345
 30
0.0
 11
48.1693
 21
16.7211
 31
0.0
  0
LINE
  8
0
 62
     0
 10
48.1693
 20
16.7211
 30
0.0
 11
48.9589
 21
16.5971
 31
0.0
  0
LINE
  8
0
 62
     0
 10
48.9589
 20
16.5971
 30
0.0
 11
49.4439
 21
19.6591
 31
0.0
  0
LINE
  8
0
 62
     0
 10
49.4439
 20
19.6591
 30
0.0
 11
48.653
 21
19.7831
 31
0.0
  0
LINE
  8
0
 62
     0
 10
48.653
 20
19.7831
 30
0.0
 11
49.561
 21
25.513
 31
0.0
  0
LINE
  8
0
 62
     0
 10
49.561
 20
25.513
 30
0.0
 11
50.352
 21
25.3876
 31
0.0
  0
LINE
  8
0
 62
     0
 10
50.352
 20
25.3876
 30
0.0
 11
50.836
 21
28.4496
 31
0.0
  0
LINE
  8
0
 62
     0
 10
50.836
 20
28.4496
 30
0.0
 11
50.0461
 21
28.575
 31
0.0
  0
LINE
  8
0
 62
     0
 10
50.0461
 20
28.575
 30
0.0
 11
50.202
 21
29.5617
 31
0.0
  0
LINE
  8
0
 62
     0
 10
50.202
 20
29.5617
 30
0.0
 11
36.376
 21
31.7514
 31
0.0
  0
LINE
  8
0
 62
     0
 10
36.376
 20
31.7514
 30
0.0
 11
36.219
 21
30.7647
 31
0.0
  0
LINE
  8
0
 62
     0
 10
196.168
 20
31.3972
 30
0.0
 11
196.168
 21
30.3968
 31
0.0
  0
LINE
  8
0
 62
     0
 10
196.168
 20
30.3968
 30
0.0
 11
195.367
 21
30.3968
 31
0.0
  0
LINE
  8
0
 62
     0
 10
195.367
 20
30.3968
 30
0.0
 11
195.367
 21
27.2976
 31
0.0
  0
LINE
  8
0
 62
     0
 10
195.367
 20
27.2976
 30
0.0
 11
196.168
 21
27.2976
 31
0.0
  0
LINE
  8
0
 62
     0
 10
196.168
 20
27.2976
 30
0.0
 11
196.168
 21
21.4974
 31
0.0
  0
LINE
  8
0
 62
     0
 10
196.168
 20
21.4974
 30
0.0
 11
195.367
 21
21.4974
 31
0.0
  0
LINE
  8
0
 62
     0
 10
195.367
 20
21.4974
 30
0.0
 11
195.367
 21
18.3968
 31
0.0
  0
LINE
  8
0
 62
     0
 10
195.367
 20
18.3968
 30
0.0
 11
196.168
 21
18.3968
 31
0.0
  0
LINE
  8
0
 62
     0
 10
196.168
 20
18.3968
 30
0.0
 11
196.168
 21
17.3964
 31
0.0
  0
LINE
  8
0
 62
     0
 10
196.168
 20
17.3964
 30
0.0
 11
210.167
 21
17.3964
 31
0.0
  0
LINE
  8
0
 62
     0
 10
210.167
 20
17.3964
 30
0.0
 11
210.167
 21
18.3968
 31
0.0
  0
LINE
  8
0
 62
     0
 10
210.167
 20
18.3968
 30
0.0
 11
210.968
 21
18.3968
 31
0.0
  0
LINE
  8
0
 62
     0
 10
210.968
 20
18.3968
 30
0.0
 11
210.968
 21
21.4974
 31
0.0
  0
LINE
  8
0
 62
     0
 10
210.968
 20
21.4974
 30
0.0
 11
210.167
 21
21.4974
 31
0.0
  0
LINE
  8
0
 62
     0
 10
210.167
 20
21.4974
 30
0.0
 11
210.167
 21
27.2976
 31
0.0
  0
LINE
  8
0
 62
     0
 10
210.167
 20
27.2976
 30
0.0
 11
210.968
 21
27.2976
 31
0.0
  0
LINE
  8
0
 62
     0
 10
210.968
 20
27.2976
 30
0.0
 11
210.968
 21
30.3968
 31
0.0
  0
LINE
  8
0
 62
     0
 10
210.968
 20
30.3968
 30
0.0
 11
210.167
 21
30.3968
 31
0.0
  0
LINE
  8
0
 62
     0
 10
210.167
 20
30.3968
 30
0.0
 11
210.167
 21
31.3972
 31
0.0
  0
LINE
  8
0
 62
     0
 10
210.167
 20
31.3972
 30
0.0
 11
196.168
 21
31.3972
 31
0.0
  0
LINE
  8
0
 62
     0
 10
215.218
 20
31.3972
 30
0.0
 11
215.218
 21
30.3968
 31
0.0
  0
LINE
  8
0
 62
     0
 10
215.218
 20
30.3968
 30
0.0
 11
214.417
 21
30.3968
 31
0.0
  0
LINE
  8
0
 62
     0
 10
214.417
 20
30.3968
 30
0.0
 11
214.417
 21
27.2976
 31
0.0
  0
LINE
  8
0
 62
     0
 10
214.417
 20
27.2976
 30
0.0
 11
215.218
 21
27.2976
 31
0.0
  0
LINE
  8
0
 62
     0
 10
215.218
 20
27.2976
 30
0.0
 11
215.218
 21
21.4974
 31
0.0
  0
LINE
  8
0
 62
     0
 10
215.218
 20
21.4974
 30
0.0
 11
214.417
 21
21.4974
 31
0.0
  0
LINE
  8
0
 62
     0
 10
214.417
 20
21.4974
 30
0.0
 11
214.417
 21
18.3968
 31
0.0
  0
LINE
  8
0
 62
     0
 10
214.417
 20
18.3968
 30
0.0
 11
215.218
 21
18.3968
 31
0.0
  0
LINE
  8
0
 62
     0
 10
215.218
 20
18.3968
 30
0.0
 11
215.218
 21
17.3964
 31
0.0
  0
LINE
  8
0
 62
     0
 10
215.218
 20
17.3964
 30
0.0
 11
229.217
 21
17.3964
 31
0.0
  0
LINE
  8
0
 62
     0
 10
229.217
 20
17.3964
 30
0.0
 11
229.217
 21
18.3968
 31
0.0
  0
LINE
  8
0
 62
     0
 10
229.217
 20
18.3968
 30
0.0
 11
230.018
 21
18.3968
 31
0.0
  0
LINE
  8
0
 62
     0
 10
230.018
 20
18.3968
 30
0.0
 11
230.018
 21
21.4974
 31
0.0
  0
LINE
  8
0
 62
     0
 10
230.018
 20
21.4974
 30
0.0
 11
229.217
 21
21.4974
 31
0.0
  0
LINE
  8
0
 62
     0
 10
229.217
 20
21.4974
 30
0.0
 11
229.217
 21
27.2976
 31
0.0
  0
LINE
  8
0
 62
     0
 10
229.217
 20
27.2976
 30
0.0
 11
230.018
 21
27.2976
 31
0.0
  0
LINE
  8
0
 62
     0
 10
230.018
 20
27.2976
 30
0.0
 11
230.018
 21
30.3968
 31
0.0
  0
LINE
  8
0
 62
     0
 10
230.018
 20
30.3968
 30
0.0
 11
229.217
 21
30.3968
 31
0.0
  0
LINE
  8
0
 62
     0
 10
229.217
 20
30.3968
 30
0.0
 11
229.217
 21
31.3972
 31
0.0
  0
LINE
  8
0
 62
     0
 10
229.217
 20
31.3972
 30
0.0
 11
215.218
 21
31.3972
 31
0.0
  0
LINE
  8
0
 62
     0
 10
234.268
 20
31.3972
 30
0.0
 11
234.268
 21
30.3968
 31
0.0
  0
LINE
  8
0
 62
     0
 10
234.268
 20
30.3968
 30
0.0
 11
233.467
 21
30.3968
 31
0.0
  0
LINE
  8
0
 62
     0
 10
233.467
 20
30.3968
 30
0.0
 11
233.467
 21
27.2976
 31
0.0
  0
LINE
  8
0
 62
     0
 10
233.467
 20
27.2976
 30
0.0
 11
234.268
 21
27.2976
 31
0.0
  0
LINE
  8
0
 62
     0
 10
234.268
 20
27.2976
 30
0.0
 11
234.268
 21
21.4974
 31
0.0
  0
LINE
  8
0
 62
     0
 10
234.268
 20
21.4974
 30
0.0
 11
233.467
 21
21.4974
 31
0.0
  0
LINE
  8
0
 62
     0
 10
233.467
 20
21.4974
 30
0.0
 11
233.467
 21
18.3968
 31
0.0
  0
LINE
  8
0
 62
     0
 10
233.467
 20
18.3968
 30
0.0
 11
234.268
 21
18.3968
 31
0.0
  0
LINE
  8
0
 62
     0
 10
234.268
 20
18.3968
 30
0.0
 11
234.268
 21
17.3964
 31
0.0
  0
LINE
  8
0
 62
     0
 10
234.268
 20
17.3964
 30
0.0
 11
248.267
 21
17.3964
 31
0.0
  0
LINE
  8
0
 62
     0
 10
248.267
 20
17.3964
 30
0.0
 11
248.267
 21
18.3968
 31
0.0
  0
LINE
  8
0
 62
     0
 10
248.267
 20
18.3968
 30
0.0
 11
249.068
 21
18.3968
 31
0.0
  0
LINE
  8
0
 62
     0
 10
249.068
 20
18.3968
 30
0.0
 11
249.068
 21
21.4974
 31
0.0
  0
LINE
  8
0
 62
     0
 10
249.068
 20
21.4974
 30
0.0
 11
248.267
 21
21.4974
 31
0.0
  0
LINE
  8
0
 62
     0
 10
248.267
 20
21.4974
 30
0.0
 11
248.267
 21
27.2976
 31
0.0
  0
LINE
  8
0
 62
     0
 10
248.267
 20
27.2976
 30
0.0
 11
249.068
 21
27.2976
 31
0.0
  0
LINE
  8
0
 62
     0
 10
249.068
 20
27.2976
 30
0.0
 11
249.068
 21
30.3968
 31
0.0
  0
LINE
  8
0
 62
     0
 10
249.068
 20
30.3968
 30
0.0
 11
248.267
 21
30.3968
 31
0.0
  0
LINE
  8
0
 62
     0
 10
248.267
 20
30.3968
 30
0.0
 11
248.267
 21
31.3972
 31
0.0
  0
LINE
  8
0
 62
     0
 10
248.267
 20
31.3972
 30
0.0
 11
234.268
 21
31.3972
 31
0.0
  0
LINE
  8
0
 62
     0
 10
9.00134
 20
32.3494
 30
0.0
 11
9.00134
 21
31.3504
 31
0.0
  0
LINE
  8
0
 62
     0
 10
9.00134
 20
31.3504
 30
0.0
 11
8.20208
 21
31.3504
 31
0.0
  0
LINE
  8
0
 62
     0
 10
8.20208
 20
31.3504
 30
0.0
 11
8.20208
 21
28.2498
 31
0.0
  0
LINE
  8
0
 62
     0
 10
8.20208
 20
28.2498
 30
0.0
 11
9.00134
 21
28.2498
 31
0.0
  0
LINE
  8
0
 62
     0
 10
9.00134
 20
28.2498
 30
0.0
 11
9.00134
 21
22.4496
 31
0.0
  0
LINE
  8
0
 62
     0
 10
9.00134
 20
22.4496
 30
0.0
 11
8.20208
 21
22.4496
 31
0.0
  0
LINE
  8
0
 62
     0
 10
8.20208
 20
22.4496
 30
0.0
 11
8.20208
 21
19.3504
 31
0.0
  0
LINE
  8
0
 62
     0
 10
8.20208
 20
19.3504
 30
0.0
 11
9.00134
 21
19.3504
 31
0.0
  0
LINE
  8
0
 62
     0
 10
9.00134
 20
19.3504
 30
0.0
 11
9.00134
 21
18.3499
 31
0.0
  0
LINE
  8
0
 62
     0
 10
9.00134
 20
18.3499
 30
0.0
 11
23.0008
 21
18.3499
 31
0.0
  0
LINE
  8
0
 62
     0
 10
23.0008
 20
18.3499
 30
0.0
 11
23.0008
 21
19.3504
 31
0.0
  0
LINE
  8
0
 62
     0
 10
23.0008
 20
19.3504
 30
0.0
 11
23.8015
 21
19.3504
 31
0.0
  0
LINE
  8
0
 62
     0
 10
23.8015
 20
19.3504
 30
0.0
 11
23.8015
 21
22.4496
 31
0.0
  0
LINE
  8
0
 62
     0
 10
23.8015
 20
22.4496
 30
0.0
 11
23.0008
 21
22.4496
 31
0.0
  0
LINE
  8
0
 62
     0
 10
23.0008
 20
22.4496
 30
0.0
 11
23.0008
 21
28.2498
 31
0.0
  0
LINE
  8
0
 62
     0
 10
23.0008
 20
28.2498
 30
0.0
 11
23.8015
 21
28.2498
 31
0.0
  0
LINE
  8
0
 62
     0
 10
23.8015
 20
28.2498
 30
0.0
 11
23.8015
 21
31.3504
 31
0.0
  0
LINE
  8
0
 62
     0
 10
23.8015
 20
31.3504
 30
0.0
 11
23.0008
 21
31.3504
 31
0.0
  0
LINE
  8
0
 62
     0
 10
23.0008
 20
31.3504
 30
0.0
 11
23.0008
 21
32.3494
 31
0.0
  0
LINE
  8
0
 62
     0
 10
23.0008
 20
32.3494
 30
0.0
 11
9.00134
 21
32.3494
 31
0.0
  0
LINE
  8
0
 62
     0
 10
113.782
 20
41.9407
 30
0.0
 11
113.852
 21
40.9444
 31
0.0
  0
LINE
  8
0
 62
     0
 10
113.852
 20
40.9444
 30
0.0
 11
113.053
 21
40.8877
 31
0.0
  0
LINE
  8
0
 62
     0
 10
113.053
 20
40.8877
 30
0.0
 11
113.269
 21
37.7941
 31
0.0
  0
LINE
  8
0
 62
     0
 10
113.269
 20
37.7941
 30
0.0
 11
114.067
 21
37.8506
 31
0.0
  0
LINE
  8
0
 62
     0
 10
114.067
 20
37.8506
 30
0.0
 11
114.471
 21
32.0642
 31
0.0
  0
LINE
  8
0
 62
     0
 10
114.471
 20
32.0642
 30
0.0
 11
113.673
 21
32.0091
 31
0.0
  0
LINE
  8
0
 62
     0
 10
113.673
 20
32.0091
 30
0.0
 11
113.891
 21
28.9168
 31
0.0
  0
LINE
  8
0
 62
     0
 10
113.891
 20
28.9168
 30
0.0
 11
114.689
 21
28.9733
 31
0.0
  0
LINE
  8
0
 62
     0
 10
114.689
 20
28.9733
 30
0.0
 11
114.758
 21
27.9742
 31
0.0
  0
LINE
  8
0
 62
     0
 10
114.758
 20
27.9742
 30
0.0
 11
128.724
 21
28.9512
 31
0.0
  0
LINE
  8
0
 62
     0
 10
128.724
 20
28.9512
 30
0.0
 11
128.654
 21
29.9489
 31
0.0
  0
LINE
  8
0
 62
     0
 10
128.654
 20
29.9489
 30
0.0
 11
129.453
 21
30.0054
 31
0.0
  0
LINE
  8
0
 62
     0
 10
129.453
 20
30.0054
 30
0.0
 11
129.235
 21
33.0977
 31
0.0
  0
LINE
  8
0
 62
     0
 10
129.235
 20
33.0977
 30
0.0
 11
128.437
 21
33.0412
 31
0.0
  0
LINE
  8
0
 62
     0
 10
128.437
 20
33.0412
 30
0.0
 11
128.034
 21
38.8278
 31
0.0
  0
LINE
  8
0
 62
     0
 10
128.034
 20
38.8278
 30
0.0
 11
128.831
 21
38.8842
 31
0.0
  0
LINE
  8
0
 62
     0
 10
128.831
 20
38.8842
 30
0.0
 11
128.615
 21
41.9763
 31
0.0
  0
LINE
  8
0
 62
     0
 10
128.615
 20
41.9763
 30
0.0
 11
127.817
 21
41.9199
 31
0.0
  0
LINE
  8
0
 62
     0
 10
127.817
 20
41.9199
 30
0.0
 11
127.747
 21
42.9175
 31
0.0
  0
LINE
  8
0
 62
     0
 10
127.747
 20
42.9175
 30
0.0
 11
113.782
 21
41.9407
 31
0.0
  0
LINE
  8
0
 62
     0
 10
94.4107
 20
41.9806
 30
0.0
 11
93.6128
 21
42.0356
 31
0.0
  0
LINE
  8
0
 62
     0
 10
93.6128
 20
42.0356
 30
0.0
 11
93.3965
 21
38.9435
 31
0.0
  0
LINE
  8
0
 62
     0
 10
93.3965
 20
38.9435
 30
0.0
 11
94.1945
 21
38.8881
 31
0.0
  0
LINE
  8
0
 62
     0
 10
94.1945
 20
38.8881
 30
0.0
 11
93.7892
 21
33.1018
 31
0.0
  0
LINE
  8
0
 62
     0
 10
93.7892
 20
33.1018
 30
0.0
 11
92.9915
 21
33.1584
 31
0.0
  0
LINE
  8
0
 62
     0
 10
92.9915
 20
33.1584
 30
0.0
 11
92.7749
 21
30.0661
 31
0.0
  0
LINE
  8
0
 62
     0
 10
92.7749
 20
30.0661
 30
0.0
 11
93.5729
 21
30.0095
 31
0.0
  0
LINE
  8
0
 62
     0
 10
93.5729
 20
30.0095
 30
0.0
 11
93.5041
 21
29.0118
 31
0.0
  0
LINE
  8
0
 62
     0
 10
93.5041
 20
29.0118
 30
0.0
 11
107.469
 21
28.0362
 31
0.0
  0
LINE
  8
0
 62
     0
 10
107.469
 20
28.0362
 30
0.0
 11
107.539
 21
29.0325
 31
0.0
  0
LINE
  8
0
 62
     0
 10
107.539
 20
29.0325
 30
0.0
 11
108.337
 21
28.9774
 31
0.0
  0
LINE
  8
0
 62
     0
 10
108.337
 20
28.9774
 30
0.0
 11
108.554
 21
32.0697
 31
0.0
  0
LINE
  8
0
 62
     0
 10
108.554
 20
32.0697
 30
0.0
 11
107.756
 21
32.1262
 31
0.0
  0
LINE
  8
0
 62
     0
 10
107.756
 20
32.1262
 30
0.0
 11
108.161
 21
37.9113
 31
0.0
  0
LINE
  8
0
 62
     0
 10
108.161
 20
37.9113
 30
0.0
 11
108.959
 21
37.8562
 31
0.0
  0
LINE
  8
0
 62
     0
 10
108.959
 20
37.8562
 30
0.0
 11
109.175
 21
40.9483
 31
0.0
  0
LINE
  8
0
 62
     0
 10
109.175
 20
40.9483
 30
0.0
 11
108.376
 21
41.0034
 31
0.0
  0
LINE
  8
0
 62
     0
 10
108.376
 20
41.0034
 30
0.0
 11
108.446
 21
42.0014
 31
0.0
  0
LINE
  8
0
 62
     0
 10
108.446
 20
42.0014
 30
0.0
 11
94.4809
 21
42.9782
 31
0.0
  0
LINE
  8
0
 62
     0
 10
94.4809
 20
42.9782
 30
0.0
 11
94.4107
 21
41.9806
 31
0.0
  0
LINE
  8
0
 62
     0
 10
75.4973
 20
44.5781
 30
0.0
 11
74.7088
 21
44.7174
 31
0.0
  0
LINE
  8
0
 62
     0
 10
74.7088
 20
44.7174
 30
0.0
 11
74.1715
 21
41.6648
 31
0.0
  0
LINE
  8
0
 62
     0
 10
74.1715
 20
41.6648
 30
0.0
 11
74.9596
 21
41.5258
 31
0.0
  0
LINE
  8
0
 62
     0
 10
74.9596
 20
41.5258
 30
0.0
 11
73.9525
 21
35.814
 31
0.0
  0
LINE
  8
0
 62
     0
 10
73.9525
 20
35.814
 30
0.0
 11
73.1643
 21
35.953
 31
0.0
  0
LINE
  8
0
 62
     0
 10
73.1643
 20
35.953
 30
0.0
 11
72.6253
 21
32.8993
 31
0.0
  0
LINE
  8
0
 62
     0
 10
72.6253
 20
32.8993
 30
0.0
 11
73.4138
 21
32.7601
 31
0.0
  0
LINE
  8
0
 62
     0
 10
73.4138
 20
32.7601
 30
0.0
 11
73.2398
 21
31.7762
 31
0.0
  0
LINE
  8
0
 62
     0
 10
73.2398
 20
31.7762
 30
0.0
 11
87.0271
 21
29.3453
 31
0.0
  0
LINE
  8
0
 62
     0
 10
87.0271
 20
29.3453
 30
0.0
 11
87.201
 21
30.3293
 31
0.0
  0
LINE
  8
0
 62
     0
 10
87.201
 20
30.3293
 30
0.0
 11
87.9891
 21
30.1901
 31
0.0
  0
LINE
  8
0
 62
     0
 10
87.9891
 20
30.1901
 30
0.0
 11
88.5278
 21
33.2438
 31
0.0
  0
LINE
  8
0
 62
     0
 10
88.5278
 20
33.2438
 30
0.0
 11
87.7397
 21
33.383
 31
0.0
  0
LINE
  8
0
 62
     0
 10
87.7397
 20
33.383
 30
0.0
 11
88.7469
 21
39.0948
 31
0.0
  0
LINE
  8
0
 62
     0
 10
88.7469
 20
39.0948
 30
0.0
 11
89.5339
 21
38.9558
 31
0.0
  0
LINE
  8
0
 62
     0
 10
89.5339
 20
38.9558
 30
0.0
 11
90.0726
 21
42.0081
 31
0.0
  0
LINE
  8
0
 62
     0
 10
90.0726
 20
42.0081
 30
0.0
 11
89.2845
 21
42.1474
 31
0.0
  0
LINE
  8
0
 62
     0
 10
89.2845
 20
42.1474
 30
0.0
 11
89.4581
 21
43.1327
 31
0.0
  0
LINE
  8
0
 62
     0
 10
89.4581
 20
43.1327
 30
0.0
 11
75.6708
 21
45.5634
 31
0.0
  0
LINE
  8
0
 62
     0
 10
75.6708
 20
45.5634
 30
0.0
 11
75.4973
 21
44.5781
 31
0.0
  0
LINE
  8
0
 62
     0
 10
133.029
 20
43.3987
 30
0.0
 11
133.186
 21
42.412
 31
0.0
  0
LINE
  8
0
 62
     0
 10
133.186
 20
42.412
 30
0.0
 11
132.395
 21
42.285
 31
0.0
  0
LINE
  8
0
 62
     0
 10
132.395
 20
42.285
 30
0.0
 11
132.88
 21
39.2247
 31
0.0
  0
LINE
  8
0
 62
     0
 10
132.88
 20
39.2247
 30
0.0
 11
133.671
 21
39.3499
 31
0.0
  0
LINE
  8
0
 62
     0
 10
133.671
 20
39.3499
 30
0.0
 11
134.578
 21
33.6214
 31
0.0
  0
LINE
  8
0
 62
     0
 10
134.578
 20
33.6214
 30
0.0
 11
133.787
 21
33.496
 31
0.0
  0
LINE
  8
0
 62
     0
 10
133.787
 20
33.496
 30
0.0
 11
134.272
 21
30.434
 31
0.0
  0
LINE
  8
0
 62
     0
 10
134.272
 20
30.434
 30
0.0
 11
135.063
 21
30.5594
 31
0.0
  0
LINE
  8
0
 62
     0
 10
135.063
 20
30.5594
 30
0.0
 11
135.219
 21
29.5713
 31
0.0
  0
LINE
  8
0
 62
     0
 10
135.219
 20
29.5713
 30
0.0
 11
149.046
 21
31.7624
 31
0.0
  0
LINE
  8
0
 62
     0
 10
149.046
 20
31.7624
 30
0.0
 11
148.89
 21
32.7491
 31
0.0
  0
LINE
  8
0
 62
     0
 10
148.89
 20
32.7491
 30
0.0
 11
149.681
 21
32.8745
 31
0.0
  0
LINE
  8
0
 62
     0
 10
149.681
 20
32.8745
 30
0.0
 11
149.196
 21
35.935
 31
0.0
  0
LINE
  8
0
 62
     0
 10
149.196
 20
35.935
 30
0.0
 11
148.405
 21
35.8112
 31
0.0
  0
LINE
  8
0
 62
     0
 10
148.405
 20
35.8112
 30
0.0
 11
147.497
 21
41.5396
 31
0.0
  0
LINE
  8
0
 62
     0
 10
147.497
 20
41.5396
 30
0.0
 11
148.288
 21
41.6648
 31
0.0
  0
LINE
  8
0
 62
     0
 10
148.288
 20
41.6648
 30
0.0
 11
147.803
 21
44.7269
 31
0.0
  0
LINE
  8
0
 62
     0
 10
147.803
 20
44.7269
 30
0.0
 11
147.012
 21
44.6017
 31
0.0
  0
LINE
  8
0
 62
     0
 10
147.012
 20
44.6017
 30
0.0
 11
146.856
 21
45.5884
 31
0.0
  0
LINE
  8
0
 62
     0
 10
146.856
 20
45.5884
 30
0.0
 11
133.029
 21
43.3987
 31
0.0
  0
LINE
  8
0
 62
     0
 10
151.89
 20
46.0389
 30
0.0
 11
152.082
 21
45.0578
 31
0.0
  0
LINE
  8
0
 62
     0
 10
152.082
 20
45.0578
 30
0.0
 11
151.295
 21
44.9047
 31
0.0
  0
LINE
  8
0
 62
     0
 10
151.295
 20
44.9047
 30
0.0
 11
151.887
 21
41.862
 31
0.0
  0
LINE
  8
0
 62
     0
 10
151.887
 20
41.862
 30
0.0
 11
152.673
 21
42.0151
 31
0.0
  0
LINE
  8
0
 62
     0
 10
152.673
 20
42.0151
 30
0.0
 11
153.779
 21
36.3209
 31
0.0
  0
LINE
  8
0
 62
     0
 10
153.779
 20
36.3209
 30
0.0
 11
152.994
 21
36.1692
 31
0.0
  0
LINE
  8
0
 62
     0
 10
152.994
 20
36.1692
 30
0.0
 11
153.585
 21
33.1253
 31
0.0
  0
LINE
  8
0
 62
     0
 10
153.585
 20
33.1253
 30
0.0
 11
154.371
 21
33.2782
 31
0.0
  0
LINE
  8
0
 62
     0
 10
154.371
 20
33.2782
 30
0.0
 11
154.562
 21
32.2971
 31
0.0
  0
LINE
  8
0
 62
     0
 10
154.562
 20
32.2971
 30
0.0
 11
168.304
 21
34.9677
 31
0.0
  0
LINE
  8
0
 62
     0
 10
168.304
 20
34.9677
 30
0.0
 11
168.114
 21
35.9502
 31
0.0
  0
LINE
  8
0
 62
     0
 10
168.114
 20
35.9502
 30
0.0
 11
168.898
 21
36.1019
 31
0.0
  0
LINE
  8
0
 62
     0
 10
168.898
 20
36.1019
 30
0.0
 11
168.308
 21
39.1446
 31
0.0
  0
LINE
  8
0
 62
     0
 10
168.308
 20
39.1446
 30
0.0
 11
167.523
 21
38.9929
 31
0.0
  0
LINE
  8
0
 62
     0
 10
167.523
 20
38.9929
 30
0.0
 11
166.416
 21
44.6857
 31
0.0
  0
LINE
  8
0
 62
     0
 10
166.416
 20
44.6857
 30
0.0
 11
167.2
 21
44.8388
 31
0.0
  0
LINE
  8
0
 62
     0
 10
167.2
 20
44.8388
 30
0.0
 11
166.609
 21
47.8815
 31
0.0
  0
LINE
  8
0
 62
     0
 10
166.609
 20
47.8815
 30
0.0
 11
165.824
 21
47.7284
 31
0.0
  0
LINE
  8
0
 62
     0
 10
165.824
 20
47.7284
 30
0.0
 11
165.633
 21
48.7109
 31
0.0
  0
LINE
  8
0
 62
     0
 10
165.633
 20
48.7109
 30
0.0
 11
151.89
 21
46.0389
 31
0.0
  0
LINE
  8
0
 62
     0
 10
56.5217
 20
48.9327
 30
0.0
 11
55.7332
 21
49.0707
 31
0.0
  0
LINE
  8
0
 62
     0
 10
55.7332
 20
49.0707
 30
0.0
 11
55.196
 21
46.0181
 31
0.0
  0
LINE
  8
0
 62
     0
 10
55.196
 20
46.0181
 30
0.0
 11
55.9827
 21
45.8805
 31
0.0
  0
LINE
  8
0
 62
     0
 10
55.9827
 20
45.8805
 30
0.0
 11
54.9755
 21
40.1669
 31
0.0
  0
LINE
  8
0
 62
     0
 10
54.9755
 20
40.1669
 30
0.0
 11
54.1874
 21
40.3063
 31
0.0
  0
LINE
  8
0
 62
     0
 10
54.1874
 20
40.3063
 30
0.0
 11
53.6497
 21
37.254
 31
0.0
  0
LINE
  8
0
 62
     0
 10
53.6497
 20
37.254
 30
0.0
 11
54.4382
 21
37.1147
 31
0.0
  0
LINE
  8
0
 62
     0
 10
54.4382
 20
37.1147
 30
0.0
 11
54.2629
 21
36.1294
 31
0.0
  0
LINE
  8
0
 62
     0
 10
54.2629
 20
36.1294
 30
0.0
 11
68.0515
 21
33.6985
 31
0.0
  0
LINE
  8
0
 62
     0
 10
68.0515
 20
33.6985
 30
0.0
 11
68.224
 21
34.6838
 31
0.0
  0
LINE
  8
0
 62
     0
 10
68.224
 20
34.6838
 30
0.0
 11
69.0122
 21
34.5447
 31
0.0
  0
LINE
  8
0
 62
     0
 10
69.0122
 20
34.5447
 30
0.0
 11
69.5508
 21
37.5984
 31
0.0
  0
LINE
  8
0
 62
     0
 10
69.5508
 20
37.5984
 30
0.0
 11
68.7641
 21
37.7377
 31
0.0
  0
LINE
  8
0
 62
     0
 10
68.7641
 20
37.7377
 30
0.0
 11
69.7699
 21
43.4481
 31
0.0
  0
LINE
  8
0
 62
     0
 10
69.7699
 20
43.4481
 30
0.0
 11
70.5584
 21
43.3105
 31
0.0
  0
LINE
  8
0
 62
     0
 10
70.5584
 20
43.3105
 30
0.0
 11
71.0971
 21
46.3628
 31
0.0
  0
LINE
  8
0
 62
     0
 10
71.0971
 20
46.3628
 30
0.0
 11
70.309
 21
46.5007
 31
0.0
  0
LINE
  8
0
 62
     0
 10
70.309
 20
46.5007
 30
0.0
 11
70.4825
 21
47.4857
 31
0.0
  0
LINE
  8
0
 62
     0
 10
70.4825
 20
47.4857
 30
0.0
 11
56.6939
 21
49.9166
 31
0.0
  0
LINE
  8
0
 62
     0
 10
56.6939
 20
49.9166
 30
0.0
 11
56.5217
 21
48.9327
 31
0.0
  0
LINE
  8
0
 62
     0
 10
171.555
 20
49.9223
 30
0.0
 11
171.676
 21
48.9313
 31
0.0
  0
LINE
  8
0
 62
     0
 10
171.676
 20
48.9313
 30
0.0
 11
170.881
 21
48.8322
 31
0.0
  0
LINE
  8
0
 62
     0
 10
170.881
 20
48.8322
 30
0.0
 11
171.26
 21
45.7563
 31
0.0
  0
LINE
  8
0
 62
     0
 10
171.26
 20
45.7563
 30
0.0
 11
172.054
 21
45.8541
 31
0.0
  0
LINE
  8
0
 62
     0
 10
172.054
 20
45.8541
 30
0.0
 11
172.761
 21
40.0967
 31
0.0
  0
LINE
  8
0
 62
     0
 10
172.761
 20
40.0967
 30
0.0
 11
171.967
 21
40.0004
 31
0.0
  0
LINE
  8
0
 62
     0
 10
171.967
 20
40.0004
 30
0.0
 11
172.344
 21
36.9231
 31
0.0
  0
LINE
  8
0
 62
     0
 10
172.344
 20
36.9231
 30
0.0
 11
173.138
 21
37.0198
 31
0.0
  0
LINE
  8
0
 62
     0
 10
173.138
 20
37.0198
 30
0.0
 11
173.261
 21
36.0274
 31
0.0
  0
LINE
  8
0
 62
     0
 10
173.261
 20
36.0274
 30
0.0
 11
187.156
 21
37.7349
 31
0.0
  0
LINE
  8
0
 62
     0
 10
187.156
 20
37.7349
 30
0.0
 11
187.034
 21
38.7255
 31
0.0
  0
LINE
  8
0
 62
     0
 10
187.034
 20
38.7255
 30
0.0
 11
187.828
 21
38.8235
 31
0.0
  0
LINE
  8
0
 62
     0
 10
187.828
 20
38.8235
 30
0.0
 11
187.45
 21
41.9005
 31
0.0
  0
LINE
  8
0
 62
     0
 10
187.45
 20
41.9005
 30
0.0
 11
186.656
 21
41.8028
 31
0.0
  0
LINE
  8
0
 62
     0
 10
186.656
 20
41.8028
 30
0.0
 11
185.95
 21
47.5601
 31
0.0
  0
LINE
  8
0
 62
     0
 10
185.95
 20
47.5601
 30
0.0
 11
186.744
 21
47.6567
 31
0.0
  0
LINE
  8
0
 62
     0
 10
186.744
 20
47.6567
 30
0.0
 11
186.366
 21
50.734
 31
0.0
  0
LINE
  8
0
 62
     0
 10
186.366
 20
50.734
 30
0.0
 11
185.572
 21
50.6374
 31
0.0
  0
LINE
  8
0
 62
     0
 10
185.572
 20
50.6374
 30
0.0
 11
185.45
 21
51.6283
 31
0.0
  0
LINE
  8
0
 62
     0
 10
185.45
 20
51.6283
 30
0.0
 11
171.555
 21
49.9223
 31
0.0
  0
LINE
  8
0
 62
     0
 10
214.266
 20
50.4472
 30
0.0
 11
214.266
 21
49.4467
 31
0.0
  0
LINE
  8
0
 62
     0
 10
214.266
 20
49.4467
 30
0.0
 11
213.465
 21
49.4467
 31
0.0
  0
LINE
  8
0
 62
     0
 10
213.465
 20
49.4467
 30
0.0
 11
213.465
 21
46.3462
 31
0.0
  0
LINE
  8
0
 62
     0
 10
213.465
 20
46.3462
 30
0.0
 11
214.266
 21
46.3462
 31
0.0
  0
LINE
  8
0
 62
     0
 10
214.266
 20
46.3462
 30
0.0
 11
214.266
 21
40.5476
 31
0.0
  0
LINE
  8
0
 62
     0
 10
214.266
 20
40.5476
 30
0.0
 11
213.465
 21
40.5476
 31
0.0
  0
LINE
  8
0
 62
     0
 10
213.465
 20
40.5476
 30
0.0
 11
213.465
 21
37.4467
 31
0.0
  0
LINE
  8
0
 62
     0
 10
213.465
 20
37.4467
 30
0.0
 11
214.266
 21
37.4467
 31
0.0
  0
LINE
  8
0
 62
     0
 10
214.266
 20
37.4467
 30
0.0
 11
214.266
 21
36.4465
 31
0.0
  0
LINE
  8
0
 62
     0
 10
214.266
 20
36.4465
 30
0.0
 11
228.265
 21
36.4465
 31
0.0
  0
LINE
  8
0
 62
     0
 10
228.265
 20
36.4465
 30
0.0
 11
228.265
 21
37.4467
 31
0.0
  0
LINE
  8
0
 62
     0
 10
228.265
 20
37.4467
 30
0.0
 11
229.066
 21
37.4467
 31
0.0
  0
LINE
  8
0
 62
     0
 10
229.066
 20
37.4467
 30
0.0
 11
229.066
 21
40.5476
 31
0.0
  0
LINE
  8
0
 62
     0
 10
229.066
 20
40.5476
 30
0.0
 11
228.265
 21
40.5476
 31
0.0
  0
LINE
  8
0
 62
     0
 10
228.265
 20
40.5476
 30
0.0
 11
228.265
 21
46.3462
 31
0.0
  0
LINE
  8
0
 62
     0
 10
228.265
 20
46.3462
 30
0.0
 11
229.066
 21
46.3462
 31
0.0
  0
LINE
  8
0
 62
     0
 10
229.066
 20
46.3462
 30
0.0
 11
229.066
 21
49.4467
 31
0.0
  0
LINE
  8
0
 62
     0
 10
229.066
 20
49.4467
 30
0.0
 11
228.265
 21
49.4467
 31
0.0
  0
LINE
  8
0
 62
     0
 10
228.265
 20
49.4467
 30
0.0
 11
228.265
 21
50.4472
 31
0.0
  0
LINE
  8
0
 62
     0
 10
228.265
 20
50.4472
 30
0.0
 11
214.266
 21
50.4472
 31
0.0
  0
LINE
  8
0
 62
     0
 10
36.8074
 20
51.7606
 30
0.0
 11
36.0123
 21
51.8446
 31
0.0
  0
LINE
  8
0
 62
     0
 10
36.0123
 20
51.8446
 30
0.0
 11
35.6884
 21
48.762
 31
0.0
  0
LINE
  8
0
 62
     0
 10
35.6884
 20
48.762
 30
0.0
 11
36.4836
 21
48.6777
 31
0.0
  0
LINE
  8
0
 62
     0
 10
36.4836
 20
48.6777
 30
0.0
 11
35.8771
 21
42.9094
 31
0.0
  0
LINE
  8
0
 62
     0
 10
35.8771
 20
42.9094
 30
0.0
 11
35.0821
 21
42.9934
 31
0.0
  0
LINE
  8
0
 62
     0
 10
35.0821
 20
42.9934
 30
0.0
 11
34.7569
 21
39.9108
 31
0.0
  0
LINE
  8
0
 62
     0
 10
34.7569
 20
39.9108
 30
0.0
 11
35.5533
 21
39.8268
 31
0.0
  0
LINE
  8
0
 62
     0
 10
35.5533
 20
39.8268
 30
0.0
 11
35.4485
 21
38.8331
 31
0.0
  0
LINE
  8
0
 62
     0
 10
35.4485
 20
38.8331
 30
0.0
 11
49.3723
 21
37.3683
 31
0.0
  0
LINE
  8
0
 62
     0
 10
49.3723
 20
37.3683
 30
0.0
 11
49.4771
 21
38.3632
 31
0.0
  0
LINE
  8
0
 62
     0
 10
49.4771
 20
38.3632
 30
0.0
 11
50.2722
 21
38.2792
 31
0.0
  0
LINE
  8
0
 62
     0
 10
50.2722
 20
38.2792
 30
0.0
 11
50.5961
 21
41.3632
 31
0.0
  0
LINE
  8
0
 62
     0
 10
50.5961
 20
41.3632
 30
0.0
 11
49.8009
 21
41.4472
 31
0.0
  0
LINE
  8
0
 62
     0
 10
49.8009
 20
41.4472
 30
0.0
 11
50.4074
 21
47.2144
 31
0.0
  0
LINE
  8
0
 62
     0
 10
50.4074
 20
47.2144
 30
0.0
 11
51.2025
 21
47.1304
 31
0.0
  0
LINE
  8
0
 62
     0
 10
51.2025
 20
47.1304
 30
0.0
 11
51.5264
 21
50.2144
 31
0.0
  0
LINE
  8
0
 62
     0
 10
51.5264
 20
50.2144
 30
0.0
 11
50.7312
 21
50.2984
 31
0.0
  0
LINE
  8
0
 62
     0
 10
50.7312
 20
50.2984
 30
0.0
 11
50.836
 21
51.2921
 31
0.0
  0
LINE
  8
0
 62
     0
 10
50.836
 20
51.2921
 30
0.0
 11
36.9122
 21
52.7554
 31
0.0
  0
LINE
  8
0
 62
     0
 10
36.9122
 20
52.7554
 30
0.0
 11
36.8074
 21
51.7606
 31
0.0
  0
LINE
  8
0
 62
     0
 10
192.358
 20
51.9712
 30
0.0
 11
192.358
 21
50.9707
 31
0.0
  0
LINE
  8
0
 62
     0
 10
192.358
 20
50.9707
 30
0.0
 11
191.557
 21
50.9707
 31
0.0
  0
LINE
  8
0
 62
     0
 10
191.557
 20
50.9707
 30
0.0
 11
191.557
 21
47.8702
 31
0.0
  0
LINE
  8
0
 62
     0
 10
191.557
 20
47.8702
 30
0.0
 11
192.358
 21
47.8702
 31
0.0
  0
LINE
  8
0
 62
     0
 10
192.358
 20
47.8702
 30
0.0
 11
192.358
 21
42.0702
 31
0.0
  0
LINE
  8
0
 62
     0
 10
192.358
 20
42.0702
 30
0.0
 11
191.557
 21
42.0702
 31
0.0
  0
LINE
  8
0
 62
     0
 10
191.557
 20
42.0702
 30
0.0
 11
191.557
 21
38.971
 31
0.0
  0
LINE
  8
0
 62
     0
 10
191.557
 20
38.971
 30
0.0
 11
192.358
 21
38.971
 31
0.0
  0
LINE
  8
0
 62
     0
 10
192.358
 20
38.971
 30
0.0
 11
192.358
 21
37.9705
 31
0.0
  0
LINE
  8
0
 62
     0
 10
192.358
 20
37.9705
 30
0.0
 11
206.357
 21
37.9705
 31
0.0
  0
LINE
  8
0
 62
     0
 10
206.357
 20
37.9705
 30
0.0
 11
206.357
 21
38.971
 31
0.0
  0
LINE
  8
0
 62
     0
 10
206.357
 20
38.971
 30
0.0
 11
207.158
 21
38.971
 31
0.0
  0
LINE
  8
0
 62
     0
 10
207.158
 20
38.971
 30
0.0
 11
207.158
 21
42.0702
 31
0.0
  0
LINE
  8
0
 62
     0
 10
207.158
 20
42.0702
 30
0.0
 11
206.357
 21
42.0702
 31
0.0
  0
LINE
  8
0
 62
     0
 10
206.357
 20
42.0702
 30
0.0
 11
206.357
 21
47.8702
 31
0.0
  0
LINE
  8
0
 62
     0
 10
206.357
 20
47.8702
 30
0.0
 11
207.158
 21
47.8702
 31
0.0
  0
LINE
  8
0
 62
     0
 10
207.158
 20
47.8702
 30
0.0
 11
207.158
 21
50.9707
 31
0.0
  0
LINE
  8
0
 62
     0
 10
207.158
 20
50.9707
 30
0.0
 11
206.357
 21
50.9707
 31
0.0
  0
LINE
  8
0
 62
     0
 10
206.357
 20
50.9707
 30
0.0
 11
206.357
 21
51.9712
 31
0.0
  0
LINE
  8
0
 62
     0
 10
206.357
 20
51.9712
 30
0.0
 11
192.358
 21
51.9712
 31
0.0
  0
LINE
  8
0
 62
     0
 10
11.3812
 20
52.3515
 30
0.0
 11
11.3812
 21
51.3514
 31
0.0
  0
LINE
  8
0
 62
     0
 10
11.3812
 20
51.3514
 30
0.0
 11
10.582
 21
51.3514
 31
0.0
  0
LINE
  8
0
 62
     0
 10
10.582
 20
51.3514
 30
0.0
 11
10.582
 21
48.2519
 31
0.0
  0
LINE
  8
0
 62
     0
 10
10.582
 20
48.2519
 30
0.0
 11
11.3812
 21
48.2519
 31
0.0
  0
LINE
  8
0
 62
     0
 10
11.3812
 20
48.2519
 30
0.0
 11
11.3812
 21
42.4519
 31
0.0
  0
LINE
  8
0
 62
     0
 10
11.3812
 20
42.4519
 30
0.0
 11
10.582
 21
42.4519
 31
0.0
  0
LINE
  8
0
 62
     0
 10
10.582
 20
42.4519
 30
0.0
 11
10.582
 21
39.3513
 31
0.0
  0
LINE
  8
0
 62
     0
 10
10.582
 20
39.3513
 30
0.0
 11
11.3812
 21
39.3513
 31
0.0
  0
LINE
  8
0
 62
     0
 10
11.3812
 20
39.3513
 30
0.0
 11
11.3812
 21
38.3522
 31
0.0
  0
LINE
  8
0
 62
     0
 10
11.3812
 20
38.3522
 30
0.0
 11
25.3821
 21
38.3522
 31
0.0
  0
LINE
  8
0
 62
     0
 10
25.3821
 20
38.3522
 30
0.0
 11
25.3821
 21
39.3513
 31
0.0
  0
LINE
  8
0
 62
     0
 10
25.3821
 20
39.3513
 30
0.0
 11
26.1827
 21
39.3513
 31
0.0
  0
LINE
  8
0
 62
     0
 10
26.1827
 20
39.3513
 30
0.0
 11
26.1827
 21
42.4519
 31
0.0
  0
LINE
  8
0
 62
     0
 10
26.1827
 20
42.4519
 30
0.0
 11
25.3821
 21
42.4519
 31
0.0
  0
LINE
  8
0
 62
     0
 10
25.3821
 20
42.4519
 30
0.0
 11
25.3821
 21
48.2519
 31
0.0
  0
LINE
  8
0
 62
     0
 10
25.3821
 20
48.2519
 30
0.0
 11
26.1827
 21
48.2519
 31
0.0
  0
LINE
  8
0
 62
     0
 10
26.1827
 20
48.2519
 30
0.0
 11
26.1827
 21
51.3514
 31
0.0
  0
LINE
  8
0
 62
     0
 10
26.1827
 20
51.3514
 30
0.0
 11
25.3821
 21
51.3514
 31
0.0
  0
LINE
  8
0
 62
     0
 10
25.3821
 20
51.3514
 30
0.0
 11
25.3821
 21
52.3515
 31
0.0
  0
LINE
  8
0
 62
     0
 10
25.3821
 20
52.3515
 30
0.0
 11
11.3812
 21
52.3515
 31
0.0
  0
LINE
  8
0
 62
     0
 10
235.22
 20
52.3515
 30
0.0
 11
235.22
 21
51.3514
 31
0.0
  0
LINE
  8
0
 62
     0
 10
235.22
 20
51.3514
 30
0.0
 11
234.421
 21
51.3514
 31
0.0
  0
LINE
  8
0
 62
     0
 10
234.421
 20
51.3514
 30
0.0
 11
234.421
 21
48.2519
 31
0.0
  0
LINE
  8
0
 62
     0
 10
234.421
 20
48.2519
 30
0.0
 11
235.22
 21
48.2519
 31
0.0
  0
LINE
  8
0
 62
     0
 10
235.22
 20
48.2519
 30
0.0
 11
235.22
 21
42.4519
 31
0.0
  0
LINE
  8
0
 62
     0
 10
235.22
 20
42.4519
 30
0.0
 11
234.421
 21
42.4519
 31
0.0
  0
LINE
  8
0
 62
     0
 10
234.421
 20
42.4519
 30
0.0
 11
234.421
 21
39.3513
 31
0.0
  0
LINE
  8
0
 62
     0
 10
234.421
 20
39.3513
 30
0.0
 11
235.22
 21
39.3513
 31
0.0
  0
LINE
  8
0
 62
     0
 10
235.22
 20
39.3513
 30
0.0
 11
235.22
 21
38.3522
 31
0.0
  0
LINE
  8
0
 62
     0
 10
235.22
 20
38.3522
 30
0.0
 11
249.221
 21
38.3522
 31
0.0
  0
LINE
  8
0
 62
     0
 10
249.221
 20
38.3522
 30
0.0
 11
249.221
 21
39.3513
 31
0.0
  0
LINE
  8
0
 62
     0
 10
249.221
 20
39.3513
 30
0.0
 11
250.02
 21
39.3513
 31
0.0
  0
LINE
  8
0
 62
     0
 10
250.02
 20
39.3513
 30
0.0
 11
250.02
 21
42.4519
 31
0.0
  0
LINE
  8
0
 62
     0
 10
250.02
 20
42.4519
 30
0.0
 11
249.221
 21
42.4519
 31
0.0
  0
LINE
  8
0
 62
     0
 10
249.221
 20
42.4519
 30
0.0
 11
249.221
 21
48.2519
 31
0.0
  0
LINE
  8
0
 62
     0
 10
249.221
 20
48.2519
 30
0.0
 11
250.02
 21
48.2519
 31
0.0
  0
LINE
  8
0
 62
     0
 10
250.02
 20
48.2519
 30
0.0
 11
250.02
 21
51.3514
 31
0.0
  0
LINE
  8
0
 62
     0
 10
250.02
 20
51.3514
 30
0.0
 11
249.221
 21
51.3514
 31
0.0
  0
LINE
  8
0
 62
     0
 10
249.221
 20
51.3514
 30
0.0
 11
249.221
 21
52.3515
 31
0.0
  0
LINE
  8
0
 62
     0
 10
249.221
 20
52.3515
 30
0.0
 11
235.22
 21
52.3515
 31
0.0
  0
LINE
  8
0
 62
     0
 10
90.2271
 20
61.4645
 30
0.0
 11
89.4306
 21
61.5336
 31
0.0
  0
LINE
  8
0
 62
     0
 10
89.4306
 20
61.5336
 30
0.0
 11
89.1604
 21
58.4454
 31
0.0
  0
LINE
  8
0
 62
     0
 10
89.1604
 20
58.4454
 30
0.0
 11
89.9569
 21
58.3766
 31
0.0
  0
LINE
  8
0
 62
     0
 10
89.9569
 20
58.3766
 30
0.0
 11
89.4514
 21
52.5985
 31
0.0
  0
LINE
  8
0
 62
     0
 10
89.4514
 20
52.5985
 30
0.0
 11
88.6548
 21
52.6673
 31
0.0
  0
LINE
  8
0
 62
     0
 10
88.6548
 20
52.6673
 30
0.0
 11
88.3846
 21
49.579
 31
0.0
  0
LINE
  8
0
 62
     0
 10
88.3846
 20
49.579
 30
0.0
 11
89.1812
 21
49.5102
 31
0.0
  0
LINE
  8
0
 62
     0
 10
89.1812
 20
49.5102
 30
0.0
 11
89.0944
 21
48.514
 31
0.0
  0
LINE
  8
0
 62
     0
 10
89.0944
 20
48.514
 30
0.0
 11
103.041
 21
47.2944
 31
0.0
  0
LINE
  8
0
 62
     0
 10
103.041
 20
47.2944
 30
0.0
 11
103.128
 21
48.2893
 31
0.0
  0
LINE
  8
0
 62
     0
 10
103.128
 20
48.2893
 30
0.0
 11
103.926
 21
48.2205
 31
0.0
  0
LINE
  8
0
 62
     0
 10
103.926
 20
48.2205
 30
0.0
 11
104.195
 21
51.3084
 31
0.0
  0
LINE
  8
0
 62
     0
 10
104.195
 20
51.3084
 30
0.0
 11
103.398
 21
51.3775
 31
0.0
  0
LINE
  8
0
 62
     0
 10
103.398
 20
51.3775
 30
0.0
 11
103.904
 21
57.1556
 31
0.0
  0
LINE
  8
0
 62
     0
 10
103.904
 20
57.1556
 30
0.0
 11
104.702
 21
57.0865
 31
0.0
  0
LINE
  8
0
 62
     0
 10
104.702
 20
57.0865
 30
0.0
 11
104.972
 21
60.1747
 31
0.0
  0
LINE
  8
0
 62
     0
 10
104.972
 20
60.1747
 30
0.0
 11
104.174
 21
60.2449
 31
0.0
  0
LINE
  8
0
 62
     0
 10
104.174
 20
60.2449
 30
0.0
 11
104.261
 21
61.2415
 31
0.0
  0
LINE
  8
0
 62
     0
 10
104.261
 20
61.2415
 30
0.0
 11
90.3139
 21
62.4611
 31
0.0
  0
LINE
  8
0
 62
     0
 10
90.3139
 20
62.4611
 30
0.0
 11
90.2271
 21
61.4645
 31
0.0
  0
LINE
  8
0
 62
     0
 10
109.134
 20
61.3103
 30
0.0
 11
109.186
 21
60.3112
 31
0.0
  0
LINE
  8
0
 62
     0
 10
109.186
 20
60.3112
 30
0.0
 11
108.387
 21
60.2714
 31
0.0
  0
LINE
  8
0
 62
     0
 10
108.387
 20
60.2714
 30
0.0
 11
108.548
 21
57.1747
 31
0.0
  0
LINE
  8
0
 62
     0
 10
108.548
 20
57.1747
 30
0.0
 11
109.347
 21
57.2163
 31
0.0
  0
LINE
  8
0
 62
     0
 10
109.347
 20
57.2163
 30
0.0
 11
109.652
 21
51.4244
 31
0.0
  0
LINE
  8
0
 62
     0
 10
109.652
 20
51.4244
 30
0.0
 11
108.853
 21
51.3828
 31
0.0
  0
LINE
  8
0
 62
     0
 10
108.853
 20
51.3828
 30
0.0
 11
109.014
 21
48.2865
 31
0.0
  0
LINE
  8
0
 62
     0
 10
109.014
 20
48.2865
 30
0.0
 11
109.813
 21
48.3291
 31
0.0
  0
LINE
  8
0
 62
     0
 10
109.813
 20
48.3291
 30
0.0
 11
109.866
 21
47.3301
 31
0.0
  0
LINE
  8
0
 62
     0
 10
109.866
 20
47.3301
 30
0.0
 11
123.847
 21
48.0632
 31
0.0
  0
LINE
  8
0
 62
     0
 10
123.847
 20
48.0632
 30
0.0
 11
123.795
 21
49.0622
 31
0.0
  0
LINE
  8
0
 62
     0
 10
123.795
 20
49.0622
 30
0.0
 11
124.593
 21
49.1024
 31
0.0
  0
LINE
  8
0
 62
     0
 10
124.593
 20
49.1024
 30
0.0
 11
124.431
 21
52.1988
 31
0.0
  0
LINE
  8
0
 62
     0
 10
124.431
 20
52.1988
 30
0.0
 11
123.632
 21
52.1575
 31
0.0
  0
LINE
  8
0
 62
     0
 10
123.632
 20
52.1575
 30
0.0
 11
123.329
 21
57.9494
 31
0.0
  0
LINE
  8
0
 62
     0
 10
123.329
 20
57.9494
 30
0.0
 11
124.128
 21
57.9907
 31
0.0
  0
LINE
  8
0
 62
     0
 10
124.128
 20
57.9907
 30
0.0
 11
123.965
 21
61.087
 31
0.0
  0
LINE
  8
0
 62
     0
 10
123.965
 20
61.087
 30
0.0
 11
123.166
 21
61.0443
 31
0.0
  0
LINE
  8
0
 62
     0
 10
123.166
 20
61.0443
 30
0.0
 11
123.114
 21
62.0434
 31
0.0
  0
LINE
  8
0
 62
     0
 10
123.114
 20
62.0434
 30
0.0
 11
109.134
 21
61.3103
 31
0.0
  0
LINE
  8
0
 62
     0
 10
129.078
 20
62.1923
 30
0.0
 11
129.235
 21
61.2041
 31
0.0
  0
LINE
  8
0
 62
     0
 10
129.235
 20
61.2041
 30
0.0
 11
128.444
 21
61.0789
 31
0.0
  0
LINE
  8
0
 62
     0
 10
128.444
 20
61.0789
 30
0.0
 11
128.929
 21
58.0168
 31
0.0
  0
LINE
  8
0
 62
     0
 10
128.929
 20
58.0168
 30
0.0
 11
129.719
 21
58.1424
 31
0.0
  0
LINE
  8
0
 62
     0
 10
129.719
 20
58.1424
 30
0.0
 11
130.627
 21
52.4136
 31
0.0
  0
LINE
  8
0
 62
     0
 10
130.627
 20
52.4136
 30
0.0
 11
129.837
 21
52.2884
 31
0.0
  0
LINE
  8
0
 62
     0
 10
129.837
 20
52.2884
 30
0.0
 11
130.322
 21
49.2263
 31
0.0
  0
LINE
  8
0
 62
     0
 10
130.322
 20
49.2263
 30
0.0
 11
131.112
 21
49.3518
 31
0.0
  0
LINE
  8
0
 62
     0
 10
131.112
 20
49.3518
 30
0.0
 11
131.269
 21
48.3637
 31
0.0
  0
LINE
  8
0
 62
     0
 10
131.269
 20
48.3637
 30
0.0
 11
145.096
 21
50.5548
 31
0.0
  0
LINE
  8
0
 62
     0
 10
145.096
 20
50.5548
 30
0.0
 11
144.939
 21
51.5415
 31
0.0
  0
LINE
  8
0
 62
     0
 10
144.939
 20
51.5415
 30
0.0
 11
145.729
 21
51.6668
 31
0.0
  0
LINE
  8
0
 62
     0
 10
145.729
 20
51.6668
 30
0.0
 11
145.245
 21
54.7289
 31
0.0
  0
LINE
  8
0
 62
     0
 10
145.245
 20
54.7289
 30
0.0
 11
144.454
 21
54.6033
 31
0.0
  0
LINE
  8
0
 62
     0
 10
144.454
 20
54.6033
 30
0.0
 11
143.547
 21
60.3331
 31
0.0
  0
LINE
  8
0
 62
     0
 10
143.547
 20
60.3331
 30
0.0
 11
144.337
 21
60.4573
 31
0.0
  0
LINE
  8
0
 62
     0
 10
144.337
 20
60.4573
 30
0.0
 11
143.852
 21
63.5194
 31
0.0
  0
LINE
  8
0
 62
     0
 10
143.852
 20
63.5194
 30
0.0
 11
143.062
 21
63.3952
 31
0.0
  0
LINE
  8
0
 62
     0
 10
143.062
 20
63.3952
 30
0.0
 11
142.907
 21
64.3819
 31
0.0
  0
LINE
  8
0
 62
     0
 10
142.907
 20
64.3819
 30
0.0
 11
129.078
 21
62.1923
 31
0.0
  0
LINE
  8
0
 62
     0
 10
71.2488
 20
65.2279
 30
0.0
 11
70.4631
 21
65.3852
 31
0.0
  0
LINE
  8
0
 62
     0
 10
70.4631
 20
65.3852
 30
0.0
 11
69.8581
 21
62.3439
 31
0.0
  0
LINE
  8
0
 62
     0
 10
69.8581
 20
62.3439
 30
0.0
 11
70.6438
 21
62.188
 31
0.0
  0
LINE
  8
0
 62
     0
 10
70.6438
 20
62.188
 30
0.0
 11
69.511
 21
56.4995
 31
0.0
  0
LINE
  8
0
 62
     0
 10
69.511
 20
56.4995
 30
0.0
 11
68.7268
 21
56.6554
 31
0.0
  0
LINE
  8
0
 62
     0
 10
68.7268
 20
56.6554
 30
0.0
 11
68.1221
 21
53.6152
 31
0.0
  0
LINE
  8
0
 62
     0
 10
68.1221
 20
53.6152
 30
0.0
 11
68.9074
 21
53.4582
 31
0.0
  0
LINE
  8
0
 62
     0
 10
68.9074
 20
53.4582
 30
0.0
 11
68.713
 21
52.4771
 31
0.0
  0
LINE
  8
0
 62
     0
 10
68.713
 20
52.4771
 30
0.0
 11
82.4438
 21
49.7473
 31
0.0
  0
LINE
  8
0
 62
     0
 10
82.4438
 20
49.7473
 30
0.0
 11
82.6382
 21
50.7284
 31
0.0
  0
LINE
  8
0
 62
     0
 10
82.6382
 20
50.7284
 30
0.0
 11
83.4224
 21
50.5714
 31
0.0
  0
LINE
  8
0
 62
     0
 10
83.4224
 20
50.5714
 30
0.0
 11
84.0274
 21
53.6113
 31
0.0
  0
LINE
  8
0
 62
     0
 10
84.0274
 20
53.6113
 30
0.0
 11
83.2432
 21
53.7683
 31
0.0
  0
LINE
  8
0
 62
     0
 10
83.2432
 20
53.7683
 30
0.0
 11
84.3746
 21
59.4568
 31
0.0
  0
LINE
  8
0
 62
     0
 10
84.3746
 20
59.4568
 30
0.0
 11
85.1598
 21
59.3012
 31
0.0
  0
LINE
  8
0
 62
     0
 10
85.1598
 20
59.3012
 30
0.0
 11
85.7635
 21
62.3411
 31
0.0
  0
LINE
  8
0
 62
     0
 10
85.7635
 20
62.3411
 30
0.0
 11
84.9796
 21
62.4967
 31
0.0
  0
LINE
  8
0
 62
     0
 10
84.9796
 20
62.4967
 30
0.0
 11
85.175
 21
63.4781
 31
0.0
  0
LINE
  8
0
 62
     0
 10
85.175
 20
63.4781
 30
0.0
 11
71.4431
 21
66.2093
 31
0.0
  0
LINE
  8
0
 62
     0
 10
71.4431
 20
66.2093
 30
0.0
 11
71.2488
 21
65.2279
 31
0.0
  0
LINE
  8
0
 62
     0
 10
148.267
 20
65.2582
 30
0.0
 11
148.441
 21
64.2729
 31
0.0
  0
LINE
  8
0
 62
     0
 10
148.441
 20
64.2729
 30
0.0
 11
147.654
 21
64.1339
 31
0.0
  0
LINE
  8
0
 62
     0
 10
147.654
 20
64.1339
 30
0.0
 11
148.191
 21
61.0803
 31
0.0
  0
LINE
  8
0
 62
     0
 10
148.191
 20
61.0803
 30
0.0
 11
148.98
 21
61.2193
 31
0.0
  0
LINE
  8
0
 62
     0
 10
148.98
 20
61.2193
 30
0.0
 11
149.987
 21
55.5075
 31
0.0
  0
LINE
  8
0
 62
     0
 10
149.987
 20
55.5075
 30
0.0
 11
149.199
 21
55.3681
 31
0.0
  0
LINE
  8
0
 62
     0
 10
149.199
 20
55.3681
 30
0.0
 11
149.736
 21
52.3159
 31
0.0
  0
LINE
  8
0
 62
     0
 10
149.736
 20
52.3159
 30
0.0
 11
150.525
 21
52.4549
 31
0.0
  0
LINE
  8
0
 62
     0
 10
150.525
 20
52.4549
 30
0.0
 11
150.698
 21
51.4696
 31
0.0
  0
LINE
  8
0
 62
     0
 10
150.698
 20
51.4696
 30
0.0
 11
164.485
 21
53.902
 31
0.0
  0
LINE
  8
0
 62
     0
 10
164.485
 20
53.902
 30
0.0
 11
164.312
 21
54.8859
 31
0.0
  0
LINE
  8
0
 62
     0
 10
164.312
 20
54.8859
 30
0.0
 11
165.1
 21
55.0252
 31
0.0
  0
LINE
  8
0
 62
     0
 10
165.1
 20
55.0252
 30
0.0
 11
164.561
 21
58.0775
 31
0.0
  0
LINE
  8
0
 62
     0
 10
164.561
 20
58.0775
 30
0.0
 11
163.773
 21
57.9381
 31
0.0
  0
LINE
  8
0
 62
     0
 10
163.773
 20
57.9381
 30
0.0
 11
162.767
 21
63.6503
 31
0.0
  0
LINE
  8
0
 62
     0
 10
162.767
 20
63.6503
 30
0.0
 11
163.554
 21
63.7893
 31
0.0
  0
LINE
  8
0
 62
     0
 10
163.554
 20
63.7893
 30
0.0
 11
163.016
 21
66.8433
 31
0.0
  0
LINE
  8
0
 62
     0
 10
163.016
 20
66.8433
 30
0.0
 11
162.228
 21
66.7039
 31
0.0
  0
LINE
  8
0
 62
     0
 10
162.228
 20
66.7039
 30
0.0
 11
162.054
 21
67.6892
 31
0.0
  0
LINE
  8
0
 62
     0
 10
162.054
 20
67.6892
 30
0.0
 11
148.267
 21
65.2582
 31
0.0
  0
LINE
  8
0
 62
     0
 10
51.8474
 20
68.9021
 30
0.0
 11
51.0575
 21
69.0273
 31
0.0
  0
LINE
  8
0
 62
     0
 10
51.0575
 20
69.0273
 30
0.0
 11
50.5725
 21
65.9652
 31
0.0
  0
LINE
  8
0
 62
     0
 10
50.5725
 20
65.9652
 30
0.0
 11
51.3623
 21
65.84
 31
0.0
  0
LINE
  8
0
 62
     0
 10
51.3623
 20
65.84
 30
0.0
 11
50.4553
 21
60.1116
 31
0.0
  0
LINE
  8
0
 62
     0
 10
50.4553
 20
60.1116
 30
0.0
 11
49.6658
 21
60.2354
 31
0.0
  0
LINE
  8
0
 62
     0
 10
49.6658
 20
60.2354
 30
0.0
 11
49.1808
 21
57.1747
 31
0.0
  0
LINE
  8
0
 62
     0
 10
49.1808
 20
57.1747
 30
0.0
 11
49.9703
 21
57.0495
 31
0.0
  0
LINE
  8
0
 62
     0
 10
49.9703
 20
57.0495
 30
0.0
 11
49.8147
 21
56.0613
 31
0.0
  0
LINE
  8
0
 62
     0
 10
49.8147
 20
56.0613
 30
0.0
 11
63.6418
 21
53.8716
 31
0.0
  0
LINE
  8
0
 62
     0
 10
63.6418
 20
53.8716
 30
0.0
 11
63.7992
 21
54.8584
 31
0.0
  0
LINE
  8
0
 62
     0
 10
63.7992
 20
54.8584
 30
0.0
 11
64.5887
 21
54.7342
 31
0.0
  0
LINE
  8
0
 62
     0
 10
64.5887
 20
54.7342
 30
0.0
 11
65.0737
 21
57.7963
 31
0.0
  0
LINE
  8
0
 62
     0
 10
65.0737
 20
57.7963
 30
0.0
 11
64.2842
 21
57.9205
 31
0.0
  0
LINE
  8
0
 62
     0
 10
64.2842
 20
57.9205
 30
0.0
 11
65.1909
 21
63.6503
 31
0.0
  0
LINE
  8
0
 62
     0
 10
65.1909
 20
63.6503
 30
0.0
 11
65.9804
 21
63.5247
 31
0.0
  0
LINE
  8
0
 62
     0
 10
65.9804
 20
63.5247
 30
0.0
 11
66.4655
 21
66.5854
 31
0.0
  0
LINE
  8
0
 62
     0
 10
66.4655
 20
66.5854
 30
0.0
 11
65.6759
 21
66.712
 31
0.0
  0
LINE
  8
0
 62
     0
 10
65.6759
 20
66.712
 30
0.0
 11
65.8315
 21
67.6988
 31
0.0
  0
LINE
  8
0
 62
     0
 10
65.8315
 20
67.6988
 30
0.0
 11
52.0044
 21
69.8885
 31
0.0
  0
LINE
  8
0
 62
     0
 10
52.0044
 20
69.8885
 30
0.0
 11
51.8474
 21
68.9021
 31
0.0
  0
LINE
  8
0
 62
     0
 10
167.744
 20
68.7836
 30
0.0
 11
167.866
 21
67.7898
 31
0.0
  0
LINE
  8
0
 62
     0
 10
167.866
 20
67.7898
 30
0.0
 11
167.072
 21
67.6935
 31
0.0
  0
LINE
  8
0
 62
     0
 10
167.072
 20
67.6935
 30
0.0
 11
167.45
 21
64.6162
 31
0.0
  0
LINE
  8
0
 62
     0
 10
167.45
 20
64.6162
 30
0.0
 11
168.243
 21
64.7129
 31
0.0
  0
LINE
  8
0
 62
     0
 10
168.243
 20
64.7129
 30
0.0
 11
168.95
 21
58.9566
 31
0.0
  0
LINE
  8
0
 62
     0
 10
168.95
 20
58.9566
 30
0.0
 11
168.156
 21
58.8589
 31
0.0
  0
LINE
  8
0
 62
     0
 10
168.156
 20
58.8589
 30
0.0
 11
168.534
 21
55.7816
 31
0.0
  0
LINE
  8
0
 62
     0
 10
168.534
 20
55.7816
 30
0.0
 11
169.328
 21
55.8793
 31
0.0
  0
LINE
  8
0
 62
     0
 10
169.328
 20
55.8793
 30
0.0
 11
169.45
 21
54.8873
 31
0.0
  0
LINE
  8
0
 62
     0
 10
169.45
 20
54.8873
 30
0.0
 11
183.345
 21
56.5933
 31
0.0
  0
LINE
  8
0
 62
     0
 10
183.345
 20
56.5933
 30
0.0
 11
183.224
 21
57.5853
 31
0.0
  0
LINE
  8
0
 62
     0
 10
183.224
 20
57.5853
 30
0.0
 11
184.019
 21
57.6834
 31
0.0
  0
LINE
  8
0
 62
     0
 10
184.019
 20
57.6834
 30
0.0
 11
183.64
 21
60.7589
 31
0.0
  0
LINE
  8
0
 62
     0
 10
183.64
 20
60.7589
 30
0.0
 11
182.846
 21
60.6626
 31
0.0
  0
LINE
  8
0
 62
     0
 10
182.846
 20
60.6626
 30
0.0
 11
182.14
 21
66.4185
 31
0.0
  0
LINE
  8
0
 62
     0
 10
182.14
 20
66.4185
 30
0.0
 11
182.933
 21
66.5166
 31
0.0
  0
LINE
  8
0
 62
     0
 10
182.933
 20
66.5166
 30
0.0
 11
182.555
 21
69.5935
 31
0.0
  0
LINE
  8
0
 62
     0
 10
182.555
 20
69.5935
 30
0.0
 11
181.762
 21
69.4958
 31
0.0
  0
LINE
  8
0
 62
     0
 10
181.762
 20
69.4958
 30
0.0
 11
181.639
 21
70.4896
 31
0.0
  0
LINE
  8
0
 62
     0
 10
181.639
 20
70.4896
 30
0.0
 11
167.744
 21
68.7836
 31
0.0
  0
LINE
  8
0
 62
     0
 10
31.6288
 20
70.823
 30
0.0
 11
30.8308
 21
70.8794
 31
0.0
  0
LINE
  8
0
 62
     0
 10
30.8308
 20
70.8794
 30
0.0
 11
30.6131
 21
67.7855
 31
0.0
  0
LINE
  8
0
 62
     0
 10
30.6131
 20
67.7855
 30
0.0
 11
31.411
 21
67.7305
 31
0.0
  0
LINE
  8
0
 62
     0
 10
31.411
 20
67.7305
 30
0.0
 11
31.0072
 21
61.9442
 31
0.0
  0
LINE
  8
0
 62
     0
 10
31.0072
 20
61.9442
 30
0.0
 11
30.2093
 21
62.0007
 31
0.0
  0
LINE
  8
0
 62
     0
 10
30.2093
 20
62.0007
 30
0.0
 11
29.993
 21
58.9082
 31
0.0
  0
LINE
  8
0
 62
     0
 10
29.993
 20
58.9082
 30
0.0
 11
30.7909
 21
58.8518
 31
0.0
  0
LINE
  8
0
 62
     0
 10
30.7909
 20
58.8518
 30
0.0
 11
30.722
 21
57.8541
 31
0.0
  0
LINE
  8
0
 62
     0
 10
30.722
 20
57.8541
 30
0.0
 11
44.6871
 21
56.8773
 31
0.0
  0
LINE
  8
0
 62
     0
 10
44.6871
 20
56.8773
 30
0.0
 11
44.7573
 21
57.8764
 31
0.0
  0
LINE
  8
0
 62
     0
 10
44.7573
 20
57.8764
 30
0.0
 11
45.5553
 21
57.8196
 31
0.0
  0
LINE
  8
0
 62
     0
 10
45.5553
 20
57.8196
 30
0.0
 11
45.7715
 21
60.912
 31
0.0
  0
LINE
  8
0
 62
     0
 10
45.7715
 20
60.912
 30
0.0
 11
44.9735
 21
60.9671
 31
0.0
  0
LINE
  8
0
 62
     0
 10
44.9735
 20
60.9671
 30
0.0
 11
45.3775
 21
66.7537
 31
0.0
  0
LINE
  8
0
 62
     0
 10
45.3775
 20
66.7537
 30
0.0
 11
46.1754
 21
66.6972
 31
0.0
  0
LINE
  8
0
 62
     0
 10
46.1754
 20
66.6972
 30
0.0
 11
46.3931
 21
69.7907
 31
0.0
  0
LINE
  8
0
 62
     0
 10
46.3931
 20
69.7907
 30
0.0
 11
45.5951
 21
69.8458
 31
0.0
  0
LINE
  8
0
 62
     0
 10
45.5951
 20
69.8458
 30
0.0
 11
45.6639
 21
70.8434
 31
0.0
  0
LINE
  8
0
 62
     0
 10
45.6639
 20
70.8434
 30
0.0
 11
31.6976
 21
71.8206
 31
0.0
  0
LINE
  8
0
 62
     0
 10
31.6976
 20
71.8206
 30
0.0
 11
31.6288
 21
70.823
 31
0.0
  0
LINE
  8
0
 62
     0
 10
188.547
 20
71.4015
 30
0.0
 11
188.547
 21
70.4014
 31
0.0
  0
LINE
  8
0
 62
     0
 10
188.547
 20
70.4014
 30
0.0
 11
187.748
 21
70.4014
 31
0.0
  0
LINE
  8
0
 62
     0
 10
187.748
 20
70.4014
 30
0.0
 11
187.748
 21
67.3019
 31
0.0
  0
LINE
  8
0
 62
     0
 10
187.748
 20
67.3019
 30
0.0
 11
188.547
 21
67.3019
 31
0.0
  0
LINE
  8
0
 62
     0
 10
188.547
 20
67.3019
 30
0.0
 11
188.547
 21
61.5019
 31
0.0
  0
LINE
  8
0
 62
     0
 10
188.547
 20
61.5019
 30
0.0
 11
187.748
 21
61.5019
 31
0.0
  0
LINE
  8
0
 62
     0
 10
187.748
 20
61.5019
 30
0.0
 11
187.748
 21
58.4013
 31
0.0
  0
LINE
  8
0
 62
     0
 10
187.748
 20
58.4013
 30
0.0
 11
188.547
 21
58.4013
 31
0.0
  0
LINE
  8
0
 62
     0
 10
188.547
 20
58.4013
 30
0.0
 11
188.547
 21
57.4022
 31
0.0
  0
LINE
  8
0
 62
     0
 10
188.547
 20
57.4022
 30
0.0
 11
202.547
 21
57.4022
 31
0.0
  0
LINE
  8
0
 62
     0
 10
202.547
 20
57.4022
 30
0.0
 11
202.547
 21
58.4013
 31
0.0
  0
LINE
  8
0
 62
     0
 10
202.547
 20
58.4013
 30
0.0
 11
203.347
 21
58.4013
 31
0.0
  0
LINE
  8
0
 62
     0
 10
203.347
 20
58.4013
 30
0.0
 11
203.347
 21
61.5019
 31
0.0
  0
LINE
  8
0
 62
     0
 10
203.347
 20
61.5019
 30
0.0
 11
202.547
 21
61.5019
 31
0.0
  0
LINE
  8
0
 62
     0
 10
202.547
 20
61.5019
 30
0.0
 11
202.547
 21
67.3019
 31
0.0
  0
LINE
  8
0
 62
     0
 10
202.547
 20
67.3019
 30
0.0
 11
203.347
 21
67.3019
 31
0.0
  0
LINE
  8
0
 62
     0
 10
203.347
 20
67.3019
 30
0.0
 11
203.347
 21
70.4014
 31
0.0
  0
LINE
  8
0
 62
     0
 10
203.347
 20
70.4014
 30
0.0
 11
202.547
 21
70.4014
 31
0.0
  0
LINE
  8
0
 62
     0
 10
202.547
 20
70.4014
 30
0.0
 11
202.547
 21
71.4015
 31
0.0
  0
LINE
  8
0
 62
     0
 10
202.547
 20
71.4015
 30
0.0
 11
188.547
 21
71.4015
 31
0.0
  0
LINE
  8
0
 62
     0
 10
9.00134
 20
71.4029
 30
0.0
 11
9.00134
 21
70.4039
 31
0.0
  0
LINE
  8
0
 62
     0
 10
9.00134
 20
70.4039
 30
0.0
 11
8.20208
 21
70.4039
 31
0.0
  0
LINE
  8
0
 62
     0
 10
8.20208
 20
70.4039
 30
0.0
 11
8.20208
 21
67.3019
 31
0.0
  0
LINE
  8
0
 62
     0
 10
8.20208
 20
67.3019
 30
0.0
 11
9.00134
 21
67.3019
 31
0.0
  0
LINE
  8
0
 62
     0
 10
9.00134
 20
67.3019
 30
0.0
 11
9.00134
 21
61.5033
 31
0.0
  0
LINE
  8
0
 62
     0
 10
9.00134
 20
61.5033
 30
0.0
 11
8.20208
 21
61.5033
 31
0.0
  0
LINE
  8
0
 62
     0
 10
8.20208
 20
61.5033
 30
0.0
 11
8.20208
 21
58.4027
 31
0.0
  0
LINE
  8
0
 62
     0
 10
8.20208
 20
58.4027
 30
0.0
 11
9.00134
 21
58.4027
 31
0.0
  0
LINE
  8
0
 62
     0
 10
9.00134
 20
58.4027
 30
0.0
 11
9.00134
 21
57.4022
 31
0.0
  0
LINE
  8
0
 62
     0
 10
9.00134
 20
57.4022
 30
0.0
 11
23.0008
 21
57.4022
 31
0.0
  0
LINE
  8
0
 62
     0
 10
23.0008
 20
57.4022
 30
0.0
 11
23.0008
 21
58.4027
 31
0.0
  0
LINE
  8
0
 62
     0
 10
23.0008
 20
58.4027
 30
0.0
 11
23.8015
 21
58.4027
 31
0.0
  0
LINE
  8
0
 62
     0
 10
23.8015
 20
58.4027
 30
0.0
 11
23.8015
 21
61.5033
 31
0.0
  0
LINE
  8
0
 62
     0
 10
23.8015
 20
61.5033
 30
0.0
 11
23.0008
 21
61.5033
 31
0.0
  0
LINE
  8
0
 62
     0
 10
23.0008
 20
61.5033
 30
0.0
 11
23.0008
 21
67.3019
 31
0.0
  0
LINE
  8
0
 62
     0
 10
23.0008
 20
67.3019
 30
0.0
 11
23.8015
 21
67.3019
 31
0.0
  0
LINE
  8
0
 62
     0
 10
23.8015
 20
67.3019
 30
0.0
 11
23.8015
 21
70.4039
 31
0.0
  0
LINE
  8
0
 62
     0
 10
23.8015
 20
70.4039
 30
0.0
 11
23.0008
 21
70.4039
 31
0.0
  0
LINE
  8
0
 62
     0
 10
23.0008
 20
70.4039
 30
0.0
 11
23.0008
 21
71.4029
 31
0.0
  0
LINE
  8
0
 62
     0
 10
23.0008
 20
71.4029
 30
0.0
 11
9.00134
 21
71.4029
 31
0.0
  0
LINE
  8
0
 62
     0
 10
208.551
 20
71.4029
 30
0.0
 11
208.551
 21
70.4039
 31
0.0
  0
LINE
  8
0
 62
     0
 10
208.551
 20
70.4039
 30
0.0
 11
207.75
 21
70.4039
 31
0.0
  0
LINE
  8
0
 62
     0
 10
207.75
 20
70.4039
 30
0.0
 11
207.75
 21
67.3019
 31
0.0
  0
LINE
  8
0
 62
     0
 10
207.75
 20
67.3019
 30
0.0
 11
208.551
 21
67.3019
 31
0.0
  0
LINE
  8
0
 62
     0
 10
208.551
 20
67.3019
 30
0.0
 11
208.551
 21
61.5033
 31
0.0
  0
LINE
  8
0
 62
     0
 10
208.551
 20
61.5033
 30
0.0
 11
207.75
 21
61.5033
 31
0.0
  0
LINE
  8
0
 62
     0
 10
207.75
 20
61.5033
 30
0.0
 11
207.75
 21
58.4027
 31
0.0
  0
LINE
  8
0
 62
     0
 10
207.75
 20
58.4027
 30
0.0
 11
208.551
 21
58.4027
 31
0.0
  0
LINE
  8
0
 62
     0
 10
208.551
 20
58.4027
 30
0.0
 11
208.551
 21
57.4022
 31
0.0
  0
LINE
  8
0
 62
     0
 10
208.551
 20
57.4022
 30
0.0
 11
222.551
 21
57.4022
 31
0.0
  0
LINE
  8
0
 62
     0
 10
222.551
 20
57.4022
 30
0.0
 11
222.551
 21
58.4027
 31
0.0
  0
LINE
  8
0
 62
     0
 10
222.551
 20
58.4027
 30
0.0
 11
223.351
 21
58.4027
 31
0.0
  0
LINE
  8
0
 62
     0
 10
223.351
 20
58.4027
 30
0.0
 11
223.351
 21
61.5033
 31
0.0
  0
LINE
  8
0
 62
     0
 10
223.351
 20
61.5033
 30
0.0
 11
222.551
 21
61.5033
 31
0.0
  0
LINE
  8
0
 62
     0
 10
222.551
 20
61.5033
 30
0.0
 11
222.551
 21
67.3019
 31
0.0
  0
LINE
  8
0
 62
     0
 10
222.551
 20
67.3019
 30
0.0
 11
223.351
 21
67.3019
 31
0.0
  0
LINE
  8
0
 62
     0
 10
223.351
 20
67.3019
 30
0.0
 11
223.351
 21
70.4039
 31
0.0
  0
LINE
  8
0
 62
     0
 10
223.351
 20
70.4039
 30
0.0
 11
222.551
 21
70.4039
 31
0.0
  0
LINE
  8
0
 62
     0
 10
222.551
 20
70.4039
 30
0.0
 11
222.551
 21
71.4029
 31
0.0
  0
LINE
  8
0
 62
     0
 10
222.551
 20
71.4029
 30
0.0
 11
208.551
 21
71.4029
 31
0.0
  0
LINE
  8
0
 62
     0
 10
239.339
 20
90.0271
 30
0.0
 11
239.339
 21
89.203
 31
0.0
  0
LINE
  8
0
 62
     0
 10
239.339
 20
89.203
 30
0.0
 11
233.069
 21
89.203
 31
0.0
  0
LINE
  8
0
 62
     0
 10
233.069
 20
89.203
 30
0.0
 11
233.069
 21
87.478
 31
0.0
  0
LINE
  8
0
 62
     0
 10
233.069
 20
87.478
 30
0.0
 11
231.869
 21
87.478
 31
0.0
  0
LINE
  8
0
 62
     0
 10
231.869
 20
87.478
 30
0.0
 11
231.869
 21
84.1774
 31
0.0
  0
LINE
  8
0
 62
     0
 10
231.869
 20
84.1774
 30
0.0
 11
233.069
 21
84.1774
 31
0.0
  0
LINE
  8
0
 62
     0
 10
233.069
 20
84.1774
 30
0.0
 11
233.069
 21
82.4523
 31
0.0
  0
LINE
  8
0
 62
     0
 10
233.069
 20
82.4523
 30
0.0
 11
237.538
 21
82.4523
 31
0.0
  0
LINE
  8
0
 62
     0
 10
237.538
 20
82.4523
 30
0.0
 11
237.538
 21
80.9279
 31
0.0
  0
LINE
  8
0
 62
     0
 10
237.538
 20
80.9279
 30
0.0
 11
236.939
 21
80.9279
 31
0.0
  0
LINE
  8
0
 62
     0
 10
236.939
 20
80.9279
 30
0.0
 11
236.939
 21
81.7273
 31
0.0
  0
LINE
  8
0
 62
     0
 10
236.939
 20
81.7273
 30
0.0
 11
233.838
 21
81.7273
 31
0.0
  0
LINE
  8
0
 62
     0
 10
233.838
 20
81.7273
 30
0.0
 11
233.838
 21
80.9279
 31
0.0
  0
LINE
  8
0
 62
     0
 10
233.838
 20
80.9279
 30
0.0
 11
232.839
 21
80.9279
 31
0.0
  0
LINE
  8
0
 62
     0
 10
232.839
 20
80.9279
 30
0.0
 11
232.839
 21
66.9272
 31
0.0
  0
LINE
  8
0
 62
     0
 10
232.839
 20
66.9272
 30
0.0
 11
233.838
 21
66.9272
 31
0.0
  0
LINE
  8
0
 62
     0
 10
233.838
 20
66.9272
 30
0.0
 11
233.838
 21
66.1278
 31
0.0
  0
LINE
  8
0
 62
     0
 10
233.838
 20
66.1278
 30
0.0
 11
236.939
 21
66.1278
 31
0.0
  0
LINE
  8
0
 62
     0
 10
236.939
 20
66.1278
 30
0.0
 11
236.939
 21
66.9272
 31
0.0
  0
LINE
  8
0
 62
     0
 10
236.939
 20
66.9272
 30
0.0
 11
237.538
 21
66.9272
 31
0.0
  0
LINE
  8
0
 62
     0
 10
237.538
 20
66.9272
 30
0.0
 11
237.538
 21
65.4032
 31
0.0
  0
LINE
  8
0
 62
     0
 10
237.538
 20
65.4032
 30
0.0
 11
233.069
 21
65.4032
 31
0.0
  0
LINE
  8
0
 62
     0
 10
233.069
 20
65.4032
 30
0.0
 11
233.069
 21
63.6764
 31
0.0
  0
LINE
  8
0
 62
     0
 10
233.069
 20
63.6764
 30
0.0
 11
231.869
 21
63.6764
 31
0.0
  0
LINE
  8
0
 62
     0
 10
231.869
 20
63.6764
 30
0.0
 11
231.869
 21
60.3772
 31
0.0
  0
LINE
  8
0
 62
     0
 10
231.869
 20
60.3772
 30
0.0
 11
233.069
 21
60.3772
 31
0.0
  0
LINE
  8
0
 62
     0
 10
233.069
 20
60.3772
 30
0.0
 11
233.069
 21
58.6521
 31
0.0
  0
LINE
  8
0
 62
     0
 10
233.069
 20
58.6521
 30
0.0
 11
239.339
 21
58.6521
 31
0.0
  0
LINE
  8
0
 62
     0
 10
239.339
 20
58.6521
 30
0.0
 11
239.339
 21
57.8266
 31
0.0
  0
LINE
  8
0
 62
     0
 10
239.339
 20
57.8266
 30
0.0
 11
242.138
 21
57.8266
 31
0.0
  0
LINE
  8
0
 62
     0
 10
242.138
 20
57.8266
 30
0.0
 11
242.138
 21
58.6521
 31
0.0
  0
LINE
  8
0
 62
     0
 10
242.138
 20
58.6521
 30
0.0
 11
245.368
 21
58.6521
 31
0.0
  0
LINE
  8
0
 62
     0
 10
245.368
 20
58.6521
 30
0.0
 11
245.368
 21
65.4032
 31
0.0
  0
LINE
  8
0
 62
     0
 10
245.368
 20
65.4032
 30
0.0
 11
242.138
 21
65.4032
 31
0.0
  0
LINE
  8
0
 62
     0
 10
242.138
 20
65.4032
 30
0.0
 11
242.138
 21
66.9272
 31
0.0
  0
LINE
  8
0
 62
     0
 10
242.138
 20
66.9272
 30
0.0
 11
242.739
 21
66.9272
 31
0.0
  0
LINE
  8
0
 62
     0
 10
242.739
 20
66.9272
 30
0.0
 11
242.739
 21
66.1278
 31
0.0
  0
LINE
  8
0
 62
     0
 10
242.739
 20
66.1278
 30
0.0
 11
245.838
 21
66.1278
 31
0.0
  0
LINE
  8
0
 62
     0
 10
245.838
 20
66.1278
 30
0.0
 11
245.838
 21
66.9272
 31
0.0
  0
LINE
  8
0
 62
     0
 10
245.838
 20
66.9272
 30
0.0
 11
246.838
 21
66.9272
 31
0.0
  0
LINE
  8
0
 62
     0
 10
246.838
 20
66.9272
 30
0.0
 11
246.838
 21
80.9279
 31
0.0
  0
LINE
  8
0
 62
     0
 10
246.838
 20
80.9279
 30
0.0
 11
245.838
 21
80.9279
 31
0.0
  0
LINE
  8
0
 62
     0
 10
245.838
 20
80.9279
 30
0.0
 11
245.838
 21
81.7273
 31
0.0
  0
LINE
  8
0
 62
     0
 10
245.838
 20
81.7273
 30
0.0
 11
242.739
 21
81.7273
 31
0.0
  0
LINE
  8
0
 62
     0
 10
242.739
 20
81.7273
 30
0.0
 11
242.739
 21
80.9279
 31
0.0
  0
LINE
  8
0
 62
     0
 10
242.739
 20
80.9279
 30
0.0
 11
242.138
 21
80.9279
 31
0.0
  0
LINE
  8
0
 62
     0
 10
242.138
 20
80.9279
 30
0.0
 11
242.138
 21
82.4523
 31
0.0
  0
LINE
  8
0
 62
     0
 10
242.138
 20
82.4523
 30
0.0
 11
245.368
 21
82.4523
 31
0.0
  0
LINE
  8
0
 62
     0
 10
245.368
 20
82.4523
 30
0.0
 11
245.368
 21
89.203
 31
0.0
  0
LINE
  8
0
 62
     0
 10
245.368
 20
89.203
 30
0.0
 11
242.138
 21
89.203
 31
0.0
  0
LINE
  8
0
 62
     0
 10
242.138
 20
89.203
 30
0.0
 11
242.138
 21
90.0271
 31
0.0
  0
LINE
  8
0
 62
     0
 10
242.138
 20
90.0271
 30
0.0
 11
239.339
 21
90.0271
 31
0.0
  0
LINE
  8
0
 62
     0
 10
268.558
 20
80.9279
 30
0.0
 11
268.558
 21
79.9274
 31
0.0
  0
LINE
  8
0
 62
     0
 10
268.558
 20
79.9274
 30
0.0
 11
267.757
 21
79.9274
 31
0.0
  0
LINE
  8
0
 62
     0
 10
267.757
 20
79.9274
 30
0.0
 11
267.757
 21
76.8269
 31
0.0
  0
LINE
  8
0
 62
     0
 10
267.757
 20
76.8269
 30
0.0
 11
268.558
 21
76.8269
 31
0.0
  0
LINE
  8
0
 62
     0
 10
268.558
 20
76.8269
 30
0.0
 11
268.558
 21
76.2275
 31
0.0
  0
LINE
  8
0
 62
     0
 10
268.558
 20
76.2275
 30
0.0
 11
267.032
 21
76.2275
 31
0.0
  0
LINE
  8
0
 62
     0
 10
267.032
 20
76.2275
 30
0.0
 11
267.032
 21
79.4575
 31
0.0
  0
LINE
  8
0
 62
     0
 10
267.032
 20
79.4575
 30
0.0
 11
260.283
 21
79.4575
 31
0.0
  0
LINE
  8
0
 62
     0
 10
260.283
 20
79.4575
 30
0.0
 11
260.283
 21
76.2275
 31
0.0
  0
LINE
  8
0
 62
     0
 10
260.283
 20
76.2275
 30
0.0
 11
259.457
 21
76.2275
 31
0.0
  0
LINE
  8
0
 62
     0
 10
259.457
 20
76.2275
 30
0.0
 11
259.457
 21
73.4275
 31
0.0
  0
LINE
  8
0
 62
     0
 10
259.457
 20
73.4275
 30
0.0
 11
260.283
 21
73.4275
 31
0.0
  0
LINE
  8
0
 62
     0
 10
260.283
 20
73.4275
 30
0.0
 11
260.283
 21
67.1572
 31
0.0
  0
LINE
  8
0
 62
     0
 10
260.283
 20
67.1572
 30
0.0
 11
262.008
 21
67.1572
 31
0.0
  0
LINE
  8
0
 62
     0
 10
262.008
 20
67.1572
 30
0.0
 11
262.008
 21
65.9585
 31
0.0
  0
LINE
  8
0
 62
     0
 10
262.008
 20
65.9585
 30
0.0
 11
265.307
 21
65.9585
 31
0.0
  0
LINE
  8
0
 62
     0
 10
265.307
 20
65.9585
 30
0.0
 11
265.307
 21
67.1572
 31
0.0
  0
LINE
  8
0
 62
     0
 10
265.307
 20
67.1572
 30
0.0
 11
267.032
 21
67.1572
 31
0.0
  0
LINE
  8
0
 62
     0
 10
267.032
 20
67.1572
 30
0.0
 11
267.032
 21
71.6276
 31
0.0
  0
LINE
  8
0
 62
     0
 10
267.032
 20
71.6276
 30
0.0
 11
268.558
 21
71.6276
 31
0.0
  0
LINE
  8
0
 62
     0
 10
268.558
 20
71.6276
 30
0.0
 11
268.558
 21
71.0283
 31
0.0
  0
LINE
  8
0
 62
     0
 10
268.558
 20
71.0283
 30
0.0
 11
267.757
 21
71.0283
 31
0.0
  0
LINE
  8
0
 62
     0
 10
267.757
 20
71.0283
 30
0.0
 11
267.757
 21
67.9263
 31
0.0
  0
LINE
  8
0
 62
     0
 10
267.757
 20
67.9263
 30
0.0
 11
268.558
 21
67.9263
 31
0.0
  0
LINE
  8
0
 62
     0
 10
268.558
 20
67.9263
 30
0.0
 11
268.558
 21
66.9272
 31
0.0
  0
LINE
  8
0
 62
     0
 10
268.558
 20
66.9272
 30
0.0
 11
282.557
 21
66.9272
 31
0.0
  0
LINE
  8
0
 62
     0
 10
282.557
 20
66.9272
 30
0.0
 11
282.557
 21
67.9263
 31
0.0
  0
LINE
  8
0
 62
     0
 10
282.557
 20
67.9263
 30
0.0
 11
283.358
 21
67.9263
 31
0.0
  0
LINE
  8
0
 62
     0
 10
283.358
 20
67.9263
 30
0.0
 11
283.358
 21
71.0283
 31
0.0
  0
LINE
  8
0
 62
     0
 10
283.358
 20
71.0283
 30
0.0
 11
282.557
 21
71.0283
 31
0.0
  0
LINE
  8
0
 62
     0
 10
282.557
 20
71.0283
 30
0.0
 11
282.557
 21
71.6276
 31
0.0
  0
LINE
  8
0
 62
     0
 10
282.557
 20
71.6276
 30
0.0
 11
284.082
 21
71.6276
 31
0.0
  0
LINE
  8
0
 62
     0
 10
284.082
 20
71.6276
 30
0.0
 11
284.082
 21
67.1572
 31
0.0
  0
LINE
  8
0
 62
     0
 10
284.082
 20
67.1572
 30
0.0
 11
285.808
 21
67.1572
 31
0.0
  0
LINE
  8
0
 62
     0
 10
285.808
 20
67.1572
 30
0.0
 11
285.808
 21
65.9585
 31
0.0
  0
LINE
  8
0
 62
     0
 10
285.808
 20
65.9585
 30
0.0
 11
289.107
 21
65.9585
 31
0.0
  0
LINE
  8
0
 62
     0
 10
289.107
 20
65.9585
 30
0.0
 11
289.107
 21
67.1572
 31
0.0
  0
LINE
  8
0
 62
     0
 10
289.107
 20
67.1572
 30
0.0
 11
290.832
 21
67.1572
 31
0.0
  0
LINE
  8
0
 62
     0
 10
290.832
 20
67.1572
 30
0.0
 11
290.832
 21
73.4275
 31
0.0
  0
LINE
  8
0
 62
     0
 10
290.832
 20
73.4275
 30
0.0
 11
291.658
 21
73.4275
 31
0.0
  0
LINE
  8
0
 62
     0
 10
291.658
 20
73.4275
 30
0.0
 11
291.658
 21
76.2275
 31
0.0
  0
LINE
  8
0
 62
     0
 10
291.658
 20
76.2275
 30
0.0
 11
290.832
 21
76.2275
 31
0.0
  0
LINE
  8
0
 62
     0
 10
290.832
 20
76.2275
 30
0.0
 11
290.832
 21
79.4575
 31
0.0
  0
LINE
  8
0
 62
     0
 10
290.832
 20
79.4575
 30
0.0
 11
284.082
 21
79.4575
 31
0.0
  0
LINE
  8
0
 62
     0
 10
284.082
 20
79.4575
 30
0.0
 11
284.082
 21
76.2275
 31
0.0
  0
LINE
  8
0
 62
     0
 10
284.082
 20
76.2275
 30
0.0
 11
282.557
 21
76.2275
 31
0.0
  0
LINE
  8
0
 62
     0
 10
282.557
 20
76.2275
 30
0.0
 11
282.557
 21
76.8269
 31
0.0
  0
LINE
  8
0
 62
     0
 10
282.557
 20
76.8269
 30
0.0
 11
283.358
 21
76.8269
 31
0.0
  0
LINE
  8
0
 62
     0
 10
283.358
 20
76.8269
 30
0.0
 11
283.358
 21
79.9274
 31
0.0
  0
LINE
  8
0
 62
     0
 10
283.358
 20
79.9274
 30
0.0
 11
282.557
 21
79.9274
 31
0.0
  0
LINE
  8
0
 62
     0
 10
282.557
 20
79.9274
 30
0.0
 11
282.557
 21
80.9279
 31
0.0
  0
LINE
  8
0
 62
     0
 10
282.557
 20
80.9279
 30
0.0
 11
268.558
 21
80.9279
 31
0.0
  0
LINE
  8
0
 62
     0
 10
106.276
 20
80.5519
 30
0.0
 11
106.328
 21
79.5528
 31
0.0
  0
LINE
  8
0
 62
     0
 10
106.328
 20
79.5528
 30
0.0
 11
105.53
 21
79.5101
 31
0.0
  0
LINE
  8
0
 62
     0
 10
105.53
 20
79.5101
 30
0.0
 11
105.692
 21
76.4148
 31
0.0
  0
LINE
  8
0
 62
     0
 10
105.692
 20
76.4148
 30
0.0
 11
106.491
 21
76.4565
 31
0.0
  0
LINE
  8
0
 62
     0
 10
106.491
 20
76.4565
 30
0.0
 11
106.794
 21
70.666
 31
0.0
  0
LINE
  8
0
 62
     0
 10
106.794
 20
70.666
 30
0.0
 11
105.995
 21
70.6229
 31
0.0
  0
LINE
  8
0
 62
     0
 10
105.995
 20
70.6229
 30
0.0
 11
106.157
 21
67.528
 31
0.0
  0
LINE
  8
0
 62
     0
 10
106.157
 20
67.528
 30
0.0
 11
106.957
 21
67.5693
 31
0.0
  0
LINE
  8
0
 62
     0
 10
106.957
 20
67.5693
 30
0.0
 11
107.009
 21
66.5702
 31
0.0
  0
LINE
  8
0
 62
     0
 10
107.009
 20
66.5702
 30
0.0
 11
120.989
 21
67.3033
 31
0.0
  0
LINE
  8
0
 62
     0
 10
120.989
 20
67.3033
 30
0.0
 11
120.937
 21
68.301
 31
0.0
  0
LINE
  8
0
 62
     0
 10
120.937
 20
68.301
 30
0.0
 11
121.736
 21
68.3436
 31
0.0
  0
LINE
  8
0
 62
     0
 10
121.736
 20
68.3436
 30
0.0
 11
121.573
 21
71.4403
 31
0.0
  0
LINE
  8
0
 62
     0
 10
121.573
 20
71.4403
 30
0.0
 11
120.774
 21
71.3976
 31
0.0
  0
LINE
  8
0
 62
     0
 10
120.774
 20
71.3976
 30
0.0
 11
120.471
 21
77.1895
 31
0.0
  0
LINE
  8
0
 62
     0
 10
120.471
 20
77.1895
 30
0.0
 11
121.27
 21
77.2322
 31
0.0
  0
LINE
  8
0
 62
     0
 10
121.27
 20
77.2322
 30
0.0
 11
121.108
 21
80.3271
 31
0.0
  0
LINE
  8
0
 62
     0
 10
121.108
 20
80.3271
 30
0.0
 11
120.308
 21
80.2859
 31
0.0
  0
LINE
  8
0
 62
     0
 10
120.308
 20
80.2859
 30
0.0
 11
120.256
 21
81.2835
 31
0.0
  0
LINE
  8
0
 62
     0
 10
120.256
 20
81.2835
 30
0.0
 11
106.276
 21
80.5519
 31
0.0
  0
LINE
  8
0
 62
     0
 10
86.9142
 20
81.3883
 30
0.0
 11
86.1191
 21
81.4723
 31
0.0
  0
LINE
  8
0
 62
     0
 10
86.1191
 20
81.4723
 30
0.0
 11
85.7938
 21
78.3883
 31
0.0
  0
LINE
  8
0
 62
     0
 10
85.7938
 20
78.3883
 30
0.0
 11
86.5904
 21
78.3043
 31
0.0
  0
LINE
  8
0
 62
     0
 10
86.5904
 20
78.3043
 30
0.0
 11
85.9839
 21
72.5371
 31
0.0
  0
LINE
  8
0
 62
     0
 10
85.9839
 20
72.5371
 30
0.0
 11
85.1888
 21
72.6211
 31
0.0
  0
LINE
  8
0
 62
     0
 10
85.1888
 20
72.6211
 30
0.0
 11
84.8653
 21
69.5371
 31
0.0
  0
LINE
  8
0
 62
     0
 10
84.8653
 20
69.5371
 30
0.0
 11
85.6601
 21
69.4531
 31
0.0
  0
LINE
  8
0
 62
     0
 10
85.6601
 20
69.4531
 30
0.0
 11
85.5557
 21
68.4597
 31
0.0
  0
LINE
  8
0
 62
     0
 10
85.5557
 20
68.4597
 30
0.0
 11
99.4777
 21
66.996
 31
0.0
  0
LINE
  8
0
 62
     0
 10
99.4777
 20
66.996
 30
0.0
 11
99.5839
 21
67.9909
 31
0.0
  0
LINE
  8
0
 62
     0
 10
99.5839
 20
67.9909
 30
0.0
 11
100.379
 21
67.9069
 31
0.0
  0
LINE
  8
0
 62
     0
 10
100.379
 20
67.9069
 30
0.0
 11
100.703
 21
70.9895
 31
0.0
  0
LINE
  8
0
 62
     0
 10
100.703
 20
70.9895
 30
0.0
 11
99.9077
 21
71.0738
 31
0.0
  0
LINE
  8
0
 62
     0
 10
99.9077
 20
71.0738
 30
0.0
 11
100.514
 21
76.8421
 31
0.0
  0
LINE
  8
0
 62
     0
 10
100.514
 20
76.8421
 30
0.0
 11
101.309
 21
76.7581
 31
0.0
  0
LINE
  8
0
 62
     0
 10
101.309
 20
76.7581
 30
0.0
 11
101.633
 21
79.8407
 31
0.0
  0
LINE
  8
0
 62
     0
 10
101.633
 20
79.8407
 30
0.0
 11
100.838
 21
79.925
 31
0.0
  0
LINE
  8
0
 62
     0
 10
100.838
 20
79.925
 30
0.0
 11
100.943
 21
80.9184
 31
0.0
  0
LINE
  8
0
 62
     0
 10
100.943
 20
80.9184
 30
0.0
 11
87.019
 21
82.3831
 31
0.0
  0
LINE
  8
0
 62
     0
 10
87.019
 20
82.3831
 30
0.0
 11
86.9142
 21
81.3883
 31
0.0
  0
LINE
  8
0
 62
     0
 10
126.602
 20
81.4035
 30
0.0
 11
126.741
 21
80.4125
 31
0.0
  0
LINE
  8
0
 62
     0
 10
126.741
 20
80.4125
 30
0.0
 11
125.949
 21
80.3025
 31
0.0
  0
LINE
  8
0
 62
     0
 10
125.949
 20
80.3025
 30
0.0
 11
126.38
 21
77.2322
 31
0.0
  0
LINE
  8
0
 62
     0
 10
126.38
 20
77.2322
 30
0.0
 11
127.172
 21
77.3437
 31
0.0
  0
LINE
  8
0
 62
     0
 10
127.172
 20
77.3437
 30
0.0
 11
127.98
 21
71.6001
 31
0.0
  0
LINE
  8
0
 62
     0
 10
127.98
 20
71.6001
 30
0.0
 11
127.187
 21
71.4887
 31
0.0
  0
LINE
  8
0
 62
     0
 10
127.187
 20
71.4887
 30
0.0
 11
127.619
 21
68.4181
 31
0.0
  0
LINE
  8
0
 62
     0
 10
127.619
 20
68.4181
 30
0.0
 11
128.411
 21
68.5299
 31
0.0
  0
LINE
  8
0
 62
     0
 10
128.411
 20
68.5299
 30
0.0
 11
128.55
 21
67.5404
 31
0.0
  0
LINE
  8
0
 62
     0
 10
128.55
 20
67.5404
 30
0.0
 11
142.415
 21
69.4877
 31
0.0
  0
LINE
  8
0
 62
     0
 10
142.415
 20
69.4877
 30
0.0
 11
142.274
 21
70.4797
 31
0.0
  0
LINE
  8
0
 62
     0
 10
142.274
 20
70.4797
 30
0.0
 11
143.068
 21
70.5901
 31
0.0
  0
LINE
  8
0
 62
     0
 10
143.068
 20
70.5901
 30
0.0
 11
142.635
 21
73.6604
 31
0.0
  0
LINE
  8
0
 62
     0
 10
142.635
 20
73.6604
 30
0.0
 11
141.843
 21
73.5471
 31
0.0
  0
LINE
  8
0
 62
     0
 10
141.843
 20
73.5471
 30
0.0
 11
141.037
 21
79.2925
 31
0.0
  0
LINE
  8
0
 62
     0
 10
141.037
 20
79.2925
 30
0.0
 11
141.829
 21
79.4025
 31
0.0
  0
LINE
  8
0
 62
     0
 10
141.829
 20
79.4025
 30
0.0
 11
141.398
 21
82.4727
 31
0.0
  0
LINE
  8
0
 62
     0
 10
141.398
 20
82.4727
 30
0.0
 11
140.604
 21
82.3613
 31
0.0
  0
LINE
  8
0
 62
     0
 10
140.604
 20
82.3613
 30
0.0
 11
140.465
 21
83.3519
 31
0.0
  0
LINE
  8
0
 62
     0
 10
140.465
 20
83.3519
 30
0.0
 11
126.602
 21
81.4035
 31
0.0
  0
LINE
  8
0
 62
     0
 10
67.776
 20
86.1109
 30
0.0
 11
66.996
 21
86.2912
 31
0.0
  0
LINE
  8
0
 62
     0
 10
66.996
 20
86.2912
 30
0.0
 11
66.2989
 21
83.2693
 31
0.0
  0
LINE
  8
0
 62
     0
 10
66.2989
 20
83.2693
 30
0.0
 11
67.0789
 21
83.0901
 31
0.0
  0
LINE
  8
0
 62
     0
 10
67.0789
 20
83.0901
 30
0.0
 11
65.7737
 21
77.439
 31
0.0
  0
LINE
  8
0
 62
     0
 10
65.7737
 20
77.439
 30
0.0
 11
64.9951
 21
77.6192
 31
0.0
  0
LINE
  8
0
 62
     0
 10
64.9951
 20
77.6192
 30
0.0
 11
64.2966
 21
74.5973
 31
0.0
  0
LINE
  8
0
 62
     0
 10
64.2966
 20
74.5973
 30
0.0
 11
65.0766
 21
74.4181
 31
0.0
  0
LINE
  8
0
 62
     0
 10
65.0766
 20
74.4181
 30
0.0
 11
64.8518
 21
73.4441
 31
0.0
  0
LINE
  8
0
 62
     0
 10
64.8518
 20
73.4441
 30
0.0
 11
78.4931
 21
70.2952
 31
0.0
  0
LINE
  8
0
 62
     0
 10
78.4931
 20
70.2952
 30
0.0
 11
78.7178
 21
71.2692
 31
0.0
  0
LINE
  8
0
 62
     0
 10
78.7178
 20
71.2692
 30
0.0
 11
79.4964
 21
71.089
 31
0.0
  0
LINE
  8
0
 62
     0
 10
79.4964
 20
71.089
 30
0.0
 11
80.1949
 21
74.1094
 31
0.0
  0
LINE
  8
0
 62
     0
 10
80.1949
 20
74.1094
 30
0.0
 11
79.4149
 21
74.2901
 31
0.0
  0
LINE
  8
0
 62
     0
 10
79.4149
 20
74.2901
 30
0.0
 11
80.7201
 21
79.9412
 31
0.0
  0
LINE
  8
0
 62
     0
 10
80.7201
 20
79.9412
 30
0.0
 11
81.4987
 21
79.7609
 31
0.0
  0
LINE
  8
0
 62
     0
 10
81.4987
 20
79.7609
 30
0.0
 11
82.1958
 21
82.7814
 31
0.0
  0
LINE
  8
0
 62
     0
 10
82.1958
 20
82.7814
 30
0.0
 11
81.4158
 21
82.962
 31
0.0
  0
LINE
  8
0
 62
     0
 10
81.4158
 20
82.962
 30
0.0
 11
81.6419
 21
83.9364
 31
0.0
  0
LINE
  8
0
 62
     0
 10
81.6419
 20
83.9364
 30
0.0
 11
68.0007
 21
87.085
 31
0.0
  0
LINE
  8
0
 62
     0
 10
68.0007
 20
87.085
 30
0.0
 11
67.776
 21
86.1109
 31
0.0
  0
LINE
  8
0
 62
     0
 10
146.48
 20
84.3675
 30
0.0
 11
146.655
 21
83.3822
 31
0.0
  0
LINE
  8
0
 62
     0
 10
146.655
 20
83.3822
 30
0.0
 11
145.867
 21
83.2432
 31
0.0
  0
LINE
  8
0
 62
     0
 10
145.867
 20
83.2432
 30
0.0
 11
146.404
 21
80.191
 31
0.0
  0
LINE
  8
0
 62
     0
 10
146.404
 20
80.191
 30
0.0
 11
147.192
 21
80.33
 31
0.0
  0
LINE
  8
0
 62
     0
 10
147.192
 20
80.33
 30
0.0
 11
148.2
 21
74.6196
 31
0.0
  0
LINE
  8
0
 62
     0
 10
148.2
 20
74.6196
 30
0.0
 11
147.413
 21
74.4802
 31
0.0
  0
LINE
  8
0
 62
     0
 10
147.413
 20
74.4802
 30
0.0
 11
147.95
 21
71.4266
 31
0.0
  0
LINE
  8
0
 62
     0
 10
147.95
 20
71.4266
 30
0.0
 11
148.739
 21
71.5656
 31
0.0
  0
LINE
  8
0
 62
     0
 10
148.739
 20
71.5656
 30
0.0
 11
148.911
 21
70.5803
 31
0.0
  0
LINE
  8
0
 62
     0
 10
148.911
 20
70.5803
 30
0.0
 11
162.699
 21
73.0112
 31
0.0
  0
LINE
  8
0
 62
     0
 10
162.699
 20
73.0112
 30
0.0
 11
162.526
 21
73.9965
 31
0.0
  0
LINE
  8
0
 62
     0
 10
162.526
 20
73.9965
 30
0.0
 11
163.314
 21
74.1355
 31
0.0
  0
LINE
  8
0
 62
     0
 10
163.314
 20
74.1355
 30
0.0
 11
162.775
 21
77.1881
 31
0.0
  0
LINE
  8
0
 62
     0
 10
162.775
 20
77.1881
 30
0.0
 11
161.987
 21
77.0502
 31
0.0
  0
LINE
  8
0
 62
     0
 10
161.987
 20
77.0502
 30
0.0
 11
160.981
 21
82.761
 31
0.0
  0
LINE
  8
0
 62
     0
 10
160.981
 20
82.761
 30
0.0
 11
161.768
 21
82.9
 31
0.0
  0
LINE
  8
0
 62
     0
 10
161.768
 20
82.9
 30
0.0
 11
161.229
 21
85.9525
 31
0.0
  0
LINE
  8
0
 62
     0
 10
161.229
 20
85.9525
 30
0.0
 11
160.441
 21
85.8132
 31
0.0
  0
LINE
  8
0
 62
     0
 10
160.441
 20
85.8132
 30
0.0
 11
160.269
 21
86.7985
 31
0.0
  0
LINE
  8
0
 62
     0
 10
160.269
 20
86.7985
 30
0.0
 11
146.48
 21
84.3675
 31
0.0
  0
LINE
  8
0
 62
     0
 10
47.2225
 20
88.3666
 30
0.0
 11
46.4287
 21
88.4647
 31
0.0
  0
LINE
  8
0
 62
     0
 10
46.4287
 20
88.4647
 30
0.0
 11
46.0498
 21
85.3874
 31
0.0
  0
LINE
  8
0
 62
     0
 10
46.0498
 20
85.3874
 30
0.0
 11
46.845
 21
85.2897
 31
0.0
  0
LINE
  8
0
 62
     0
 10
46.845
 20
85.2897
 30
0.0
 11
46.138
 21
79.5334
 31
0.0
  0
LINE
  8
0
 62
     0
 10
46.138
 20
79.5334
 30
0.0
 11
45.3429
 21
79.6315
 31
0.0
  0
LINE
  8
0
 62
     0
 10
45.3429
 20
79.6315
 30
0.0
 11
44.9668
 21
76.5542
 31
0.0
  0
LINE
  8
0
 62
     0
 10
44.9668
 20
76.5542
 30
0.0
 11
45.7606
 21
76.4565
 31
0.0
  0
LINE
  8
0
 62
     0
 10
45.7606
 20
76.4565
 30
0.0
 11
45.6378
 21
75.4641
 31
0.0
  0
LINE
  8
0
 62
     0
 10
45.6378
 20
75.4641
 30
0.0
 11
59.5341
 21
73.7581
 31
0.0
  0
LINE
  8
0
 62
     0
 10
59.5341
 20
73.7581
 30
0.0
 11
59.6554
 21
74.7504
 31
0.0
  0
LINE
  8
0
 62
     0
 10
59.6554
 20
74.7504
 30
0.0
 11
60.4492
 21
74.6524
 31
0.0
  0
LINE
  8
0
 62
     0
 10
60.4492
 20
74.6524
 30
0.0
 11
60.8281
 21
77.7296
 31
0.0
  0
LINE
  8
0
 62
     0
 10
60.8281
 20
77.7296
 30
0.0
 11
60.0329
 21
77.826
 31
0.0
  0
LINE
  8
0
 62
     0
 10
60.0329
 20
77.826
 30
0.0
 11
60.7413
 21
83.5836
 31
0.0
  0
LINE
  8
0
 62
     0
 10
60.7413
 20
83.5836
 30
0.0
 11
61.535
 21
83.487
 31
0.0
  0
LINE
  8
0
 62
     0
 10
61.535
 20
83.487
 30
0.0
 11
61.9125
 21
86.5643
 31
0.0
  0
LINE
  8
0
 62
     0
 10
61.9125
 20
86.5643
 30
0.0
 11
61.1188
 21
86.662
 31
0.0
  0
LINE
  8
0
 62
     0
 10
61.1188
 20
86.662
 30
0.0
 11
61.2401
 21
87.6543
 31
0.0
  0
LINE
  8
0
 62
     0
 10
61.2401
 20
87.6543
 30
0.0
 11
47.3438
 21
89.3604
 31
0.0
  0
LINE
  8
0
 62
     0
 10
47.3438
 20
89.3604
 30
0.0
 11
47.2225
 21
88.3666
 31
0.0
  0
LINE
  8
0
 62
     0
 10
166.982
 20
88.0223
 30
0.0
 11
167.104
 21
87.0313
 31
0.0
  0
LINE
  8
0
 62
     0
 10
167.104
 20
87.0313
 30
0.0
 11
166.31
 21
86.9322
 31
0.0
  0
LINE
  8
0
 62
     0
 10
166.31
 20
86.9322
 30
0.0
 11
166.688
 21
83.8563
 31
0.0
  0
LINE
  8
0
 62
     0
 10
166.688
 20
83.8563
 30
0.0
 11
167.481
 21
83.9541
 31
0.0
  0
LINE
  8
0
 62
     0
 10
167.481
 20
83.9541
 30
0.0
 11
168.188
 21
78.1967
 31
0.0
  0
LINE
  8
0
 62
     0
 10
168.188
 20
78.1967
 30
0.0
 11
167.394
 21
78.1004
 31
0.0
  0
LINE
  8
0
 62
     0
 10
167.394
 20
78.1004
 30
0.0
 11
167.772
 21
75.0231
 31
0.0
  0
LINE
  8
0
 62
     0
 10
167.772
 20
75.0231
 30
0.0
 11
168.567
 21
75.1198
 31
0.0
  0
LINE
  8
0
 62
     0
 10
168.567
 20
75.1198
 30
0.0
 11
168.688
 21
74.1274
 31
0.0
  0
LINE
  8
0
 62
     0
 10
168.688
 20
74.1274
 30
0.0
 11
182.583
 21
75.8335
 31
0.0
  0
LINE
  8
0
 62
     0
 10
182.583
 20
75.8335
 30
0.0
 11
182.462
 21
76.8255
 31
0.0
  0
LINE
  8
0
 62
     0
 10
182.462
 20
76.8255
 30
0.0
 11
183.257
 21
76.9235
 31
0.0
  0
LINE
  8
0
 62
     0
 10
183.257
 20
76.9235
 30
0.0
 11
182.878
 21
80.0005
 31
0.0
  0
LINE
  8
0
 62
     0
 10
182.878
 20
80.0005
 30
0.0
 11
182.084
 21
79.9028
 31
0.0
  0
LINE
  8
0
 62
     0
 10
182.084
 20
79.9028
 30
0.0
 11
181.378
 21
85.6601
 31
0.0
  0
LINE
  8
0
 62
     0
 10
181.378
 20
85.6601
 30
0.0
 11
182.171
 21
85.7567
 31
0.0
  0
LINE
  8
0
 62
     0
 10
182.171
 20
85.7567
 30
0.0
 11
181.793
 21
88.834
 31
0.0
  0
LINE
  8
0
 62
     0
 10
181.793
 20
88.834
 30
0.0
 11
181
 21
88.7374
 31
0.0
  0
LINE
  8
0
 62
     0
 10
181
 20
88.7374
 30
0.0
 11
180.877
 21
89.7283
 31
0.0
  0
LINE
  8
0
 62
     0
 10
180.877
 20
89.7283
 30
0.0
 11
166.982
 21
88.0223
 31
0.0
  0
LINE
  8
0
 62
     0
 10
27.0592
 20
89.9252
 30
0.0
 11
26.2599
 21
89.9816
 31
0.0
  0
LINE
  8
0
 62
     0
 10
26.2599
 20
89.9816
 30
0.0
 11
26.0435
 21
86.8895
 31
0.0
  0
LINE
  8
0
 62
     0
 10
26.0435
 20
86.8895
 30
0.0
 11
26.8414
 21
86.8345
 31
0.0
  0
LINE
  8
0
 62
     0
 10
26.8414
 20
86.8345
 30
0.0
 11
26.4377
 21
81.0479
 31
0.0
  0
LINE
  8
0
 62
     0
 10
26.4377
 20
81.0479
 30
0.0
 11
25.6398
 21
81.1029
 31
0.0
  0
LINE
  8
0
 62
     0
 10
25.6398
 20
81.1029
 30
0.0
 11
25.422
 21
78.0108
 31
0.0
  0
LINE
  8
0
 62
     0
 10
25.422
 20
78.0108
 30
0.0
 11
26.2213
 21
77.9544
 31
0.0
  0
LINE
  8
0
 62
     0
 10
26.2213
 20
77.9544
 30
0.0
 11
26.151
 21
76.9578
 31
0.0
  0
LINE
  8
0
 62
     0
 10
26.151
 20
76.9578
 30
0.0
 11
40.1175
 21
75.9809
 31
0.0
  0
LINE
  8
0
 62
     0
 10
40.1175
 20
75.9809
 30
0.0
 11
40.1863
 21
76.9786
 31
0.0
  0
LINE
  8
0
 62
     0
 10
40.1863
 20
76.9786
 30
0.0
 11
40.9843
 21
76.9221
 31
0.0
  0
LINE
  8
0
 62
     0
 10
40.9843
 20
76.9221
 30
0.0
 11
41.202
 21
80.0146
 31
0.0
  0
LINE
  8
0
 62
     0
 10
41.202
 20
80.0146
 30
0.0
 11
40.404
 21
80.071
 31
0.0
  0
LINE
  8
0
 62
     0
 10
40.404
 20
80.071
 30
0.0
 11
40.8079
 21
85.8573
 31
0.0
  0
LINE
  8
0
 62
     0
 10
40.8079
 20
85.8573
 30
0.0
 11
41.6059
 21
85.8008
 31
0.0
  0
LINE
  8
0
 62
     0
 10
41.6059
 20
85.8008
 30
0.0
 11
41.8222
 21
88.8929
 31
0.0
  0
LINE
  8
0
 62
     0
 10
41.8222
 20
88.8929
 30
0.0
 11
41.0228
 21
88.9497
 31
0.0
  0
LINE
  8
0
 62
     0
 10
41.0228
 20
88.9497
 30
0.0
 11
41.093
 21
89.9474
 31
0.0
  0
LINE
  8
0
 62
     0
 10
41.093
 20
89.9474
 30
0.0
 11
27.1267
 21
90.9242
 31
0.0
  0
LINE
  8
0
 62
     0
 10
27.1267
 20
90.9242
 30
0.0
 11
27.0592
 21
89.9252
 31
0.0
  0
LINE
  8
0
 62
     0
 10
6.62009
 20
90.4529
 30
0.0
 11
6.62009
 21
89.4524
 31
0.0
  0
LINE
  8
0
 62
     0
 10
6.62009
 20
89.4524
 30
0.0
 11
5.81946
 21
89.4524
 31
0.0
  0
LINE
  8
0
 62
     0
 10
5.81946
 20
89.4524
 30
0.0
 11
5.81946
 21
86.3519
 31
0.0
  0
LINE
  8
0
 62
     0
 10
5.81946
 20
86.3519
 30
0.0
 11
6.62009
 21
86.3519
 31
0.0
  0
LINE
  8
0
 62
     0
 10
6.62009
 20
86.3519
 30
0.0
 11
6.62009
 21
80.5533
 31
0.0
  0
LINE
  8
0
 62
     0
 10
6.62009
 20
80.5533
 30
0.0
 11
5.81946
 21
80.5533
 31
0.0
  0
LINE
  8
0
 62
     0
 10
5.81946
 20
80.5533
 30
0.0
 11
5.81946
 21
77.4513
 31
0.0
  0
LINE
  8
0
 62
     0
 10
5.81946
 20
77.4513
 30
0.0
 11
6.62009
 21
77.4513
 31
0.0
  0
LINE
  8
0
 62
     0
 10
6.62009
 20
77.4513
 30
0.0
 11
6.62009
 21
76.4522
 31
0.0
  0
LINE
  8
0
 62
     0
 10
6.62009
 20
76.4522
 30
0.0
 11
20.621
 21
76.4522
 31
0.0
  0
LINE
  8
0
 62
     0
 10
20.621
 20
76.4522
 30
0.0
 11
20.621
 21
77.4513
 31
0.0
  0
LINE
  8
0
 62
     0
 10
20.621
 20
77.4513
 30
0.0
 11
21.4202
 21
77.4513
 31
0.0
  0
LINE
  8
0
 62
     0
 10
21.4202
 20
77.4513
 30
0.0
 11
21.4202
 21
80.5533
 31
0.0
  0
LINE
  8
0
 62
     0
 10
21.4202
 20
80.5533
 30
0.0
 11
20.621
 21
80.5533
 31
0.0
  0
LINE
  8
0
 62
     0
 10
20.621
 20
80.5533
 30
0.0
 11
20.621
 21
86.3519
 31
0.0
  0
LINE
  8
0
 62
     0
 10
20.621
 20
86.3519
 30
0.0
 11
21.4202
 21
86.3519
 31
0.0
  0
LINE
  8
0
 62
     0
 10
21.4202
 20
86.3519
 30
0.0
 11
21.4202
 21
89.4524
 31
0.0
  0
LINE
  8
0
 62
     0
 10
21.4202
 20
89.4524
 30
0.0
 11
20.621
 21
89.4524
 31
0.0
  0
LINE
  8
0
 62
     0
 10
20.621
 20
89.4524
 30
0.0
 11
20.621
 21
90.4529
 31
0.0
  0
LINE
  8
0
 62
     0
 10
20.621
 20
90.4529
 30
0.0
 11
6.62009
 21
90.4529
 31
0.0
  0
LINE
  8
0
 62
     0
 10
187.595
 20
90.4515
 30
0.0
 11
187.595
 21
89.4514
 31
0.0
  0
LINE
  8
0
 62
     0
 10
187.595
 20
89.4514
 30
0.0
 11
186.796
 21
89.4514
 31
0.0
  0
LINE
  8
0
 62
     0
 10
186.796
 20
89.4514
 30
0.0
 11
186.796
 21
86.3519
 31
0.0
  0
LINE
  8
0
 62
     0
 10
186.796
 20
86.3519
 30
0.0
 11
187.595
 21
86.3519
 31
0.0
  0
LINE
  8
0
 62
     0
 10
187.595
 20
86.3519
 30
0.0
 11
187.595
 21
80.5519
 31
0.0
  0
LINE
  8
0
 62
     0
 10
187.595
 20
80.5519
 30
0.0
 11
186.796
 21
80.5519
 31
0.0
  0
LINE
  8
0
 62
     0
 10
186.796
 20
80.5519
 30
0.0
 11
186.796
 21
77.4513
 31
0.0
  0
LINE
  8
0
 62
     0
 10
186.796
 20
77.4513
 30
0.0
 11
187.595
 21
77.4513
 31
0.0
  0
LINE
  8
0
 62
     0
 10
187.595
 20
77.4513
 30
0.0
 11
187.595
 21
76.4522
 31
0.0
  0
LINE
  8
0
 62
     0
 10
187.595
 20
76.4522
 30
0.0
 11
201.596
 21
76.4522
 31
0.0
  0
LINE
  8
0
 62
     0
 10
201.596
 20
76.4522
 30
0.0
 11
201.596
 21
77.4513
 31
0.0
  0
LINE
  8
0
 62
     0
 10
201.596
 20
77.4513
 30
0.0
 11
202.395
 21
77.4513
 31
0.0
  0
LINE
  8
0
 62
     0
 10
202.395
 20
77.4513
 30
0.0
 11
202.395
 21
80.5519
 31
0.0
  0
LINE
  8
0
 62
     0
 10
202.395
 20
80.5519
 30
0.0
 11
201.596
 21
80.5519
 31
0.0
  0
LINE
  8
0
 62
     0
 10
201.596
 20
80.5519
 30
0.0
 11
201.596
 21
86.3519
 31
0.0
  0
LINE
  8
0
 62
     0
 10
201.596
 20
86.3519
 30
0.0
 11
202.395
 21
86.3519
 31
0.0
  0
LINE
  8
0
 62
     0
 10
202.395
 20
86.3519
 30
0.0
 11
202.395
 21
89.4514
 31
0.0
  0
LINE
  8
0
 62
     0
 10
202.395
 20
89.4514
 30
0.0
 11
201.596
 21
89.4514
 31
0.0
  0
LINE
  8
0
 62
     0
 10
201.596
 20
89.4514
 30
0.0
 11
201.596
 21
90.4515
 31
0.0
  0
LINE
  8
0
 62
     0
 10
201.596
 20
90.4515
 30
0.0
 11
187.595
 21
90.4515
 31
0.0
  0
LINE
  8
0
 62
     0
 10
206.645
 20
90.4529
 30
0.0
 11
206.645
 21
89.4524
 31
0.0
  0
LINE
  8
0
 62
     0
 10
206.645
 20
89.4524
 30
0.0
 11
205.846
 21
89.4524
 31
0.0
  0
LINE
  8
0
 62
     0
 10
205.846
 20
89.4524
 30
0.0
 11
205.846
 21
86.3519
 31
0.0
  0
LINE
  8
0
 62
     0
 10
205.846
 20
86.3519
 30
0.0
 11
206.645
 21
86.3519
 31
0.0
  0
LINE
  8
0
 62
     0
 10
206.645
 20
86.3519
 30
0.0
 11
206.645
 21
80.5533
 31
0.0
  0
LINE
  8
0
 62
     0
 10
206.645
 20
80.5533
 30
0.0
 11
205.846
 21
80.5533
 31
0.0
  0
LINE
  8
0
 62
     0
 10
205.846
 20
80.5533
 30
0.0
 11
205.846
 21
77.4513
 31
0.0
  0
LINE
  8
0
 62
     0
 10
205.846
 20
77.4513
 30
0.0
 11
206.645
 21
77.4513
 31
0.0
  0
LINE
  8
0
 62
     0
 10
206.645
 20
77.4513
 30
0.0
 11
206.645
 21
76.4522
 31
0.0
  0
LINE
  8
0
 62
     0
 10
206.645
 20
76.4522
 30
0.0
 11
220.646
 21
76.4522
 31
0.0
  0
LINE
  8
0
 62
     0
 10
220.646
 20
76.4522
 30
0.0
 11
220.646
 21
77.4513
 31
0.0
  0
LINE
  8
0
 62
     0
 10
220.646
 20
77.4513
 30
0.0
 11
221.445
 21
77.4513
 31
0.0
  0
LINE
  8
0
 62
     0
 10
221.445
 20
77.4513
 30
0.0
 11
221.445
 21
80.5533
 31
0.0
  0
LINE
  8
0
 62
     0
 10
221.445
 20
80.5533
 30
0.0
 11
220.646
 21
80.5533
 31
0.0
  0
LINE
  8
0
 62
     0
 10
220.646
 20
80.5533
 30
0.0
 11
220.646
 21
86.3519
 31
0.0
  0
LINE
  8
0
 62
     0
 10
220.646
 20
86.3519
 30
0.0
 11
221.445
 21
86.3519
 31
0.0
  0
LINE
  8
0
 62
     0
 10
221.445
 20
86.3519
 30
0.0
 11
221.445
 21
89.4524
 31
0.0
  0
LINE
  8
0
 62
     0
 10
221.445
 20
89.4524
 30
0.0
 11
220.646
 21
89.4524
 31
0.0
  0
LINE
  8
0
 62
     0
 10
220.646
 20
89.4524
 30
0.0
 11
220.646
 21
90.4529
 31
0.0
  0
LINE
  8
0
 62
     0
 10
220.646
 20
90.4529
 30
0.0
 11
206.645
 21
90.4529
 31
0.0
  0
LINE
  8
0
 62
     0
 10
2.13183
 20
96.9038
 30
0.0
 11
1.7129
 21
96.69
 31
0.0
  0
LINE
  8
0
 62
     0
 10
1.7129
 20
96.69
 30
0.0
 11
1.38217
 21
96.3595
 31
0.0
  0
LINE
  8
0
 62
     0
 10
1.38217
 20
96.3595
 30
0.0
 11
1.16858
 21
95.9404
 31
0.0
  0
LINE
  8
0
 62
     0
 10
1.16858
 20
95.9404
 30
0.0
 11
1.09416
 21
95.4775
 31
0.0
  0
LINE
  8
0
 62
     0
 10
1.09416
 20
95.4775
 30
0.0
 11
1.16858
 21
95.0143
 31
0.0
  0
LINE
  8
0
 62
     0
 10
1.16858
 20
95.0143
 30
0.0
 11
1.38217
 21
94.5956
 31
0.0
  0
LINE
  8
0
 62
     0
 10
1.38217
 20
94.5956
 30
0.0
 11
1.7129
 21
94.2633
 31
0.0
  0
LINE
  8
0
 62
     0
 10
1.7129
 20
94.2633
 30
0.0
 11
2.13183
 21
94.0513
 31
0.0
  0
LINE
  8
0
 62
     0
 10
2.13183
 20
94.0513
 30
0.0
 11
2.59485
 21
93.9768
 31
0.0
  0
LINE
  8
0
 62
     0
 10
2.59485
 20
93.9768
 30
0.0
 11
3.05787
 21
94.0513
 31
0.0
  0
LINE
  8
0
 62
     0
 10
3.05787
 20
94.0513
 30
0.0
 11
3.47679
 21
94.2633
 31
0.0
  0
LINE
  8
0
 62
     0
 10
3.47679
 20
94.2633
 30
0.0
 11
3.80891
 21
94.5956
 31
0.0
  0
LINE
  8
0
 62
     0
 10
3.80891
 20
94.5956
 30
0.0
 11
4.0211
 21
95.0143
 31
0.0
  0
LINE
  8
0
 62
     0
 10
4.0211
 20
95.0143
 30
0.0
 11
4.09554
 21
95.4775
 31
0.0
  0
LINE
  8
0
 62
     0
 10
4.09554
 20
95.4775
 30
0.0
 11
4.0211
 21
95.9404
 31
0.0
  0
LINE
  8
0
 62
     0
 10
4.0211
 20
95.9404
 30
0.0
 11
3.80891
 21
96.3595
 31
0.0
  0
LINE
  8
0
 62
     0
 10
3.80891
 20
96.3595
 30
0.0
 11
3.47679
 21
96.69
 31
0.0
  0
LINE
  8
0
 62
     0
 10
3.47679
 20
96.69
 30
0.0
 11
3.05787
 21
96.9038
 31
0.0
  0
LINE
  8
0
 62
     0
 10
3.05787
 20
96.9038
 30
0.0
 11
2.59485
 21
96.9768
 31
0.0
  0
LINE
  8
0
 62
     0
 10
2.59485
 20
96.9768
 30
0.0
 11
2.13183
 21
96.9038
 31
0.0
  0
LINE
  8
0
 62
     0
 10
99.9698
 20
96.9038
 30
0.0
 11
99.5507
 21
96.69
 31
0.0
  0
LINE
  8
0
 62
     0
 10
99.5507
 20
96.69
 30
0.0
 11
99.2202
 21
96.3595
 31
0.0
  0
LINE
  8
0
 62
     0
 10
99.2202
 20
96.3595
 30
0.0
 11
99.0064
 21
95.9404
 31
0.0
  0
LINE
  8
0
 62
     0
 10
99.0064
 20
95.9404
 30
0.0
 11
98.9323
 21
95.4775
 31
0.0
  0
LINE
  8
0
 62
     0
 10
98.9323
 20
95.4775
 30
0.0
 11
99.0064
 21
95.0143
 31
0.0
  0
LINE
  8
0
 62
     0
 10
99.0064
 20
95.0143
 30
0.0
 11
99.2202
 21
94.5956
 31
0.0
  0
LINE
  8
0
 62
     0
 10
99.2202
 20
94.5956
 30
0.0
 11
99.5507
 21
94.2633
 31
0.0
  0
LINE
  8
0
 62
     0
 10
99.5507
 20
94.2633
 30
0.0
 11
99.9698
 21
94.0513
 31
0.0
  0
LINE
  8
0
 62
     0
 10
99.9698
 20
94.0513
 30
0.0
 11
100.433
 21
93.9768
 31
0.0
  0
LINE
  8
0
 62
     0
 10
100.433
 20
93.9768
 30
0.0
 11
100.896
 21
94.0513
 31
0.0
  0
LINE
  8
0
 62
     0
 10
100.896
 20
94.0513
 30
0.0
 11
101.315
 21
94.2633
 31
0.0
  0
LINE
  8
0
 62
     0
 10
101.315
 20
94.2633
 30
0.0
 11
101.647
 21
94.5956
 31
0.0
  0
LINE
  8
0
 62
     0
 10
101.647
 20
94.5956
 30
0.0
 11
101.859
 21
95.0143
 31
0.0
  0
LINE
  8
0
 62
     0
 10
101.859
 20
95.0143
 30
0.0
 11
101.932
 21
95.4775
 31
0.0
  0
LINE
  8
0
 62
     0
 10
101.932
 20
95.4775
 30
0.0
 11
101.859
 21
95.9404
 31
0.0
  0
LINE
  8
0
 62
     0
 10
101.859
 20
95.9404
 30
0.0
 11
101.647
 21
96.3595
 31
0.0
  0
LINE
  8
0
 62
     0
 10
101.647
 20
96.3595
 30
0.0
 11
101.315
 21
96.69
 31
0.0
  0
LINE
  8
0
 62
     0
 10
101.315
 20
96.69
 30
0.0
 11
100.896
 21
96.9038
 31
0.0
  0
LINE
  8
0
 62
     0
 10
100.896
 20
96.9038
 30
0.0
 11
100.433
 21
96.9768
 31
0.0
  0
LINE
  8
0
 62
     0
 10
100.433
 20
96.9768
 30
0.0
 11
99.9698
 21
96.9038
 31
0.0
  0
LINE
  8
0
 62
     0
 10
197.808
 20
96.9038
 30
0.0
 11
197.389
 21
96.69
 31
0.0
  0
LINE
  8
0
 62
     0
 10
197.389
 20
96.69
 30
0.0
 11
197.058
 21
96.3595
 31
0.0
  0
LINE
  8
0
 62
     0
 10
197.058
 20
96.3595
 30
0.0
 11
196.844
 21
95.9404
 31
0.0
  0
LINE
  8
0
 62
     0
 10
196.844
 20
95.9404
 30
0.0
 11
196.77
 21
95.4775
 31
0.0
  0
LINE
  8
0
 62
     0
 10
196.77
 20
95.4775
 30
0.0
 11
196.844
 21
95.0143
 31
0.0
  0
LINE
  8
0
 62
     0
 10
196.844
 20
95.0143
 30
0.0
 11
197.058
 21
94.5956
 31
0.0
  0
LINE
  8
0
 62
     0
 10
197.058
 20
94.5956
 30
0.0
 11
197.389
 21
94.2633
 31
0.0
  0
LINE
  8
0
 62
     0
 10
197.389
 20
94.2633
 30
0.0
 11
197.808
 21
94.0513
 31
0.0
  0
LINE
  8
0
 62
     0
 10
197.808
 20
94.0513
 30
0.0
 11
198.271
 21
93.9768
 31
0.0
  0
LINE
  8
0
 62
     0
 10
198.271
 20
93.9768
 30
0.0
 11
198.735
 21
94.0513
 31
0.0
  0
LINE
  8
0
 62
     0
 10
198.735
 20
94.0513
 30
0.0
 11
199.153
 21
94.2633
 31
0.0
  0
LINE
  8
0
 62
     0
 10
199.153
 20
94.2633
 30
0.0
 11
199.485
 21
94.5956
 31
0.0
  0
LINE
  8
0
 62
     0
 10
199.485
 20
94.5956
 30
0.0
 11
199.697
 21
95.0143
 31
0.0
  0
LINE
  8
0
 62
     0
 10
199.697
 20
95.0143
 30
0.0
 11
199.77
 21
95.4775
 31
0.0
  0
LINE
  8
0
 62
     0
 10
199.77
 20
95.4775
 30
0.0
 11
199.697
 21
95.9404
 31
0.0
  0
LINE
  8
0
 62
     0
 10
199.697
 20
95.9404
 30
0.0
 11
199.485
 21
96.3595
 31
0.0
  0
LINE
  8
0
 62
     0
 10
199.485
 20
96.3595
 30
0.0
 11
199.153
 21
96.69
 31
0.0
  0
LINE
  8
0
 62
     0
 10
199.153
 20
96.69
 30
0.0
 11
198.735
 21
96.9038
 31
0.0
  0
LINE
  8
0
 62
     0
 10
198.735
 20
96.9038
 30
0.0
 11
198.271
 21
96.9768
 31
0.0
  0
LINE
  8
0
 62
     0
 10
198.271
 20
96.9768
 30
0.0
 11
197.808
 21
96.9038
 31
0.0
  0
LINE
  8
0
 62
     0
 10
295.644
 20
96.9038
 30
0.0
 11
295.227
 21
96.69
 31
0.0
  0
LINE
  8
0
 62
     0
 10
295.227
 20
96.69
 30
0.0
 11
294.895
 21
96.3595
 31
0.0
  0
LINE
  8
0
 62
     0
 10
294.895
 20
96.3595
 30
0.0
 11
294.681
 21
95.9404
 31
0.0
  0
LINE
  8
0
 62
     0
 10
294.681
 20
95.9404
 30
0.0
 11
294.608
 21
95.4775
 31
0.0
  0
LINE
  8
0
 62
     0
 10
294.608
 20
95.4775
 30
0.0
 11
294.681
 21
95.0143
 31
0.0
  0
LINE
  8
0
 62
     0
 10
294.681
 20
95.0143
 30
0.0
 11
294.895
 21
94.5956
 31
0.0
  0
LINE
  8
0
 62
     0
 10
294.895
 20
94.5956
 30
0.0
 11
295.227
 21
94.2633
 31
0.0
  0
LINE
  8
0
 62
     0
 10
295.227
 20
94.2633
 30
0.0
 11
295.644
 21
94.0513
 31
0.0
  0
LINE
  8
0
 62
     0
 10
295.644
 20
94.0513
 30
0.0
 11
296.109
 21
93.9768
 31
0.0
  0
LINE
  8
0
 62
     0
 10
296.109
 20
93.9768
 30
0.0
 11
296.573
 21
94.0513
 31
0.0
  0
LINE
  8
0
 62
     0
 10
296.573
 20
94.0513
 30
0.0
 11
296.991
 21
94.2633
 31
0.0
  0
LINE
  8
0
 62
     0
 10
296.991
 20
94.2633
 30
0.0
 11
297.323
 21
94.5956
 31
0.0
  0
LINE
  8
0
 62
     0
 10
297.323
 20
94.5956
 30
0.0
 11
297.535
 21
95.0143
 31
0.0
  0
LINE
  8
0
 62
     0
 10
297.535
 20
95.0143
 30
0.0
 11
297.608
 21
95.4775
 31
0.0
  0
LINE
  8
0
 62
     0
 10
297.608
 20
95.4775
 30
0.0
 11
297.535
 21
95.9404
 31
0.0
  0
LINE
  8
0
 62
     0
 10
297.535
 20
95.9404
 30
0.0
 11
297.323
 21
96.3595
 31
0.0
  0
LINE
  8
0
 62
     0
 10
297.323
 20
96.3595
 30
0.0
 11
296.991
 21
96.69
 31
0.0
  0
LINE
  8
0
 62
     0
 10
296.991
 20
96.69
 30
0.0
 11
296.573
 21
96.9038
 31
0.0
  0
LINE
  8
0
 62
     0
 10
296.573
 20
96.9038
 30
0.0
 11
296.109
 21
96.9768
 31
0.0
  0
LINE
  8
0
 62
     0
 10
296.109
 20
96.9768
 30
0.0
 11
295.644
 21
96.9038
 31
0.0
  0
ENDSEC
  0
EOF
